<?xml version="1.0" encoding="UTF-8" standalone="no"?>
<!DOCTYPE svg PUBLIC "-//W3C//DTD SVG 1.1//EN" "http://www.w3.org/Graphics/SVG/1.1/DTD/svg11.dtd">
<svg width="100%" height="100%" viewBox="0 0 842 567" version="1.1" xmlns="http://www.w3.org/2000/svg" xmlns:xlink="http://www.w3.org/1999/xlink" xml:space="preserve" xmlns:serif="http://www.serif.com/" style="fill-rule:evenodd;clip-rule:evenodd;stroke-linejoin:round;stroke-miterlimit:2;">
    <g transform="matrix(2.43401,0,0,2.43401,-570.902,-333.607)">
        <g>
            <path d="M280.167,341.482C280.167,341.482 304.106,319.718 385.715,324.072C467.323,328.425 490.175,274.019 490.175,237.024C490.175,200.028 481.47,167.694 521.729,167.539C494.526,143.988 457.53,143.444 431.415,175.545C403.722,209.584 392.383,242.537 362.321,275.107C329.676,310.47 280.167,341.482 280.167,341.482Z" style="fill:rgb(236,194,30);fill-rule:nonzero;"/>
            <path d="M521.729,167.539C471.132,148.565 451.001,183.16 449.913,214.717C449.288,232.838 456.116,257.904 431.97,287.621C408.233,316.83 342.387,324.275 342.211,324.299C354.45,323.39 368.846,323.174 385.715,324.072C467.323,328.425 490.175,274.019 490.175,237.024C490.175,200.028 481.47,167.694 521.729,167.539Z" style="fill:rgb(236,194,30);fill-rule:nonzero;"/>
        </g>
        <path d="M486.009,220.211C486.214,225.659 486.426,231.293 486.426,237.024C486.426,255.741 480.536,274.098 470.171,288.123C456.517,306.339 433.443,319.785 397.917,320.536L397.898,320.536C396.863,320.558 395.818,320.569 394.762,320.569C394.261,320.569 393.744,320.552 393.238,320.549C390.835,320.525 388.387,320.461 385.915,320.329C385.676,320.316 385.442,320.307 385.204,320.296C383.664,320.216 382.127,320.14 380.603,320.079C400.321,314.334 422.762,304.896 434.879,289.985C447.859,274.01 452.268,259.057 453.589,246.03C454.356,238.466 454.081,231.55 453.84,225.462C453.689,221.676 453.547,218.1 453.659,214.846C454.438,192.257 465.784,165.878 495.196,165.878C498.068,165.878 501.071,166.128 504.189,166.625C504.18,166.629 504.171,166.633 504.161,166.636C504.114,166.655 504.069,166.676 504.021,166.695C503.386,166.946 502.772,167.219 502.172,167.504C502.03,167.571 501.889,167.637 501.749,167.706C501.137,168.009 500.541,168.329 499.966,168.668C499.857,168.731 499.754,168.799 499.647,168.863C499.129,169.178 498.625,169.509 498.137,169.854C498.047,169.917 497.954,169.978 497.865,170.042C497.334,170.428 496.824,170.836 496.33,171.258C496.218,171.354 496.108,171.452 495.998,171.55C495.5,171.991 495.014,172.444 494.554,172.924C484.619,183.279 485.263,200.394 486.009,220.211ZM415.887,352.743L404.385,352.743L404.385,327.776C408.337,327.533 412.17,327.134 415.887,326.586L415.887,352.743ZM365.075,277.65C381.777,259.555 392.971,241.043 403.795,223.14C412.717,208.385 421.942,193.128 434.323,177.911C446.874,162.482 462.456,154.327 479.385,154.327C486.558,154.327 493.684,155.798 500.562,158.642C498.74,158.482 496.945,158.381 495.196,158.381C479.718,158.381 466.899,164.721 458.125,176.717C450.916,186.573 446.669,200.023 446.167,214.588C446.045,218.119 446.192,221.83 446.348,225.759C446.992,241.995 447.794,262.202 429.061,285.257C406.797,312.654 344.519,320.254 341.722,320.582C329.219,321.523 318.9,323.178 310.491,325.118C327.255,312.762 348.324,295.797 365.075,277.65ZM525.472,167.618C525.473,167.538 525.468,167.46 525.465,167.381C525.46,167.256 525.45,167.133 525.433,167.01C525.42,166.926 525.405,166.843 525.388,166.76C525.363,166.644 525.332,166.53 525.296,166.416C525.271,166.336 525.246,166.257 525.216,166.179C525.171,166.065 525.117,165.954 525.061,165.843C525.025,165.774 524.993,165.703 524.954,165.636C524.886,165.52 524.806,165.411 524.725,165.302C524.684,165.248 524.648,165.19 524.605,165.138C524.481,164.99 524.347,164.851 524.198,164.721C524.187,164.711 524.176,164.7 524.164,164.69C510.661,153.006 495.178,146.83 479.385,146.83C460.124,146.83 442.53,155.941 428.507,173.179C415.797,188.801 406.435,204.286 397.38,219.261C386.258,237.654 375.753,255.027 359.566,272.564C334.144,300.104 298.367,324.995 284.012,334.514C279.774,336.818 277.853,338.519 277.646,338.708C276.209,340.013 276.006,342.2 277.179,343.747C277.912,344.714 279.031,345.231 280.169,345.231C280.851,345.231 281.54,345.046 282.156,344.659C282.244,344.604 284.306,343.311 287.872,340.951C295.725,336.74 312.305,330.268 342.449,328.036C342.462,328.035 342.475,328.038 342.489,328.037C347.677,327.652 353.119,327.41 358.725,327.306C358.948,327.301 359.17,327.298 359.395,327.294C361.208,327.264 363.035,327.247 364.879,327.247C371.483,327.247 378.427,327.438 385.516,327.815C388.64,327.982 391.75,328.066 394.761,328.067L394.765,328.067C395.478,328.067 396.182,328.055 396.888,328.047L396.888,352.743L385.036,352.743C382.965,352.743 381.287,354.422 381.287,356.492C381.287,358.562 382.965,360.241 385.036,360.241L451.13,360.241C453.2,360.241 454.879,358.562 454.879,356.492C454.879,354.422 453.2,352.743 451.13,352.743L423.385,352.743L423.385,325.23C442.499,321.144 458.161,312.651 470.17,299.826C471.202,298.722 472.212,297.593 473.19,296.426C486.367,280.715 493.924,259.063 493.924,237.024C493.924,231.152 493.709,225.446 493.501,219.929C492.819,201.817 492.23,186.175 499.964,178.114C504.333,173.56 511.457,171.327 521.744,171.288C521.956,171.287 522.163,171.265 522.367,171.23C522.437,171.218 522.503,171.197 522.572,171.181C522.703,171.151 522.834,171.118 522.96,171.074C523.036,171.048 523.109,171.015 523.184,170.984C523.297,170.935 523.408,170.884 523.516,170.826C523.588,170.787 523.658,170.745 523.728,170.7C523.83,170.635 523.929,170.566 524.024,170.491C524.089,170.442 524.151,170.392 524.211,170.338C524.306,170.256 524.392,170.167 524.477,170.074C524.529,170.017 524.584,169.963 524.633,169.902C524.717,169.799 524.791,169.688 524.864,169.575C524.902,169.516 524.945,169.461 524.98,169.4C525.071,169.24 525.15,169.072 525.219,168.898C525.228,168.874 525.239,168.852 525.248,168.828C525.319,168.634 525.371,168.436 525.409,168.236C525.411,168.224 525.417,168.213 525.419,168.201C525.428,168.153 525.425,168.105 525.432,168.056C525.452,167.91 525.468,167.764 525.472,167.618Z" style="fill:white;fill-rule:nonzero;"/>
    </g>
</svg>
