<?xml version="1.0" encoding="UTF-8" standalone="no"?>
<!DOCTYPE svg PUBLIC "-//W3C//DTD SVG 1.1//EN" "http://www.w3.org/Graphics/SVG/1.1/DTD/svg11.dtd">
<svg width="100%" height="100%" viewBox="0 0 126 259" version="1.1" xmlns="http://www.w3.org/2000/svg" xmlns:xlink="http://www.w3.org/1999/xlink" xml:space="preserve" xmlns:serif="http://www.serif.com/" style="fill-rule:evenodd;clip-rule:evenodd;stroke-linejoin:round;stroke-miterlimit:2;">
    <g transform="matrix(1,0,0,1,-363.743,-40.8234)">
        <g transform="matrix(0.682279,0,0,0.682279,319.713,2.81977)">
            <path d="M240.979,433.948C244.544,430.904 247.214,426.842 248.535,422.217C247.495,426.986 244.754,431.119 240.979,433.948Z" style="fill:white;fill-rule:nonzero;"/>
            <path d="M225.338,434.362L83.295,434.362C72.933,434.362 64.534,425.962 64.534,415.601L64.534,74.462C64.534,64.101 72.933,55.701 83.295,55.701L225.338,55.701C235.699,55.701 244.098,64.101 244.098,74.462L244.098,415.601C244.098,425.962 235.699,434.362 225.338,434.362Z" style="fill:white;"/>
            <g>
                <g transform="matrix(1.49561,0,0,1.72374,-113.062,-50.5296)">
                    <path d="M227.513,71.048L219.873,71.048C219.533,71.048 219.257,70.773 219.257,70.433C219.257,70.093 219.533,69.817 219.873,69.817L227.513,69.817C227.853,69.817 228.129,70.093 228.129,70.433C228.129,70.773 227.853,71.048 227.513,71.048Z" style="fill:rgb(30,30,31);fill-rule:nonzero;"/>
                    <path d="M227.513,74.314L219.873,74.314C219.533,74.314 219.257,74.039 219.257,73.699C219.257,73.359 219.533,73.083 219.873,73.083L227.513,73.083C227.853,73.083 228.129,73.359 228.129,73.699C228.129,74.039 227.853,74.314 227.513,74.314Z" style="fill:rgb(30,30,31);fill-rule:nonzero;"/>
                    <path d="M227.513,77.58L219.873,77.58C219.533,77.58 219.257,77.305 219.257,76.965C219.257,76.625 219.533,76.349 219.873,76.349L227.513,76.349C227.853,76.349 228.129,76.625 228.129,76.965C228.129,77.305 227.853,77.58 227.513,77.58Z" style="fill:rgb(30,30,31);fill-rule:nonzero;"/>
                </g>
                <g transform="matrix(1.79805,0,0,1.79805,-65.0265,-56.2186)">
                    <path d="M85.498,77.538C85.278,77.538 85.056,77.464 84.875,77.31L81.823,74.728C81.606,74.545 81.482,74.276 81.482,73.992C81.482,73.708 81.606,73.439 81.823,73.256L84.875,70.674C85.282,70.329 85.889,70.38 86.234,70.787C86.578,71.194 86.527,71.802 86.121,72.146L83.938,73.992L86.121,75.838C86.527,76.182 86.578,76.79 86.234,77.197C86.043,77.423 85.771,77.538 85.498,77.538Z" style="fill:rgb(30,30,31);fill-rule:nonzero;"/>
                </g>
            </g>
        </g>
    </g>
</svg>
