<?xml version="1.0" encoding="UTF-8" standalone="no"?>
<!DOCTYPE svg PUBLIC "-//W3C//DTD SVG 1.1//EN" "http://www.w3.org/Graphics/SVG/1.1/DTD/svg11.dtd">
<svg width="100%" height="100%" viewBox="0 0 323 324" version="1.1" xmlns="http://www.w3.org/2000/svg" xmlns:xlink="http://www.w3.org/1999/xlink" xml:space="preserve" xmlns:serif="http://www.serif.com/" style="fill-rule:evenodd;clip-rule:evenodd;stroke-linejoin:round;stroke-miterlimit:2;">
    <g transform="matrix(1,0,0,1,-263.748,-8.01802)">
        <g transform="matrix(5.04892,0,0,5.04892,-1089.68,-1092.23)">
            <g transform="matrix(0.20717,0,0,0.21581,219.503,212.202)">
                <path d="M389.148,36.323C465.809,36.323 528.047,98.561 528.047,175.221C528.047,251.881 465.809,314.12 389.148,314.12C367.879,314.12 347.173,308.28 328.665,298.797C314.166,291.368 274.371,307.282 263.355,296.439C255.168,288.381 274.797,254.079 269.041,244.673C256.796,224.663 250.25,201.566 250.25,175.221C250.25,98.561 312.488,36.323 389.148,36.323Z" style="fill:url(#_Linear1);"/>
            </g>
            <path d="M300.135,276.161L300.123,276.161C295.379,276.159 290.727,274.886 286.668,272.479L285.703,271.903L275.698,274.528L278.368,264.775L277.74,263.777C275.094,259.568 273.697,254.707 273.698,249.711C273.705,235.142 285.563,223.288 300.145,223.288C307.205,223.29 313.842,226.042 318.834,231.037C323.825,236.033 326.572,242.672 326.569,249.733C326.563,264.307 314.705,276.161 300.135,276.161ZM322.631,227.241C316.627,221.231 308.642,217.921 300.132,217.917C282.603,217.917 268.335,232.179 268.328,249.709C268.327,255.314 269.791,260.785 272.574,265.605L268.062,282.082L284.922,277.66C289.567,280.195 294.798,281.527 300.121,281.531L300.135,281.531C317.662,281.531 331.933,267.268 331.938,249.735C331.942,241.24 328.636,233.252 322.631,227.241Z" style="fill:white;"/>
            <path d="M314.633,256.369C313.839,255.97 309.933,254.05 309.205,253.783C308.475,253.52 307.946,253.386 307.416,254.183C306.886,254.978 305.363,256.767 304.899,257.297C304.436,257.826 303.972,257.893 303.178,257.494C302.383,257.097 299.822,256.259 296.786,253.553C294.425,251.446 292.83,248.844 292.367,248.048C291.902,247.253 292.316,246.824 292.714,246.427C293.071,246.072 293.51,245.499 293.907,245.034C294.303,244.571 294.437,244.24 294.702,243.71C294.966,243.18 294.833,242.715 294.635,242.317C294.437,241.92 292.848,238.01 292.185,236.419C291.54,234.869 290.885,235.079 290.397,235.056C289.934,235.032 289.403,235.028 288.874,235.028C288.345,235.028 287.482,235.227 286.753,236.023C286.026,236.817 283.973,238.74 283.973,242.648C283.973,246.561 286.82,250.337 287.219,250.867C287.615,251.396 292.822,259.423 300.793,262.862C302.688,263.683 304.17,264.172 305.323,264.538C307.227,265.143 308.96,265.056 310.33,264.853C311.856,264.624 315.031,262.93 315.693,261.073C316.356,259.219 316.356,257.628 316.157,257.297C315.959,256.965 315.43,256.767 314.633,256.369Z" style="fill:white;"/>
        </g>
    </g>
    <defs>
        <linearGradient id="_Linear1" x1="0" y1="0" x2="1" y2="0" gradientUnits="userSpaceOnUse" gradientTransform="matrix(1.87265e-14,-293.584,318.581,1.87265e-14,388.555,299.338)"><stop offset="0" style="stop-color:rgb(41,212,72);stop-opacity:1"/><stop offset="1" style="stop-color:rgb(84,248,115);stop-opacity:1"/></linearGradient>
    </defs>
</svg>
