<?xml version="1.0" encoding="UTF-8" standalone="no"?>
<!DOCTYPE svg PUBLIC "-//W3C//DTD SVG 1.1//EN" "http://www.w3.org/Graphics/SVG/1.1/DTD/svg11.dtd">
<svg width="100%" height="100%" viewBox="0 0 900 900" version="1.1" xmlns="http://www.w3.org/2000/svg" xmlns:xlink="http://www.w3.org/1999/xlink" xml:space="preserve" xmlns:serif="http://www.serif.com/" style="fill-rule:evenodd;clip-rule:evenodd;stroke-linejoin:round;stroke-miterlimit:2;">
    <g transform="matrix(0.206135,0,0,0.206135,-210.105,111.144)">
        <g>
            <path d="M2229.4,3134.4L2295.1,3173.4C2571.2,3337.3 2887.8,3423.9 3210.6,3424.1L3211.3,3424.1C4202.8,3424.1 5009.7,2617.3 5010.1,1625.8C5010.3,1145.3 4823.3,693.5 4483.7,353.5C4144.1,13.7 3692.6,-173.6 3212,-173.8C2219.8,-173.8 1412.8,632.8 1412.5,1624.4C1412.4,1964.2 1507.4,2295.1 1687.5,2581.4L1730.3,2649.4L1548.5,3313L2229.4,3134.4ZM1029,3826.9L1336,2705.8C1146.6,2377.7 1047,2005.5 1047.1,1624.2C1047.6,431.3 2018.4,-539.2 3211.4,-539.2C3790.3,-539 4333.7,-313.6 4742.3,95.3C5150.9,504.2 5375.8,1047.8 5375.6,1626C5375.1,2818.8 4404.1,3789.5 3211.4,3789.5C3211.3,3789.5 3211.4,3789.5 3211.4,3789.5L3210.5,3789.5C2848.3,3789.4 2492.4,3698.5 2176.3,3526.1L1029,3826.9Z" style="fill:white;fill-rule:nonzero;"/>
            <path d="M1121.8,1624.9C1121.7,1993 1217.8,2352.3 1400.7,2669.1L1104.3,3751.4L2211.8,3461C2517,3627.3 2860.5,3715.1 3210.2,3715.2L3211.1,3715.2C4362.6,3715.2 5299.8,2778.2 5300.3,1626.6C5300.5,1068.5 5083.4,543.8 4688.9,149C4294.5,-245.9 3770,-463.4 3211,-463.7C2059.5,-463.7 1122.2,473.2 1121.8,1624.9M3211.1,3715.1C3211.1,3715.1 3211,3715.1 3211.1,3715.1" style="fill:rgb(77,194,71);fill-rule:nonzero;"/>
            <path d="M1047.2,1624.3C1047.1,2005.6 1146.7,2377.8 1336.1,2705.9L1029,3826.9L2176.3,3526.1C2492.4,3698.5 2848.3,3789.3 3210.5,3789.5L3211.4,3789.5C4404.1,3789.5 5375.1,2818.8 5375.6,1626C5375.8,1047.9 5150.9,504.3 4742.3,95.3C4333.7,-313.6 3790.3,-539 3211.4,-539.2C2018.4,-539.2 1047.6,431.3 1047.2,1624.3M1730.3,2649.4L1687.5,2581.4C1507.4,2295.1 1412.4,1964.2 1412.5,1624.4C1412.9,632.9 2219.8,-173.8 3212,-173.8C3692.5,-173.6 4144.1,13.7 4483.8,353.6C4823.4,693.5 5010.3,1145.3 5010.2,1625.8C5009.8,2617.3 4202.8,3424.1 3211.4,3424.1L3210.7,3424.1C2887.9,3423.9 2571.3,3337.3 2295.2,3173.4L2229.5,3134.4L1548.6,3312.9L1730.3,2649.4ZM3211.4,3789.5" style="fill:url(#_Linear1);fill-rule:nonzero;"/>
            <path d="M2662.2,719.4C2621.7,629.3 2579.1,627.5 2540.5,626C2509,624.7 2472.9,624.7 2436.9,624.7C2400.8,624.7 2342.2,638.2 2292.7,692.3C2243.1,746.4 2103.4,877.2 2103.4,1143.3C2103.4,1409.4 2297.2,1666.5 2324.2,1702.6C2351.2,1738.6 2698.3,2302.1 3247.9,2518.8C3704.7,2698.9 3797.7,2663.1 3896.8,2654.1C3995.9,2645.1 4216.7,2523.3 4261.8,2397.1C4306.9,2270.8 4306.9,2162.6 4293.4,2140C4279.9,2117.5 4243.8,2103.9 4189.7,2076.9C4135.6,2049.9 3869.8,1919 3820.2,1901C3770.6,1883 3734.6,1874 3698.5,1928.1C3662.5,1982.2 3558.9,2103.9 3527.3,2140C3495.8,2176.1 3464.2,2180.6 3410.1,2153.6C3356,2126.5 3181.8,2069.4 2975.2,1885.2C2814.4,1741.9 2705.9,1564.9 2674.4,1510.7C2642.9,1456.6 2671,1427.3 2698.1,1400.4C2722.4,1376.2 2752.2,1337.3 2779.2,1305.7C2806.2,1274.1 2815.2,1251.6 2833.2,1215.5C2851.2,1179.4 2842.2,1147.8 2828.7,1120.8C2815.3,1093.7 2710.2,826.3 2662.2,719.4" style="fill:white;"/>
        </g>
    </g>
    <defs>
        <linearGradient id="_Linear1" x1="0" y1="0" x2="1" y2="0" gradientUnits="userSpaceOnUse" gradientTransform="matrix(4.35956e-14,-711.969,711.969,4.35956e-14,3202.14,3826.92)"><stop offset="0" style="stop-color:rgb(249,249,249);stop-opacity:1"/><stop offset="1" style="stop-color:white;stop-opacity:1"/></linearGradient>
    </defs>
</svg>
