<?xml version="1.0" encoding="UTF-8" standalone="no"?>
<!DOCTYPE svg PUBLIC "-//W3C//DTD SVG 1.1//EN" "http://www.w3.org/Graphics/SVG/1.1/DTD/svg11.dtd">
<svg width="100%" height="100%" viewBox="0 0 7420 7420" version="1.1" xmlns="http://www.w3.org/2000/svg" xmlns:xlink="http://www.w3.org/1999/xlink" xml:space="preserve" xmlns:serif="http://www.serif.com/" style="fill-rule:evenodd;clip-rule:evenodd;stroke-linejoin:round;stroke-miterlimit:2;">
    <g transform="matrix(2,0,0,2,0,0)">
        <g>
            <g id="left-leaf">
                <path d="M536.406,884.029C539.965,865.189 566.473,863.639 572.123,881.96C626.749,1059.09 784.536,1519.07 1015.36,1759.4C1391.2,2150.7 1651.14,2795.08 1425.61,3138.05C1425.61,3138.05 148.692,2936.76 536.406,884.029Z" style="fill:rgb(145,179,250);fill-rule:nonzero;"/>
                <path d="M1273.53,2862.58C1242.35,2822.74 1212.66,2781.7 1184.07,2739.93C1149.35,2688.39 1116.91,2635.36 1085.86,2581.55C1101.52,2598.96 1117.06,2615.12 1132.34,2630.15C1152.5,2664.77 1173.39,2698.97 1195.24,2732.56C1220.21,2771.18 1246.24,2809.1 1273.37,2846.25C1273.42,2851.73 1273.48,2857.19 1273.53,2862.58ZM797.846,1943.46C786.935,1912.82 776.287,1882.1 765.813,1851.32C739.458,1773.65 714.749,1695.42 692.246,1616.56C669.634,1537.74 648.207,1458.58 628.937,1378.89C619.376,1339.02 610.18,1299.08 601.482,1259.02C597.206,1238.97 592.93,1218.92 588.96,1198.81L583.212,1168.59L580.503,1153.43C579.696,1148.28 578.737,1143.52 578.135,1137.7C577.964,1136.01 579.147,1134.46 580.844,1134.2C581.006,1134.18 581.167,1134.17 581.327,1134.17C582.884,1134.17 584.25,1135.31 584.49,1136.89L584.599,1137.61C585.255,1141.95 586.364,1147.23 587.318,1152.16L590.473,1167.15L597.121,1197.08L611.034,1256.84C620.623,1296.61 630.705,1336.25 641.15,1375.8C661.913,1454.93 684.078,1533.68 707.819,1611.95C733.38,1695.57 760.167,1778.81 788.775,1861.42C791.087,1889.55 794.125,1916.82 797.846,1943.46Z" style="fill:rgb(192,212,252);fill-rule:nonzero;"/>
            </g>
        </g>
    </g>
</svg>
