<?xml version="1.0" encoding="UTF-8" standalone="no"?>
<!DOCTYPE svg PUBLIC "-//W3C//DTD SVG 1.1//EN" "http://www.w3.org/Graphics/SVG/1.1/DTD/svg11.dtd">
<svg width="100%" height="100%" viewBox="0 0 7420 7420" version="1.1" xmlns="http://www.w3.org/2000/svg" xmlns:xlink="http://www.w3.org/1999/xlink" xml:space="preserve" xmlns:serif="http://www.serif.com/" style="fill-rule:evenodd;clip-rule:evenodd;stroke-linejoin:round;stroke-miterlimit:2;">
    <g transform="matrix(2,0,0,2,0,0)">
        <g>
            <g id="phone">
                <g transform="matrix(1,0,0,1,-1,0)">
                    <path d="M2456.25,3162.05C2352.16,3162.05 2244.59,3161.18 2138.84,3159.77C1825.09,3155.61 1526.75,3146.74 1378.6,3141.9C1323.73,3140.1 1278.68,3094.69 1276.95,3040.12C1275.36,2989.32 1274.24,2929.51 1273.53,2862.58C1273.17,2823.74 1272.88,2784.9 1272.73,2746.06C1272.43,2663.04 1272.59,2572.33 1273.12,2476.5C1273.17,2466.64 1273.23,2456.76 1273.29,2446.79C1275.57,2082.74 1282.96,1650.03 1290.39,1284.52C1295.38,1038.67 1300.4,823.132 1303.89,679.46C1304.5,654.497 1305.06,631.723 1305.56,611.31C1305.99,594.186 1309.57,577.587 1316.22,561.81C1332.34,523.565 1366.32,493.984 1406.54,483.589C1436.11,475.948 1510.17,475.852 1520.82,475.559C1553.91,474.648 1587.01,474.256 1620.11,474.316C1905.29,474.835 2190.51,495.06 2474.63,517.688C2559.21,524.425 2643.74,531.882 2728.23,539.665C2748.16,541.501 2718.24,538.73 2746.34,541.34C2801.43,546.456 2856.55,551.279 2911.55,557.264C2953.39,561.816 2991.75,583.864 3015.85,618.545C3020.55,625.316 3024.71,632.508 3028.18,639.986C3035.37,655.462 3039.72,671.834 3041.16,688.844C3050.6,800.721 3057.46,938.201 3062.3,1090.4C3069.64,1321.2 3071.77,1552.18 3072.4,1783.08C3073.49,2182.61 3068.43,2582.26 3060.16,2981.69C3058.22,3075.19 2983.91,3150.88 2890.47,3154.8C2765.86,3160.03 2615.06,3162.05 2456.25,3162.05M1666.74,628.46C1642.36,628.46 1617.97,628.668 1593.6,629.232C1580.51,629.534 1529.61,629.275 1506.44,634.96C1471.45,643.547 1441.55,668.665 1426.99,701.609C1420.99,715.192 1417.64,729.527 1417,744.37C1402.02,1095.09 1354.78,2261.84 1369.77,2693.28C1371.96,2756.34 1421.67,2807.33 1484.66,2811.02C1745.32,2826.28 2006.38,2837.46 2267.48,2840.71C2441.39,2842.87 2616.14,2843.1 2789.64,2829.2C2858.14,2823.72 2911.9,2768.32 2915.59,2699.7C2934.87,2341.89 2990.22,1255.48 2975.85,828.876C2974.92,801.553 2965.88,776.242 2950.99,755.336C2940.92,741.192 2931.41,733.169 2931.15,733.129C2915.16,718.783 2895.74,708.297 2874.93,702.942C2857.95,698.574 2831.72,697.245 2815.97,695.853C2800.48,694.484 2815.79,695.834 2804.55,694.846C2688.93,684.683 2523.26,670.88 2345.28,658.494C2324.03,657.015 2355.61,659.203 2333.83,657.7C2103.75,641.816 1854.48,628.46 1666.74,628.46" style="fill:url(#_Linear1);"/>
                </g>
                <path d="M1417,744.37C1402.02,1095.09 1354.78,2261.84 1369.77,2693.28C1371.96,2756.34 1421.67,2807.33 1484.66,2811.02C1744.01,2826.2 2409.23,2859.66 2789.64,2829.2C2858.14,2823.72 2911.9,2768.32 2915.59,2699.7C2934.87,2341.89 2990.22,1255.48 2975.85,828.876C2973.55,760.821 2920.83,705.242 2853.01,699.152C2572.43,673.96 1851.81,614.02 1528.55,631.657C1467.86,634.968 1419.6,683.653 1417,744.37Z" style="fill:rgb(125,151,244);fill-rule:nonzero;"/>
                <g transform="matrix(0.880707,-0.0155291,0.0162278,0.920331,231.012,171.964)">
                    <path d="M1417,744.37C1402.02,1095.09 1354.78,2261.84 1369.77,2693.28C1371.96,2756.34 1421.67,2807.33 1484.66,2811.02C1744.01,2826.2 2409.23,2859.66 2789.64,2829.2C2858.14,2823.72 2911.9,2768.32 2915.59,2699.7C2934.87,2341.89 2990.22,1255.48 2975.85,828.876C2973.55,760.821 2920.83,705.242 2853.01,699.152C2572.43,673.96 1851.81,614.02 1528.55,631.657C1467.86,634.968 1419.6,683.653 1417,744.37Z" style="fill:rgb(161,178,240);fill-rule:nonzero;"/>
                </g>
                <path d="M1983.39,554.322C1983.39,567.462 1993.63,578.299 2006.75,578.986C2071.53,582.378 2254.02,591.978 2335.57,596.709C2351.65,597.643 2364.28,583.188 2361.23,567.372L2360.7,564.673C2358.62,553.881 2349.67,545.758 2338.73,544.755C2283.6,539.704 2117.25,525.697 2007.04,529.631C1993.8,530.104 1983.39,541.074 1983.39,554.322Z" style="fill:url(#_Linear2);"/>
            </g>
        </g>
    </g>
    <defs>
        <linearGradient id="_Linear1" x1="0" y1="0" x2="1" y2="0" gradientUnits="userSpaceOnUse" gradientTransform="matrix(1799.91,0,0,1799.91,1272.58,1818.18)"><stop offset="0" style="stop-color:rgb(8,0,93);stop-opacity:1"/><stop offset="1" style="stop-color:rgb(26,14,144);stop-opacity:1"/></linearGradient>
        <linearGradient id="_Linear2" x1="0" y1="0" x2="1" y2="0" gradientUnits="userSpaceOnUse" gradientTransform="matrix(378.295,0,0,378.295,1983.39,562.848)"><stop offset="0" style="stop-color:rgb(79,82,255);stop-opacity:1"/><stop offset="1" style="stop-color:rgb(63,66,226);stop-opacity:1"/></linearGradient>
    </defs>
</svg>
