<?xml version="1.0" encoding="UTF-8" standalone="no"?>
<!DOCTYPE svg PUBLIC "-//W3C//DTD SVG 1.1//EN" "http://www.w3.org/Graphics/SVG/1.1/DTD/svg11.dtd">
<svg width="100%" height="100%" viewBox="0 0 2003 1441" version="1.1" xmlns="http://www.w3.org/2000/svg" xmlns:xlink="http://www.w3.org/1999/xlink" xml:space="preserve" xmlns:serif="http://www.serif.com/" style="fill-rule:evenodd;clip-rule:evenodd;stroke-linejoin:round;stroke-miterlimit:2;">
    <g transform="matrix(1,0,0,1,-283.475,-1.08337)">
        <g transform="matrix(4.16667,0,0,4.16667,0,0)">
            <rect x="68.034" y="0.26" width="480.591" height="345.827" style="fill:rgb(196,176,133);"/>
            <g transform="matrix(0.24,0,0,0.24,292.921,50.9872)">
                <g transform="matrix(0.79445,-0.607329,0.607329,0.79445,23.7622,262.381)">
                    <text x="399.504px" y="96.086px" style="font-family:'ArialNarrow', 'Arial', sans-serif;font-stretch:condensed;font-size:37.5px;fill:rgb(90,69,57);">B</text>
                </g>
                <g transform="matrix(0.865316,-0.501227,0.501227,0.865316,14.159,219.984)">
                    <text x="416.415px" y="83.646px" style="font-family:'ArialNarrow', 'Arial', sans-serif;font-stretch:condensed;font-size:37.5px;fill:rgb(90,69,57);">I</text>
                </g>
                <g transform="matrix(0.923034,-0.384717,0.384717,0.923034,2.33398,169.206)">
                    <text x="424.06px" y="78.77px" style="font-family:'ArialNarrow', 'Arial', sans-serif;font-stretch:condensed;font-size:37.5px;fill:rgb(90,69,57);">E</text>
                </g>
                <g transform="matrix(0.97739,-0.211447,0.211447,0.97739,-4.88705,95.4125)">
                    <text x="443.692px" y="70.557px" style="font-family:'ArialNarrow', 'Arial', sans-serif;font-stretch:condensed;font-size:37.5px;fill:rgb(90,69,57);">N</text>
                </g>
                <g transform="matrix(0.99963,-0.0272163,0.0272163,0.99963,-1.6201,12.7109)">
                    <text x="466.137px" y="65.871px" style="font-family:'ArialNarrow', 'Arial', sans-serif;font-stretch:condensed;font-size:37.5px;fill:rgb(90,69,57);">V</text>
                </g>
                <g transform="matrix(0.988498,0.151237,-0.151237,0.988498,15.4871,-72.9573)">
                    <text x="487.374px" y="65.335px" style="font-family:'ArialNarrow', 'Arial', sans-serif;font-stretch:condensed;font-size:37.5px;fill:rgb(90,69,57);">E</text>
                </g>
                <g transform="matrix(0.945776,0.32482,-0.32482,0.945776,49.8154,-161.409)">
                    <text x="508.355px" y="68.501px" style="font-family:'ArialNarrow', 'Arial', sans-serif;font-stretch:condensed;font-size:37.5px;fill:rgb(90,69,57);">N</text>
                </g>
                <g transform="matrix(0.891877,0.452278,-0.452278,0.891877,91.8185,-231.321)">
                    <text x="529.716px" y="76.378px" style="font-family:'ArialNarrow', 'Arial', sans-serif;font-stretch:condensed;font-size:37.5px;fill:rgb(90,69,57);">I</text>
                </g>
                <g transform="matrix(0.820382,0.571816,-0.571816,0.820382,142.43,-293.28)">
                    <text x="538.045px" y="80.074px" style="font-family:'ArialNarrow', 'Arial', sans-serif;font-stretch:condensed;font-size:37.5px;fill:rgb(90,69,57);">D</text>
                </g>
                <g transform="matrix(0.684482,0.72903,-0.72903,0.684482,243.684,-376.645)">
                    <text x="556.976px" y="93.203px" style="font-family:'ArialNarrow', 'Arial', sans-serif;font-stretch:condensed;font-size:37.5px;fill:rgb(90,69,57);">O</text>
                </g>
                <g transform="matrix(0.521351,0.853342,-0.853342,0.521351,369.74,-436.27)">
                    <text x="573.764px" y="111.454px" style="font-family:'ArialNarrow', 'Arial', sans-serif;font-stretch:condensed;font-size:37.5px;fill:rgb(90,69,57);">S</text>
                </g>
            </g>
            <g transform="matrix(-0.24,2.93915e-17,-2.93915e-17,-0.24,523.243,139.61)">
                <g transform="matrix(0.79445,-0.607329,0.607329,0.79445,23.7622,262.381)">
                    <text x="399.504px" y="96.086px" style="font-family:'ArialNarrow', 'Arial', sans-serif;font-stretch:condensed;font-size:37.5px;fill:rgb(90,69,57);">B</text>
                </g>
                <g transform="matrix(0.865316,-0.501227,0.501227,0.865316,14.159,219.984)">
                    <text x="416.415px" y="83.646px" style="font-family:'ArialNarrow', 'Arial', sans-serif;font-stretch:condensed;font-size:37.5px;fill:rgb(90,69,57);">I</text>
                </g>
                <g transform="matrix(0.923034,-0.384717,0.384717,0.923034,2.33398,169.206)">
                    <text x="424.06px" y="78.77px" style="font-family:'ArialNarrow', 'Arial', sans-serif;font-stretch:condensed;font-size:37.5px;fill:rgb(90,69,57);">E</text>
                </g>
                <g transform="matrix(0.97739,-0.211447,0.211447,0.97739,-4.88705,95.4125)">
                    <text x="443.692px" y="70.557px" style="font-family:'ArialNarrow', 'Arial', sans-serif;font-stretch:condensed;font-size:37.5px;fill:rgb(90,69,57);">N</text>
                </g>
                <g transform="matrix(0.99963,-0.0272163,0.0272163,0.99963,-1.6201,12.7109)">
                    <text x="466.137px" y="65.871px" style="font-family:'ArialNarrow', 'Arial', sans-serif;font-stretch:condensed;font-size:37.5px;fill:rgb(90,69,57);">V</text>
                </g>
                <g transform="matrix(0.988498,0.151237,-0.151237,0.988498,15.4871,-72.9573)">
                    <text x="487.374px" y="65.335px" style="font-family:'ArialNarrow', 'Arial', sans-serif;font-stretch:condensed;font-size:37.5px;fill:rgb(90,69,57);">E</text>
                </g>
                <g transform="matrix(0.945776,0.32482,-0.32482,0.945776,49.8154,-161.409)">
                    <text x="508.355px" y="68.501px" style="font-family:'ArialNarrow', 'Arial', sans-serif;font-stretch:condensed;font-size:37.5px;fill:rgb(90,69,57);">N</text>
                </g>
                <g transform="matrix(0.891877,0.452278,-0.452278,0.891877,91.8185,-231.321)">
                    <text x="529.716px" y="76.378px" style="font-family:'ArialNarrow', 'Arial', sans-serif;font-stretch:condensed;font-size:37.5px;fill:rgb(90,69,57);">I</text>
                </g>
                <g transform="matrix(0.820382,0.571816,-0.571816,0.820382,142.43,-293.28)">
                    <text x="538.045px" y="80.074px" style="font-family:'ArialNarrow', 'Arial', sans-serif;font-stretch:condensed;font-size:37.5px;fill:rgb(90,69,57);">D</text>
                </g>
                <g transform="matrix(0.684482,0.72903,-0.72903,0.684482,243.684,-376.645)">
                    <text x="556.976px" y="93.203px" style="font-family:'ArialNarrow', 'Arial', sans-serif;font-stretch:condensed;font-size:37.5px;fill:rgb(90,69,57);">O</text>
                </g>
                <g transform="matrix(0.521351,0.853342,-0.853342,0.521351,369.74,-436.27)">
                    <text x="573.764px" y="111.454px" style="font-family:'ArialNarrow', 'Arial', sans-serif;font-stretch:condensed;font-size:37.5px;fill:rgb(90,69,57);">S</text>
                </g>
            </g>
            <clipPath id="_clip1">
                <rect x="68.034" y="318.476" width="480.591" height="27.611"/>
            </clipPath>
            <g clip-path="url(#_clip1)">
                <path d="M684.763,318.476L78.606,318.476L78.606,-462.583L684.763,-462.583L684.763,318.476ZM60.23,-478.855L60.23,346.087L703.139,346.087L703.139,-478.855L60.23,-478.855Z" style="fill:rgb(228,220,200);fill-rule:nonzero;"/>
            </g>
            <g>
                <clipPath id="_clip2">
                    <rect x="68.034" y="318.476" width="480.591" height="27.611"/>
                </clipPath>
                <g clip-path="url(#_clip2)">
                    <clipPath id="_clip3">
                        <path d="M684.764,318.476L78.605,318.476L78.605,-462.583L684.764,-462.583L684.764,318.476ZM60.23,-478.855L60.23,346.087L703.139,346.087L703.139,-478.855L60.23,-478.855Z"/>
                    </clipPath>
                    <g clip-path="url(#_clip3)">
                        <path d="M245.2,356.956L210.848,346.087L267.248,295.733L290.793,316.582L245.2,356.956Z" style="fill:rgb(166,57,46);fill-rule:nonzero;"/>
                        <path d="M428.894,356.956L394.542,346.087L450.943,295.733L474.487,316.582L428.894,356.956Z" style="fill:rgb(166,57,46);fill-rule:nonzero;"/>
                        <path d="M153.726,356.956L119.373,346.087L175.774,295.733L199.318,316.582L153.726,356.956Z" style="fill:rgb(46,67,111);fill-rule:nonzero;"/>
                        <path d="M97.182,347.363L142.776,306.989L140.76,304.713L95.167,345.087" style="fill:rgb(196,176,133);fill-rule:nonzero;"/>
                        <path d="M337.42,356.956L303.067,346.087L359.467,295.733L383.012,316.582L337.42,356.956Z" style="fill:rgb(46,67,111);fill-rule:nonzero;"/>
                        <path d="M281.569,347.363L327.162,306.989L325.146,304.713L279.553,345.087" style="fill:rgb(196,176,133);fill-rule:nonzero;"/>
                        <path d="M520.36,356.956L486.008,346.087L542.409,295.733L565.953,316.582L520.36,356.956Z" style="fill:rgb(46,67,111);fill-rule:nonzero;"/>
                        <path d="M464.51,347.363L510.102,306.989L508.087,304.713L462.495,345.087" style="fill:rgb(196,176,133);fill-rule:nonzero;"/>
                        <path d="M104.68,-0.865L81.135,-21.444L35.542,18.406L59.087,38.985L104.68,-0.865Z" style="fill:rgb(166,57,46);fill-rule:nonzero;"/>
                        <path d="M104.68,159.756L81.135,139.177L35.542,179.027L59.087,199.605L104.68,159.756Z" style="fill:rgb(166,57,46);fill-rule:nonzero;"/>
                        <path d="M104.68,79.803L81.135,59.224L35.542,99.074L59.087,119.652L104.68,79.803Z" style="fill:rgb(46,67,111);fill-rule:nonzero;"/>
                        <path d="M91.561,108.613L45.969,148.462L47.969,150.751L93.562,110.902" style="fill:rgb(196,176,133);fill-rule:nonzero;"/>
                        <path d="M104.68,239.701L81.135,219.122L35.542,258.971L59.087,279.551L104.68,239.701Z" style="fill:rgb(46,67,111);fill-rule:nonzero;"/>
                        <path d="M91.561,268.51L45.969,308.361L47.969,310.65L93.562,270.8" style="fill:rgb(196,176,133);fill-rule:nonzero;"/>
                        <path d="M104.68,240.062L81.135,219.483L35.542,259.333L59.087,279.912L104.68,240.062Z" style="fill:rgb(46,67,111);fill-rule:nonzero;"/>
                        <path d="M91.561,268.872L45.969,308.722L47.969,311.011L93.562,271.161" style="fill:rgb(196,176,133);fill-rule:nonzero;"/>
                        <path d="M59.604,356.956L36.06,336.106L81.652,295.733L105.197,316.582L59.604,356.956Z" style="fill:rgb(166,57,46);fill-rule:nonzero;"/>
                    </g>
                </g>
            </g>
            <clipPath id="_clip4">
                <rect x="68.034" y="0.26" width="480.591" height="27.611"/>
            </clipPath>
            <g clip-path="url(#_clip4)">
                <path d="M684.763,0.261L78.606,0.261L78.606,-769.461L684.763,-769.461L684.763,0.261ZM60.23,-785.733L60.23,27.871L703.139,27.871L703.139,-785.733L60.23,-785.733Z" style="fill:rgb(228,220,200);fill-rule:nonzero;"/>
            </g>
            <g>
                <clipPath id="_clip5">
                    <rect x="68.034" y="0.26" width="480.591" height="27.611"/>
                </clipPath>
                <g clip-path="url(#_clip5)">
                    <clipPath id="_clip6">
                        <path d="M684.764,0.26L78.605,0.26L78.605,-769.461L684.764,-769.461L684.764,0.26ZM60.23,-785.733L60.23,27.871L703.139,27.871L703.139,-785.733L60.23,-785.733Z"/>
                    </clipPath>
                    <g clip-path="url(#_clip6)">
                        <path d="M245.2,50.079L221.656,29.229L267.248,-11.145L301.478,0.261L245.2,50.079Z" style="fill:rgb(166,57,46);fill-rule:nonzero;"/>
                        <path d="M428.894,50.079L405.35,29.229L450.943,-11.145L485.172,0.261L428.894,50.079Z" style="fill:rgb(166,57,46);fill-rule:nonzero;"/>
                        <path d="M153.726,50.079L130.181,29.229L175.774,-11.145L210.003,0.261L153.726,50.079Z" style="fill:rgb(46,67,111);fill-rule:nonzero;"/>
                        <path d="M337.42,50.079L313.875,29.229L359.467,-11.145L393.697,0.261L337.42,50.079Z" style="fill:rgb(46,67,111);fill-rule:nonzero;"/>
                        <path d="M520.36,50.079L496.816,29.229L542.409,-11.145L565.953,9.705L520.36,50.079Z" style="fill:rgb(46,67,111);fill-rule:nonzero;"/>
                        <path d="M96.932,40.486L142.525,0.112L140.51,-2.164L94.916,38.209" style="fill:rgb(196,176,133);fill-rule:nonzero;"/>
                        <path d="M281.319,40.486L326.911,0.112L324.895,-2.164L279.303,38.209" style="fill:rgb(196,176,133);fill-rule:nonzero;"/>
                        <path d="M464.259,40.486L509.852,0.112L507.837,-2.164L462.244,38.209" style="fill:rgb(196,176,133);fill-rule:nonzero;"/>
                        <path d="M91.561,-38.367L45.969,1.483L47.969,3.772L93.562,-36.078" style="fill:rgb(196,176,133);fill-rule:nonzero;"/>
                        <path d="M91.561,-38.005L45.969,1.845L47.969,4.134L93.562,-35.716" style="fill:rgb(196,176,133);fill-rule:nonzero;"/>
                        <path d="M59.604,50.079L36.06,29.229L81.652,-11.145L115.882,0.261L59.604,50.079Z" style="fill:rgb(166,57,46);fill-rule:nonzero;"/>
                    </g>
                </g>
            </g>
            <path d="M325.819,297.858C325.979,297.686 326.089,297.465 326.121,297.221L371.929,296.277C371.933,296.308 371.938,296.339 371.945,296.369L325.819,297.858ZM374.448,296.288C374.451,296.267 374.453,296.246 374.455,296.225L375.974,296.193C375.976,296.208 375.978,296.224 375.98,296.239L374.448,296.288ZM377.727,296.182C377.727,296.174 377.728,296.165 377.728,296.157L379.021,296.13L379.021,296.141L377.727,296.182ZM379.021,296.094L377.728,296.067C377.728,296.059 377.727,296.05 377.727,296.042L379.021,296.084L379.021,296.094ZM375.974,296.031L374.455,296C374.453,295.979 374.451,295.957 374.448,295.936L375.98,295.986C375.978,296.001 375.976,296.016 375.974,296.031ZM371.929,295.948L326.13,295.002C326.123,294.768 326.045,294.551 325.918,294.371L371.945,295.856C371.938,295.886 371.933,295.917 371.929,295.948Z" style="fill:rgb(137,50,41);fill-rule:nonzero;"/>
            <path d="M350.874,296.275C342.625,296.219 334.378,296.249 326.13,296.131L326.13,296.093C334.378,295.976 342.625,296.005 350.874,295.95C357.889,295.996 364.905,295.982 371.92,296.049C371.919,296.07 371.919,296.091 371.919,296.112C371.919,296.133 371.919,296.154 371.92,296.175C364.905,296.242 357.889,296.228 350.874,296.275ZM374.459,296.147C374.46,296.136 374.46,296.124 374.46,296.112C374.46,296.101 374.46,296.089 374.459,296.077C374.963,296.084 375.467,296.091 375.971,296.098L375.971,296.126C375.467,296.134 374.963,296.141 374.459,296.147Z" style="fill:rgb(137,50,41);fill-rule:nonzero;"/>
            <path d="M324.976,298.225C324.342,298.225 323.821,297.706 323.821,297.071L323.821,296.854C323.972,296.646 324.06,296.389 324.06,296.112C324.06,295.835 323.972,295.579 323.821,295.371L323.821,295.037C323.821,294.401 324.342,293.882 324.976,293.882C325.364,293.882 325.708,294.076 325.918,294.371C326.045,294.551 326.123,294.768 326.13,295.002L326.13,297.071C326.13,297.122 326.127,297.172 326.121,297.221C326.089,297.465 325.979,297.686 325.819,297.858C325.608,298.084 325.308,298.225 324.976,298.225Z" style="fill:rgb(137,50,41);fill-rule:nonzero;"/>
            <path d="M322.79,297.383C322.087,297.383 321.518,296.814 321.518,296.112C321.518,295.411 322.087,294.842 322.79,294.842C323.214,294.842 323.59,295.05 323.821,295.371C323.972,295.579 324.06,295.835 324.06,296.112C324.06,296.389 323.972,296.646 323.821,296.854C323.59,297.175 323.214,297.383 322.79,297.383Z" style="fill:rgb(137,50,41);fill-rule:nonzero;"/>
            <path d="M379.9,296.991C379.424,296.991 379.036,296.613 379.021,296.141L379.021,296.084C379.036,295.612 379.424,295.233 379.9,295.233C380.385,295.233 380.779,295.627 380.779,296.112C380.779,296.598 380.385,296.991 379.9,296.991Z" style="fill:rgb(137,50,41);fill-rule:nonzero;"/>
            <path d="M376.849,296.991C376.407,296.991 376.041,296.665 375.98,296.239C375.978,296.224 375.976,296.208 375.974,296.193C375.972,296.171 375.971,296.149 375.971,296.126L375.971,296.098C375.971,296.076 375.972,296.053 375.974,296.031C375.976,296.016 375.978,296.001 375.98,295.986C376.041,295.56 376.407,295.233 376.849,295.233C377.312,295.233 377.691,295.589 377.727,296.042C377.727,296.05 377.728,296.059 377.728,296.067C377.729,296.082 377.729,296.097 377.729,296.112C377.729,296.127 377.729,296.142 377.728,296.157C377.728,296.165 377.727,296.174 377.727,296.182C377.691,296.635 377.312,296.991 376.849,296.991Z" style="fill:rgb(137,50,41);fill-rule:nonzero;"/>
            <path d="M373.189,297.383C372.575,297.383 372.063,296.948 371.945,296.369C371.938,296.339 371.933,296.308 371.929,296.277C371.925,296.243 371.922,296.209 371.92,296.175C371.919,296.154 371.919,296.133 371.919,296.112C371.919,296.091 371.919,296.07 371.92,296.049C371.922,296.015 371.925,295.981 371.929,295.948C371.933,295.917 371.938,295.886 371.945,295.856C372.063,295.277 372.575,294.842 373.189,294.842C373.831,294.842 374.362,295.318 374.448,295.936C374.451,295.957 374.453,295.979 374.455,296C374.457,296.025 374.459,296.051 374.459,296.077C374.46,296.089 374.46,296.101 374.46,296.112C374.46,296.124 374.46,296.136 374.459,296.147C374.459,296.173 374.457,296.199 374.455,296.225C374.453,296.246 374.451,296.267 374.448,296.288C374.362,296.907 373.831,297.383 373.189,297.383Z" style="fill:rgb(137,50,41);fill-rule:nonzero;"/>
            <path d="M292.075,297.736L246.048,296.252C246.054,296.222 246.06,296.191 246.064,296.16L291.863,297.106C291.87,297.34 291.947,297.557 292.075,297.736ZM243.545,296.171L242.014,296.122C242.016,296.107 242.018,296.092 242.019,296.077L243.538,296.108C243.54,296.129 243.542,296.15 243.545,296.171ZM240.267,296.066L238.972,296.024L238.972,296.014L240.265,296.04C240.266,296.049 240.266,296.057 240.267,296.066ZM238.972,295.977L238.972,295.967L240.267,295.925C240.266,295.934 240.266,295.942 240.265,295.951L238.972,295.977ZM242.019,295.915C242.018,295.899 242.016,295.884 242.014,295.869L243.545,295.82C243.542,295.841 243.54,295.862 243.538,295.883L242.019,295.915ZM246.064,295.831C246.06,295.8 246.054,295.769 246.048,295.739L292.174,294.25C292.014,294.421 291.905,294.642 291.872,294.886L246.064,295.831Z" style="fill:rgb(137,50,41);fill-rule:nonzero;"/>
            <path d="M267.12,296.158C260.104,296.111 253.088,296.125 246.073,296.058C246.074,296.038 246.074,296.017 246.074,295.996C246.074,295.974 246.074,295.953 246.073,295.932C253.088,295.865 260.104,295.879 267.12,295.833C275.367,295.889 283.615,295.859 291.862,295.976L291.862,296.015C283.615,296.132 275.367,296.102 267.12,296.158ZM243.533,296.03C243.03,296.024 242.526,296.017 242.023,296.01L242.023,295.981C242.526,295.974 243.03,295.967 243.533,295.961L243.533,296.03Z" style="fill:rgb(137,50,41);fill-rule:nonzero;"/>
            <path d="M293.017,298.225C292.629,298.225 292.285,298.032 292.075,297.736C291.947,297.557 291.87,297.34 291.863,297.106C291.863,297.094 291.862,297.083 291.862,297.071L291.862,295.037C291.862,294.986 291.866,294.935 291.872,294.886C291.905,294.642 292.014,294.421 292.174,294.25C292.385,294.024 292.685,293.882 293.017,293.882C293.652,293.882 294.172,294.401 294.172,295.037L294.172,295.254C294.021,295.463 293.933,295.719 293.933,295.996C293.933,296.272 294.021,296.528 294.172,296.737L294.172,297.071C294.172,297.706 293.652,298.225 293.017,298.225Z" style="fill:rgb(137,50,41);fill-rule:nonzero;"/>
            <path d="M295.204,297.266C294.779,297.266 294.402,297.057 294.172,296.737C294.021,296.528 293.933,296.272 293.933,295.996C293.933,295.719 294.021,295.463 294.172,295.254C294.402,294.933 294.779,294.725 295.204,294.725C295.905,294.725 296.474,295.294 296.474,295.996C296.474,296.697 295.905,297.266 295.204,297.266Z" style="fill:rgb(137,50,41);fill-rule:nonzero;"/>
            <path d="M238.093,296.875C237.607,296.875 237.214,296.481 237.214,295.996C237.214,295.51 237.607,295.116 238.093,295.116C238.569,295.116 238.957,295.495 238.972,295.967L238.972,296.024C238.957,296.496 238.569,296.875 238.093,296.875Z" style="fill:rgb(137,50,41);fill-rule:nonzero;"/>
            <path d="M241.143,296.875C240.681,296.875 240.303,296.518 240.267,296.066C240.266,296.057 240.266,296.049 240.265,296.04C240.264,296.026 240.264,296.011 240.264,295.996C240.264,295.981 240.264,295.966 240.265,295.951C240.266,295.942 240.266,295.934 240.267,295.925C240.303,295.473 240.681,295.116 241.143,295.116C241.586,295.116 241.952,295.443 242.014,295.869C242.016,295.884 242.018,295.899 242.019,295.915C242.021,295.937 242.022,295.959 242.023,295.981L242.023,296.01C242.022,296.032 242.021,296.055 242.019,296.077C242.018,296.092 242.016,296.107 242.014,296.122C241.952,296.548 241.586,296.875 241.143,296.875Z" style="fill:rgb(137,50,41);fill-rule:nonzero;"/>
            <path d="M244.804,297.266C244.161,297.266 243.631,296.79 243.545,296.171C243.542,296.15 243.54,296.129 243.538,296.108C243.536,296.082 243.534,296.056 243.533,296.03L243.533,295.961C243.534,295.935 243.536,295.909 243.538,295.883C243.54,295.862 243.542,295.841 243.545,295.82C243.631,295.201 244.161,294.725 244.804,294.725C245.417,294.725 245.93,295.16 246.048,295.739C246.054,295.769 246.06,295.8 246.064,295.831C246.068,295.864 246.071,295.898 246.073,295.932C246.074,295.953 246.074,295.974 246.074,295.996C246.074,296.017 246.074,296.038 246.073,296.058C246.071,296.093 246.068,296.127 246.064,296.16C246.06,296.191 246.054,296.222 246.048,296.252C245.93,296.831 245.417,297.266 244.804,297.266Z" style="fill:rgb(137,50,41);fill-rule:nonzero;"/>
            <path d="M308.8,302.104L308.009,297.903L304.479,300.315L306.892,296.785L302.69,295.996L306.892,295.205L304.479,291.675L308.009,294.088L308.8,289.887L309.589,294.088L313.119,291.675L310.707,295.205L314.908,295.996L310.706,296.785L313.119,300.315L309.589,297.903L308.8,302.104Z" style="fill:rgb(137,50,41);fill-rule:nonzero;"/>
            <path d="M228.904,183.713L350.34,183.713L350.34,183.227L228.904,183.227" style="fill:rgb(55,33,28);fill-rule:nonzero;"/>
            <path d="M114.688,206.892L350.34,206.892L350.34,206.406L114.688,206.406" style="fill:rgb(55,33,28);fill-rule:nonzero;"/>
            <path d="M114.688,230.072L350.34,230.072L350.34,229.586L114.688,229.586" style="fill:rgb(55,33,28);fill-rule:nonzero;"/>
            <path d="M114.688,253.251L350.34,253.251L350.34,252.765L114.688,252.765" style="fill:rgb(55,33,28);fill-rule:nonzero;"/>
            <path d="M409.24,110.075C419.982,110.126 425.301,112.06 430.677,114.009C436.053,115.961 441.487,117.927 452.284,117.974C452.422,117.974 452.559,117.975 452.694,117.975C463.223,117.977 468.605,116.085 473.93,114.207C479.256,112.331 484.525,110.47 494.997,110.468L495.405,110.468C506.148,110.52 511.468,112.454 516.844,114.403C522.222,116.354 527.656,118.321 538.456,118.368L538.458,117.861C527.715,117.809 522.395,115.875 517.018,113.927C511.641,111.975 506.207,110.008 495.407,109.962C495.27,109.961 495.133,109.961 494.997,109.961C484.469,109.959 479.087,111.851 473.761,113.729C468.436,115.604 463.167,117.466 452.694,117.468C452.559,117.468 452.424,117.468 452.287,117.467C441.545,117.416 436.226,115.482 430.85,113.533C425.474,111.581 420.04,109.615 409.242,109.568L409.24,110.075Z" style="fill:rgb(55,33,28);fill-rule:nonzero;"/>
            <path d="M409.199,119.062C419.941,119.113 425.259,121.047 430.636,122.996C436.011,124.948 441.446,126.914 452.244,126.961C452.38,126.962 452.517,126.962 452.651,126.962C463.18,126.965 468.563,125.072 473.889,123.194C479.215,121.318 484.484,119.457 494.956,119.454C495.091,119.454 495.227,119.455 495.364,119.456C506.107,119.507 511.427,121.441 516.804,123.39C522.18,125.341 527.615,127.308 538.414,127.355L538.417,126.848C527.673,126.796 522.354,124.863 516.977,122.913C511.6,120.962 506.165,118.996 495.366,118.949C495.229,118.948 495.092,118.948 494.956,118.948C484.428,118.945 479.046,120.838 473.72,122.716C468.394,124.591 463.124,126.453 452.651,126.455C452.517,126.455 452.382,126.455 452.246,126.454C441.504,126.403 436.185,124.469 430.809,122.52C425.433,120.568 419.999,118.602 409.201,118.555L409.199,119.062Z" style="fill:rgb(55,33,28);fill-rule:nonzero;"/>
            <path d="M409.158,128.048C419.9,128.1 425.218,130.034 430.595,131.983C435.971,133.935 441.405,135.901 452.203,135.948C452.34,135.949 452.475,135.949 452.611,135.949C463.14,135.951 468.522,134.059 473.847,132.181C479.174,130.306 484.443,128.444 494.915,128.442C495.05,128.442 495.186,128.442 495.322,128.443C506.067,128.494 511.385,130.428 516.763,132.377C522.138,134.329 527.574,136.294 538.373,136.341L538.376,135.835C527.632,135.784 522.313,133.849 516.935,131.9C511.559,129.949 506.125,127.983 495.325,127.936C495.187,127.935 495.051,127.935 494.915,127.935C484.387,127.932 479.004,129.825 473.679,131.703C468.353,133.579 463.084,135.44 452.611,135.442C452.476,135.442 452.341,135.442 452.205,135.441C441.463,135.389 436.145,133.455 430.768,131.507C425.392,129.555 419.958,127.589 409.16,127.542L409.158,128.048Z" style="fill:rgb(55,33,28);fill-rule:nonzero;"/>
            <g transform="matrix(1,0,0,1,0,9.6)">
                <path d="M409.158,128.048C419.9,128.1 425.218,130.034 430.595,131.983C435.971,133.935 441.405,135.901 452.203,135.948C452.34,135.949 452.475,135.949 452.611,135.949C463.14,135.951 468.522,134.059 473.847,132.181C479.174,130.306 484.443,128.444 494.915,128.442C495.05,128.442 495.186,128.442 495.322,128.443C506.067,128.494 511.385,130.428 516.763,132.377C522.138,134.329 527.574,136.294 538.373,136.341L538.376,135.835C527.632,135.784 522.313,133.849 516.935,131.9C511.559,129.949 506.125,127.983 495.325,127.936C495.187,127.935 495.051,127.935 494.915,127.935C484.387,127.932 479.004,129.825 473.679,131.703C468.353,133.579 463.084,135.44 452.611,135.442C452.476,135.442 452.341,135.442 452.205,135.441C441.463,135.389 436.145,133.455 430.768,131.507C425.392,129.555 419.958,127.589 409.16,127.542L409.158,128.048Z" style="fill:rgb(55,33,28);fill-rule:nonzero;"/>
            </g>
            <path d="M409.076,146.023C419.818,146.075 425.136,148.009 430.513,149.957C435.889,151.909 441.323,153.875 452.121,153.922C452.258,153.923 452.395,153.923 452.53,153.923C463.058,153.925 468.441,152.033 473.766,150.155C479.093,148.279 484.363,146.418 494.835,146.415C494.97,146.415 495.105,146.416 495.241,146.416C505.984,146.468 511.303,148.402 516.681,150.351C522.057,152.303 527.492,154.269 538.292,154.316L538.294,153.809C527.55,153.758 522.231,151.823 516.854,149.875C511.477,147.923 506.043,145.957 495.243,145.91C495.106,145.909 494.97,145.909 494.835,145.909C484.306,145.906 478.924,147.799 473.598,149.677C468.271,151.552 463.002,153.414 452.53,153.416C452.395,153.416 452.26,153.416 452.123,153.415C441.381,153.364 436.062,151.43 430.686,149.481C425.31,147.529 419.876,145.563 409.078,145.516L409.076,146.023Z" style="fill:rgb(55,33,28);fill-rule:nonzero;"/>
            <path d="M432.839,88.898L431.746,88.706C429.419,79.684 422.02,72.395 412.244,70.684C410.815,70.433 409.392,70.312 407.99,70.312L407.988,70.312C399.799,70.312 392.262,74.438 387.777,81.007L386.685,80.816C391.324,73.753 399.299,69.299 407.99,69.299C409.451,69.299 410.931,69.425 412.419,69.685C422.758,71.496 430.547,79.298 432.839,88.898Z" style="fill:rgb(90,69,57);fill-rule:nonzero;"/>
            <path d="M408.048,120.322C406.587,120.322 405.106,120.197 403.618,119.936C393.284,118.126 385.499,110.332 383.203,100.739L384.293,100.922C386.623,109.941 394.02,117.227 403.793,118.938C405.223,119.188 406.645,119.309 408.048,119.309L408.05,119.309C409.132,119.309 410.204,119.237 411.258,119.096C412.641,119.136 413.927,119.21 415.133,119.312C412.866,119.972 410.485,120.322 408.048,120.322ZM416.365,118.919C415.462,118.824 414.514,118.746 413.513,118.687C417.988,117.655 422.067,115.38 425.288,112.184C425.659,112.294 426.022,112.405 426.381,112.519C423.599,115.399 420.164,117.6 416.365,118.919ZM426.767,112.111C426.414,111.997 426.055,111.885 425.69,111.776C426.629,110.8 427.49,109.743 428.261,108.614L429.352,108.806C428.579,109.982 427.713,111.087 426.767,112.111Z" style="fill:rgb(90,69,57);fill-rule:nonzero;"/>
            <path d="M426.381,112.519C426.022,112.405 425.659,112.294 425.288,112.184C425.424,112.05 425.557,111.914 425.69,111.776C426.055,111.885 426.414,111.997 426.767,112.111C426.64,112.248 426.512,112.384 426.381,112.519Z" style="fill:rgb(55,33,28);fill-rule:nonzero;"/>
            <path d="M415.133,119.312C413.927,119.21 412.641,119.136 411.258,119.096C412.019,118.995 412.772,118.858 413.513,118.687C414.514,118.746 415.462,118.824 416.365,118.919C415.958,119.06 415.548,119.191 415.133,119.312Z" style="fill:rgb(55,33,28);fill-rule:nonzero;"/>
            <path d="M408.074,142.202C405.36,142.202 402.609,141.968 399.845,141.484C377.44,137.559 361.486,118.496 360.661,96.647C360.709,96.839 360.867,96.989 361.068,97.023L361.696,97.128C362.734,118.289 378.271,136.678 400.02,140.486C402.726,140.96 405.418,141.188 408.074,141.188C413.332,141.188 418.445,140.291 423.241,138.62C423.824,138.766 424.387,138.92 424.936,139.079C419.647,141.106 413.948,142.202 408.074,142.202ZM425.703,138.777C425.178,138.619 424.641,138.464 424.086,138.316C427.608,137.012 430.946,135.289 434.034,133.195C434.433,133.328 434.838,133.459 435.251,133.587C432.286,135.669 429.08,137.415 425.703,138.777ZM435.772,133.216C435.36,133.091 434.957,132.964 434.559,132.834C437.313,130.912 439.86,128.692 442.147,126.211C442.539,126.274 442.942,126.334 443.353,126.39C441.074,128.936 438.528,131.225 435.772,133.216ZM443.758,125.933C443.347,125.879 442.946,125.823 442.555,125.763C444.717,123.355 446.637,120.71 448.27,117.859C448.641,117.879 449.018,117.897 449.404,117.912C447.793,120.797 445.896,123.481 443.758,125.933ZM449.677,117.415C449.294,117.401 448.917,117.385 448.548,117.366C449.406,115.825 450.18,114.226 450.863,112.573L451.452,112.676C451.481,112.681 451.51,112.683 451.539,112.683C451.74,112.683 451.926,112.564 452.006,112.375C452.313,111.652 452.592,110.919 452.846,110.184C451.984,112.708 450.92,115.124 449.677,117.415Z" style="fill:rgb(90,69,57);fill-rule:nonzero;"/>
            <path d="M449.404,117.912C449.018,117.897 448.641,117.879 448.27,117.859C448.364,117.695 448.457,117.531 448.548,117.366C448.917,117.385 449.294,117.401 449.677,117.415C449.587,117.581 449.496,117.747 449.404,117.912Z" style="fill:rgb(55,33,28);fill-rule:nonzero;"/>
            <path d="M443.353,126.39C442.942,126.334 442.539,126.274 442.147,126.211C442.284,126.062 442.419,125.914 442.555,125.763C442.946,125.823 443.347,125.879 443.758,125.933C443.623,126.087 443.49,126.238 443.353,126.39Z" style="fill:rgb(55,33,28);fill-rule:nonzero;"/>
            <path d="M435.251,133.587C434.838,133.459 434.433,133.328 434.034,133.195C434.21,133.076 434.385,132.955 434.559,132.834C434.957,132.964 435.36,133.091 435.772,133.216C435.598,133.341 435.426,133.464 435.251,133.587Z" style="fill:rgb(55,33,28);fill-rule:nonzero;"/>
            <path d="M424.936,139.079C424.387,138.92 423.824,138.766 423.241,138.62C423.523,138.521 423.807,138.419 424.086,138.316C424.641,138.464 425.178,138.619 425.703,138.777C425.448,138.88 425.193,138.98 424.936,139.079Z" style="fill:rgb(55,33,28);fill-rule:nonzero;"/>
            <path d="M451.842,109.988C452.008,109.509 452.165,109.028 452.315,108.54C452.168,109.024 452.011,109.507 451.842,109.988ZM453.24,108.979C455.218,102.568 455.395,96.199 455.397,94.031C455.397,93.763 455.394,93.559 455.391,93.428C455.404,93.87 455.41,94.311 455.41,94.755C455.41,97.469 455.176,100.22 454.692,102.984C454.332,105.039 453.845,107.039 453.24,108.979ZM361.657,96.094L361.643,96.092C361.637,95.864 361.631,95.545 361.631,95.148C361.631,94.703 361.638,94.159 361.66,93.533C361.647,93.978 361.64,94.423 361.64,94.866C361.64,95.276 361.646,95.686 361.657,96.094ZM360.643,93.639C360.691,91.777 360.85,89.899 361.125,88.014C360.818,90.216 360.691,92.162 360.643,93.639ZM455.385,93.228C455.365,93 455.196,92.813 454.968,92.773L454.349,92.665C453.385,71.433 437.825,52.953 416.018,49.135C413.312,48.661 410.619,48.432 407.964,48.432C389.218,48.432 372.288,59.842 365.174,77.048L364.557,76.94C364.527,76.935 364.498,76.932 364.469,76.932C364.269,76.932 364.084,77.051 364.004,77.24C364,77.249 363.996,77.257 363.993,77.266C371.113,59.345 388.586,47.419 407.964,47.419C410.677,47.419 413.428,47.653 416.193,48.137C438.685,52.077 454.675,71.272 455.385,93.228ZM362.137,88.098C362.569,85.021 363.358,81.449 364.78,78.008L364.789,78.01C363.707,80.805 362.88,83.747 362.344,86.812C362.268,87.241 362.199,87.67 362.137,88.098Z" style="fill:rgb(90,69,57);fill-rule:nonzero;"/>
            <path d="M451.539,112.683C451.51,112.683 451.481,112.681 451.452,112.676L450.863,112.573L429.352,108.806L428.261,108.614L427.206,108.43C426.931,108.381 426.746,108.119 426.795,107.843L430.106,88.934C430.149,88.687 430.363,88.514 430.605,88.514C430.634,88.514 430.663,88.517 430.693,88.522L431.746,88.706L432.839,88.898L454.349,92.665L454.968,92.773C455.196,92.813 455.365,93 455.385,93.228C455.386,93.237 455.387,93.246 455.387,93.255C455.387,93.258 455.389,93.317 455.391,93.428C455.394,93.559 455.397,93.763 455.397,94.031C455.395,96.199 455.218,102.568 453.24,108.979C453.116,109.381 452.985,109.783 452.846,110.184C452.592,110.919 452.313,111.652 452.006,112.375C451.926,112.564 451.74,112.683 451.539,112.683ZM451.54,112.177L451.627,111.677L451.54,112.177ZM431.017,89.608L427.88,107.519L451.228,111.607C451.448,111.072 451.652,110.531 451.842,109.988C452.011,109.507 452.168,109.024 452.315,108.54C454.201,102.341 454.386,96.124 454.384,94.031C454.384,93.905 454.383,93.795 454.382,93.7L431.017,89.608Z" style="fill:rgb(90,69,57);fill-rule:nonzero;"/>
            <path d="M385.345,101.091C385.317,101.091 385.289,101.089 385.26,101.084L384.293,100.922L383.203,100.739L361.696,97.128L361.068,97.023C360.867,96.989 360.709,96.839 360.661,96.647C360.653,96.616 360.648,96.584 360.646,96.551C360.646,96.543 360.617,96.034 360.617,95.148C360.618,94.726 360.624,94.219 360.643,93.639C360.691,92.162 360.818,90.216 361.125,88.014C361.578,84.758 362.426,80.945 363.993,77.266C363.996,77.257 364,77.249 364.004,77.24C364.084,77.051 364.269,76.932 364.469,76.932C364.498,76.932 364.527,76.935 364.557,76.94L365.174,77.048L386.685,80.816L387.777,81.007L388.743,81.176C388.875,81.199 388.994,81.274 389.071,81.384C389.147,81.493 389.178,81.631 389.155,81.762L385.843,100.671C385.8,100.918 385.587,101.091 385.345,101.091ZM361.657,96.094L384.932,100.002L388.07,82.087L364.789,78.01L364.78,78.008C363.358,81.449 362.569,85.021 362.137,88.098C361.839,90.212 361.71,92.091 361.66,93.533C361.638,94.159 361.631,94.703 361.631,95.148C361.631,95.545 361.637,95.864 361.643,96.092L361.657,96.094Z" style="fill:rgb(90,69,57);fill-rule:nonzero;"/>
            <path d="M404.356,115.326C404.327,115.326 404.298,115.323 404.269,115.318C403.993,115.27 403.809,115.008 403.857,114.732L404.388,111.697L404.74,111.569L405.35,112.08L404.855,114.906C404.812,115.153 404.598,115.326 404.356,115.326ZM405.552,110.927L405.167,110.604C405.106,110.553 405.037,110.519 404.966,110.501L404.963,110.501C404.961,110.5 404.959,110.5 404.958,110.499C404.92,110.49 404.881,110.486 404.841,110.486C404.784,110.486 404.725,110.495 404.668,110.516L404.59,110.545L404.976,108.342L405.328,108.213L405.938,108.724L405.552,110.927ZM406.14,107.572L405.77,107.263C405.731,107.227 405.687,107.198 405.64,107.177C405.639,107.176 405.638,107.176 405.636,107.175C405.635,107.174 405.633,107.174 405.632,107.173C405.629,107.172 405.627,107.171 405.624,107.17C405.587,107.154 405.549,107.143 405.51,107.137C405.508,107.137 405.506,107.136 405.504,107.136L405.502,107.136C405.499,107.135 405.496,107.135 405.493,107.134C405.472,107.132 405.45,107.13 405.428,107.13C405.38,107.13 405.33,107.137 405.282,107.152L405.281,107.152C405.277,107.153 405.273,107.155 405.269,107.156L405.268,107.156C405.264,107.158 405.259,107.159 405.254,107.161L405.177,107.189L406.289,100.843L406.65,100.664L407.241,101.28L406.14,107.572ZM407.458,100.043L407.124,99.695C407.026,99.593 406.893,99.54 406.758,99.54C406.682,99.54 406.605,99.557 406.534,99.592L406.505,99.606L407.22,95.528L407.769,95.327L408.218,95.703L407.458,100.043ZM407.971,94.174L407.522,93.798L408.236,89.72L408.259,89.743C408.356,89.845 408.489,89.898 408.624,89.898C408.7,89.898 408.777,89.881 408.848,89.846L409.281,89.632L408.521,93.973L407.971,94.174ZM408.732,88.773L408.453,88.483L409.564,82.138L409.625,82.189C409.629,82.192 409.632,82.195 409.636,82.197C409.637,82.199 409.639,82.2 409.641,82.201C409.641,82.202 409.642,82.202 409.643,82.203C409.734,82.274 409.844,82.309 409.952,82.309C410.017,82.309 410.08,82.297 410.14,82.273L410.599,82.105L409.498,88.395L408.732,88.773ZM410.054,81.226L409.766,80.985L410.181,78.615L410.245,78.668C410.329,78.739 410.429,78.777 410.531,78.785L410.532,78.785C410.535,78.785 410.538,78.785 410.54,78.786L410.597,78.786C410.61,78.785 410.624,78.784 410.637,78.782L410.64,78.782C410.643,78.781 410.646,78.781 410.648,78.78C410.65,78.78 410.653,78.78 410.655,78.779L410.659,78.779C410.692,78.773 410.725,78.764 410.756,78.751L411.216,78.583L410.801,80.953L410.054,81.226ZM410.671,77.703L410.383,77.462L410.885,74.594C410.928,74.349 411.142,74.175 411.384,74.175C411.413,74.175 411.442,74.178 411.472,74.183C411.748,74.231 411.932,74.494 411.884,74.769L411.418,77.431L410.671,77.703Z" style="fill:rgb(90,69,57);fill-rule:nonzero;"/>
            <path d="M388.733,102.248C388.526,102.248 388.332,102.121 388.257,101.915C388.161,101.652 388.296,101.361 388.559,101.265L391.228,100.29L391.635,100.631L391.525,101.26L388.907,102.217C388.849,102.238 388.791,102.248 388.733,102.248ZM392.625,100.859L392.685,100.518C392.704,100.409 392.686,100.302 392.642,100.211C392.641,100.209 392.641,100.208 392.64,100.207C392.639,100.205 392.638,100.203 392.637,100.201C392.635,100.198 392.634,100.195 392.632,100.192L392.632,100.191C392.613,100.156 392.59,100.123 392.563,100.092C392.562,100.092 392.562,100.091 392.561,100.091C392.559,100.089 392.557,100.086 392.555,100.084C392.554,100.083 392.553,100.081 392.551,100.08C392.55,100.079 392.549,100.077 392.547,100.076C392.545,100.074 392.543,100.071 392.54,100.069C392.54,100.068 392.54,100.068 392.539,100.068C392.528,100.057 392.517,100.047 392.505,100.037L392.328,99.889L394.304,99.167L394.658,99.463L394.536,100.161L392.625,100.859ZM395.635,99.76L395.704,99.367C395.713,99.324 395.716,99.28 395.714,99.237L395.714,99.234C395.713,99.232 395.713,99.229 395.713,99.226L395.713,99.22C395.712,99.219 395.712,99.217 395.712,99.216C395.712,99.213 395.712,99.21 395.711,99.207L395.711,99.205C395.707,99.169 395.699,99.134 395.687,99.1L395.687,99.098C395.686,99.095 395.685,99.092 395.684,99.089C395.683,99.087 395.682,99.086 395.682,99.084C395.681,99.082 395.68,99.08 395.679,99.078C395.678,99.075 395.677,99.073 395.676,99.07C395.676,99.069 395.676,99.068 395.675,99.067C395.674,99.064 395.672,99.06 395.671,99.057L395.67,99.056C395.659,99.031 395.645,99.006 395.63,98.982L395.629,98.982C395.627,98.979 395.626,98.976 395.624,98.973C395.623,98.973 395.622,98.972 395.622,98.971C395.62,98.969 395.619,98.967 395.618,98.965C395.616,98.963 395.615,98.961 395.614,98.96C395.613,98.958 395.612,98.957 395.611,98.956C395.609,98.954 395.607,98.951 395.605,98.948C395.58,98.917 395.552,98.889 395.521,98.864L395.403,98.766L401.593,96.504L402.021,96.79L401.815,97.502L395.635,99.76ZM402.995,97.071L403.098,96.716C403.159,96.504 403.076,96.276 402.892,96.153L402.772,96.073L406.872,94.576L407.769,95.327L407.22,95.528L402.995,97.071ZM408.868,94.925L407.971,94.174L408.521,93.973L412.325,92.584L412.284,92.723C412.223,92.934 412.306,93.163 412.49,93.285L412.797,93.49L408.868,94.925ZM413.977,93.059L413.361,92.648L413.504,92.153L419.91,89.813L419.857,90.116C419.853,90.136 419.85,90.157 419.849,90.178L419.849,90.179C419.848,90.182 419.848,90.185 419.848,90.189L419.848,90.2C419.845,90.27 419.858,90.338 419.883,90.4C419.883,90.401 419.884,90.402 419.884,90.404C419.885,90.406 419.886,90.408 419.887,90.411C419.888,90.413 419.889,90.416 419.89,90.419C419.891,90.419 419.891,90.42 419.892,90.421C419.906,90.454 419.924,90.485 419.946,90.514C419.946,90.515 419.947,90.515 419.947,90.516C419.949,90.518 419.95,90.52 419.952,90.522C419.953,90.524 419.955,90.526 419.956,90.528C419.957,90.529 419.958,90.53 419.958,90.531C419.983,90.561 420.011,90.589 420.042,90.613L420.233,90.774L413.977,93.059ZM421.333,90.372L420.904,90.013L421.009,89.411L423.301,88.574L423.251,88.862C423.245,88.891 423.242,88.921 423.241,88.95L423.241,88.984C423.242,89.008 423.245,89.032 423.25,89.055C423.25,89.059 423.251,89.063 423.252,89.066C423.252,89.068 423.252,89.069 423.253,89.07C423.253,89.073 423.254,89.075 423.254,89.077C423.255,89.08 423.256,89.083 423.256,89.086C423.257,89.087 423.257,89.088 423.257,89.088C423.282,89.188 423.338,89.28 423.422,89.351L423.637,89.53L421.333,90.372ZM424.736,89.129L424.297,88.761L424.4,88.172L426.834,87.283C426.891,87.263 426.95,87.253 427.008,87.253C427.214,87.253 427.408,87.38 427.484,87.585C427.58,87.849 427.444,88.139 427.181,88.235L424.736,89.129Z" style="fill:rgb(90,69,57);fill-rule:nonzero;"/>
            <path d="M423.492,108.335C423.378,108.335 423.262,108.296 423.168,108.217L420.834,106.263L420.922,105.759L421.541,105.533L423.818,107.44C424.033,107.619 424.061,107.939 423.882,108.154C423.781,108.273 423.637,108.335 423.492,108.335ZM419.936,105.512L418.204,104.062L418.285,103.601L418.945,103.36L420.644,104.782L420.313,104.903C420.272,104.917 420.233,104.936 420.197,104.959C420.197,104.96 420.197,104.96 420.196,104.96C420.193,104.962 420.19,104.964 420.187,104.966C420.186,104.966 420.186,104.967 420.186,104.967C420.183,104.969 420.18,104.971 420.177,104.973C420.176,104.973 420.176,104.974 420.176,104.974C420.169,104.979 420.163,104.984 420.156,104.989C420.156,104.989 420.155,104.989 420.155,104.99C420.152,104.992 420.15,104.994 420.147,104.996C420.147,104.997 420.146,104.997 420.145,104.998C420.143,105 420.14,105.002 420.137,105.005C420.054,105.078 419.995,105.179 419.974,105.296L419.936,105.512ZM417.307,103.311L412.286,99.108L412.319,98.594L413.038,98.416L418.048,102.609L417.662,102.75C417.482,102.816 417.361,102.974 417.335,103.152L417.307,103.311ZM411.323,98.302L408.218,95.703L407.769,95.327L406.872,94.576L403.525,91.774L403.665,91.74C403.879,91.687 404.035,91.501 404.049,91.281L404.073,90.911L407.522,93.798L407.971,94.174L408.868,94.925L412.075,97.61L411.716,97.698C411.503,97.752 411.346,97.938 411.332,98.158L411.323,98.302ZM402.562,90.968L397.564,86.784L397.773,86.707C397.782,86.704 397.791,86.701 397.8,86.697C397.802,86.696 397.803,86.695 397.805,86.695C397.807,86.694 397.808,86.693 397.81,86.693C397.88,86.661 397.94,86.616 397.988,86.56C397.988,86.559 397.989,86.558 397.99,86.557C397.991,86.556 397.992,86.555 397.993,86.554C398.04,86.498 398.075,86.43 398.094,86.355C398.098,86.34 398.101,86.325 398.104,86.309L398.164,85.964L403.11,90.105L403.062,90.845L402.562,90.968ZM396.667,86.033L394.999,84.636L395.224,84.555C395.312,84.522 395.386,84.468 395.442,84.4C395.442,84.399 395.443,84.398 395.443,84.397C395.445,84.396 395.446,84.394 395.447,84.393C395.449,84.391 395.45,84.389 395.452,84.387C395.452,84.386 395.453,84.385 395.453,84.385C395.484,84.344 395.51,84.297 395.527,84.247C395.528,84.244 395.529,84.241 395.53,84.238C395.531,84.237 395.531,84.235 395.532,84.234C395.532,84.233 395.532,84.232 395.533,84.23C395.541,84.205 395.547,84.179 395.551,84.152L395.608,83.825L397.267,85.213L397.155,85.854L396.667,86.033ZM394.102,83.885L391.922,82.061C391.708,81.881 391.679,81.562 391.859,81.347C391.96,81.227 392.103,81.165 392.248,81.165C392.363,81.165 392.478,81.204 392.573,81.283L394.711,83.074L394.601,83.703L394.102,83.885Z" style="fill:rgb(90,69,57);fill-rule:nonzero;"/>
            <path d="M410.559,78.786L410.558,78.786L410.559,78.786ZM410.55,78.786L410.544,78.786L410.55,78.786ZM410.54,78.786C410.538,78.785 410.535,78.785 410.532,78.785C410.535,78.785 410.538,78.785 410.54,78.786ZM410.531,78.785C410.429,78.777 410.329,78.739 410.245,78.668L410.181,78.615L407.671,76.514C407.456,76.334 407.427,76.015 407.607,75.8C407.707,75.68 407.851,75.619 407.996,75.619C408.111,75.619 408.226,75.657 408.321,75.737L410.383,77.462L410.671,77.703L410.396,77.804C410.133,77.9 409.998,78.19 410.094,78.453C410.164,78.646 410.339,78.77 410.531,78.785ZM410.637,78.782L410.64,78.782L410.637,78.782ZM410.648,78.78C410.65,78.78 410.653,78.78 410.655,78.779C410.653,78.78 410.65,78.78 410.648,78.78ZM410.659,78.779C410.687,78.773 410.716,78.766 410.744,78.756L410.756,78.751C410.725,78.764 410.692,78.773 410.659,78.779Z" style="fill:rgb(90,69,57);fill-rule:nonzero;"/>
            <path d="M410.597,78.786L410.54,78.786C410.538,78.785 410.535,78.785 410.532,78.785L410.531,78.785C410.339,78.77 410.164,78.646 410.094,78.453C409.998,78.19 410.133,77.9 410.396,77.804L410.671,77.703L411.418,77.431L413.549,76.652C413.607,76.631 413.666,76.621 413.723,76.621C413.93,76.621 414.124,76.748 414.199,76.954C414.295,77.217 414.16,77.508 413.897,77.604L411.216,78.583L410.756,78.751L410.744,78.756C410.716,78.766 410.687,78.773 410.659,78.779L410.655,78.779C410.653,78.78 410.65,78.78 410.648,78.78C410.646,78.781 410.643,78.781 410.64,78.782L410.637,78.782C410.624,78.784 410.61,78.785 410.597,78.786Z" style="fill:rgb(90,69,57);fill-rule:nonzero;"/>
            <path d="M409.952,82.309C409.844,82.309 409.734,82.274 409.643,82.203C409.731,82.271 409.84,82.309 409.953,82.309C410.011,82.309 410.069,82.299 410.127,82.278L410.14,82.273C410.08,82.297 410.017,82.309 409.952,82.309ZM409.641,82.201C409.639,82.2 409.637,82.199 409.636,82.197C409.637,82.199 409.639,82.2 409.641,82.201ZM409.625,82.189L409.564,82.138L407.053,80.036C406.839,79.856 406.811,79.536 406.99,79.322C407.09,79.202 407.234,79.14 407.379,79.14C407.493,79.14 407.609,79.179 407.704,79.259L409.766,80.985L410.054,81.226L409.779,81.326C409.516,81.422 409.381,81.713 409.477,81.976C409.508,82.062 409.56,82.134 409.625,82.189Z" style="fill:rgb(90,69,57);fill-rule:nonzero;"/>
            <path d="M409.953,82.309C409.84,82.309 409.731,82.271 409.643,82.203C409.642,82.202 409.641,82.202 409.641,82.201C409.639,82.2 409.637,82.199 409.636,82.197C409.632,82.195 409.629,82.192 409.625,82.189C409.56,82.134 409.508,82.062 409.477,81.976C409.381,81.713 409.516,81.422 409.779,81.326L410.054,81.226L410.801,80.953L412.932,80.174C412.989,80.153 413.048,80.143 413.106,80.143C413.313,80.143 413.507,80.271 413.582,80.477C413.678,80.739 413.543,81.03 413.28,81.126L410.599,82.105L410.14,82.273L410.127,82.278C410.069,82.299 410.011,82.309 409.953,82.309Z" style="fill:rgb(90,69,57);fill-rule:nonzero;"/>
            <path d="M401.687,112.651C401.481,112.651 401.286,112.524 401.211,112.318C401.115,112.055 401.25,111.764 401.513,111.668L404.59,110.545L404.668,110.516C404.725,110.495 404.784,110.486 404.841,110.486C404.881,110.486 404.92,110.49 404.958,110.499C404.92,110.49 404.881,110.486 404.842,110.486C404.697,110.486 404.553,110.547 404.453,110.667C404.273,110.882 404.302,111.201 404.516,111.381L404.74,111.569L404.388,111.697L401.861,112.62C401.804,112.641 401.745,112.651 401.687,112.651ZM404.966,110.501L404.963,110.501L404.966,110.501Z" style="fill:rgb(90,69,57);fill-rule:nonzero;"/>
            <path d="M407.414,113.654C407.299,113.654 407.184,113.615 407.089,113.536L405.35,112.08L404.74,111.569L404.516,111.381C404.302,111.201 404.273,110.882 404.453,110.667C404.553,110.547 404.697,110.486 404.842,110.486C404.881,110.486 404.92,110.49 404.958,110.499C404.959,110.5 404.961,110.5 404.963,110.501L404.966,110.501C405.037,110.519 405.106,110.553 405.167,110.604L405.552,110.927L407.74,112.759C407.955,112.939 407.983,113.258 407.803,113.473C407.703,113.592 407.559,113.654 407.414,113.654Z" style="fill:rgb(90,69,57);fill-rule:nonzero;"/>
            <path d="M402.275,109.296C402.068,109.296 401.874,109.168 401.799,108.962C401.703,108.7 401.838,108.409 402.101,108.313L405.177,107.189L405.254,107.161C405.259,107.159 405.264,107.158 405.268,107.156C405.182,107.185 405.103,107.237 405.04,107.312C404.86,107.526 404.889,107.846 405.103,108.025L405.328,108.213L404.976,108.342L402.449,109.265C402.392,109.286 402.333,109.296 402.275,109.296ZM405.77,107.263L405.753,107.249C405.718,107.219 405.68,107.195 405.64,107.177C405.687,107.198 405.731,107.227 405.77,107.263ZM405.636,107.175C405.635,107.174 405.633,107.174 405.632,107.173C405.633,107.174 405.635,107.174 405.636,107.175ZM405.269,107.156C405.273,107.155 405.277,107.153 405.281,107.152C405.277,107.153 405.273,107.155 405.269,107.156ZM405.282,107.152C405.33,107.137 405.38,107.13 405.428,107.13C405.45,107.13 405.472,107.132 405.493,107.134C405.472,107.132 405.45,107.13 405.429,107.13C405.379,107.13 405.329,107.138 405.282,107.152ZM405.51,107.137C405.508,107.137 405.506,107.136 405.504,107.136C405.506,107.136 405.508,107.137 405.51,107.137ZM405.502,107.136C405.499,107.135 405.496,107.135 405.493,107.134C405.496,107.135 405.499,107.135 405.502,107.136Z" style="fill:rgb(90,69,57);fill-rule:nonzero;"/>
            <path d="M408.002,110.298C407.888,110.298 407.772,110.26 407.677,110.18L405.938,108.724L405.328,108.213L405.103,108.025C404.889,107.846 404.86,107.526 405.04,107.312C405.103,107.237 405.182,107.185 405.268,107.156L405.269,107.156C405.273,107.155 405.277,107.153 405.281,107.152L405.282,107.152C405.329,107.138 405.379,107.13 405.429,107.13C405.45,107.13 405.472,107.132 405.493,107.134C405.496,107.135 405.499,107.135 405.502,107.136L405.504,107.136C405.506,107.136 405.508,107.137 405.51,107.137C405.549,107.143 405.587,107.154 405.624,107.17C405.627,107.171 405.629,107.172 405.632,107.173C405.633,107.174 405.635,107.174 405.636,107.175C405.638,107.176 405.639,107.176 405.64,107.177C405.68,107.195 405.718,107.219 405.753,107.249L405.77,107.263L406.14,107.572L408.328,109.403C408.543,109.583 408.571,109.902 408.391,110.117C408.291,110.237 408.147,110.298 408.002,110.298Z" style="fill:rgb(90,69,57);fill-rule:nonzero;"/>
            <path d="M419.895,109.198C419.866,109.198 419.836,109.195 419.807,109.19C419.531,109.142 419.347,108.879 419.395,108.603L419.936,105.512L419.974,105.296C419.995,105.179 420.054,105.078 420.137,105.005C419.986,105.139 419.924,105.357 419.997,105.558C420.073,105.764 420.267,105.891 420.473,105.891C420.531,105.891 420.59,105.881 420.647,105.86L420.922,105.759L420.834,106.263L420.393,108.778C420.35,109.024 420.136,109.198 419.895,109.198ZM420.137,105.005C420.14,105.002 420.143,105 420.145,104.998C420.143,105 420.14,105.002 420.137,105.005ZM420.147,104.996C420.15,104.994 420.152,104.992 420.155,104.99C420.152,104.992 420.15,104.994 420.147,104.996ZM420.156,104.989C420.163,104.984 420.169,104.979 420.176,104.974C420.169,104.979 420.163,104.984 420.156,104.989ZM420.177,104.973C420.18,104.971 420.183,104.969 420.186,104.967C420.183,104.969 420.18,104.971 420.177,104.973ZM420.187,104.966C420.19,104.964 420.193,104.962 420.196,104.96C420.193,104.962 420.19,104.964 420.187,104.966ZM420.197,104.959C420.233,104.936 420.272,104.917 420.313,104.903L420.3,104.908C420.263,104.922 420.228,104.939 420.197,104.959Z" style="fill:rgb(90,69,57);fill-rule:nonzero;"/>
            <path d="M420.473,105.891C420.267,105.891 420.073,105.764 419.997,105.558C419.924,105.357 419.986,105.139 420.137,105.005C420.14,105.002 420.143,105 420.145,104.998C420.146,104.997 420.147,104.997 420.147,104.996C420.15,104.994 420.152,104.992 420.155,104.99C420.155,104.989 420.156,104.989 420.156,104.989C420.163,104.984 420.169,104.979 420.176,104.974C420.176,104.974 420.176,104.973 420.177,104.973C420.18,104.971 420.183,104.969 420.186,104.967C420.186,104.967 420.186,104.966 420.187,104.966C420.19,104.964 420.193,104.962 420.196,104.96C420.197,104.96 420.197,104.96 420.197,104.959C420.228,104.939 420.263,104.922 420.3,104.908L420.313,104.903L420.644,104.782L423.453,103.756C423.51,103.735 423.569,103.725 423.627,103.725C423.833,103.725 424.027,103.853 424.102,104.059C424.199,104.321 424.063,104.612 423.8,104.708L421.541,105.533L420.922,105.759L420.647,105.86C420.59,105.881 420.531,105.891 420.473,105.891Z" style="fill:rgb(90,69,57);fill-rule:nonzero;"/>
            <path d="M417.258,107.039C417.229,107.039 417.2,107.037 417.17,107.031C416.895,106.984 416.71,106.721 416.759,106.445L417.307,103.311L417.335,103.152C417.323,103.233 417.331,103.318 417.361,103.4C417.436,103.605 417.63,103.733 417.837,103.733C417.894,103.733 417.953,103.723 418.01,103.702L418.285,103.601L418.204,104.062L417.757,106.62C417.714,106.866 417.5,107.039 417.258,107.039Z" style="fill:rgb(90,69,57);fill-rule:nonzero;"/>
            <path d="M417.837,103.733C417.63,103.733 417.436,103.605 417.361,103.4C417.331,103.318 417.323,103.233 417.335,103.152C417.361,102.974 417.482,102.816 417.662,102.75L418.048,102.609L420.816,101.598C420.873,101.577 420.932,101.567 420.99,101.567C421.197,101.567 421.391,101.694 421.466,101.9C421.562,102.163 421.427,102.453 421.164,102.55L418.945,103.36L418.285,103.601L418.01,103.702C417.953,103.723 417.894,103.733 417.837,103.733Z" style="fill:rgb(90,69,57);fill-rule:nonzero;"/>
            <path d="M395.442,84.4C395.442,84.399 395.443,84.398 395.443,84.397C395.443,84.398 395.442,84.399 395.442,84.4ZM395.447,84.393C395.449,84.391 395.45,84.389 395.452,84.387C395.45,84.389 395.449,84.391 395.447,84.393ZM395.453,84.385C395.485,84.343 395.51,84.296 395.527,84.247C395.51,84.297 395.484,84.344 395.453,84.385ZM395.527,84.247C395.528,84.244 395.529,84.241 395.53,84.238C395.529,84.241 395.528,84.244 395.527,84.247ZM395.532,84.234C395.532,84.233 395.532,84.232 395.533,84.23C395.532,84.232 395.532,84.233 395.532,84.234ZM395.551,84.152C395.563,84.072 395.555,83.987 395.525,83.905C395.451,83.699 395.256,83.572 395.05,83.572C394.992,83.572 394.933,83.582 394.875,83.603L394.601,83.703L394.711,83.074L395.129,80.684C395.173,80.438 395.386,80.265 395.628,80.265C395.657,80.265 395.686,80.268 395.716,80.273C395.992,80.321 396.176,80.584 396.127,80.859L395.608,83.825L395.551,84.152Z" style="fill:rgb(90,69,57);fill-rule:nonzero;"/>
            <path d="M391.896,85.737C391.689,85.737 391.495,85.609 391.42,85.404C391.324,85.141 391.459,84.851 391.722,84.754L394.102,83.885L394.601,83.703L394.875,83.603C394.933,83.582 394.992,83.572 395.05,83.572C395.256,83.572 395.451,83.699 395.525,83.905C395.555,83.987 395.563,84.072 395.551,84.152C395.547,84.179 395.541,84.205 395.533,84.23C395.532,84.232 395.532,84.233 395.532,84.234C395.531,84.235 395.531,84.237 395.53,84.238C395.529,84.241 395.528,84.244 395.527,84.247C395.51,84.296 395.485,84.343 395.453,84.385C395.453,84.385 395.452,84.386 395.452,84.387C395.45,84.389 395.449,84.391 395.447,84.393C395.446,84.394 395.445,84.396 395.443,84.397C395.443,84.398 395.442,84.399 395.442,84.4C395.386,84.468 395.312,84.522 395.224,84.555L394.999,84.636L392.07,85.706C392.013,85.727 391.954,85.737 391.896,85.737Z" style="fill:rgb(90,69,57);fill-rule:nonzero;"/>
            <path d="M397.773,86.707L397.777,86.706C397.785,86.703 397.793,86.7 397.8,86.697C397.791,86.701 397.782,86.704 397.773,86.707ZM397.805,86.695C397.807,86.694 397.808,86.693 397.81,86.693C397.808,86.693 397.807,86.694 397.805,86.695ZM397.988,86.56C397.988,86.559 397.989,86.558 397.99,86.557C397.989,86.558 397.988,86.559 397.988,86.56ZM397.993,86.554C398.041,86.496 398.076,86.428 398.094,86.355C398.075,86.43 398.04,86.498 397.993,86.554ZM398.104,86.309C398.117,86.227 398.11,86.14 398.079,86.056C398.004,85.85 397.81,85.723 397.603,85.723C397.545,85.723 397.487,85.733 397.429,85.754L397.155,85.854L397.267,85.213L397.683,82.836C397.726,82.59 397.94,82.416 398.181,82.416C398.211,82.416 398.24,82.419 398.27,82.424C398.546,82.472 398.73,82.735 398.681,83.011L398.164,85.964L398.104,86.309Z" style="fill:rgb(90,69,57);fill-rule:nonzero;"/>
            <path d="M394.45,87.889C394.243,87.889 394.049,87.761 393.974,87.556C393.878,87.293 394.013,87.002 394.276,86.906L396.667,86.033L397.155,85.854L397.429,85.754C397.487,85.733 397.545,85.723 397.603,85.723C397.81,85.723 398.004,85.85 398.079,86.056C398.11,86.14 398.117,86.227 398.104,86.309C398.101,86.325 398.098,86.34 398.094,86.355C398.076,86.428 398.041,86.496 397.993,86.554C397.992,86.555 397.991,86.556 397.99,86.557C397.989,86.558 397.988,86.559 397.988,86.56C397.94,86.616 397.88,86.661 397.81,86.693C397.808,86.693 397.807,86.694 397.805,86.695C397.803,86.695 397.802,86.696 397.8,86.697C397.793,86.7 397.785,86.703 397.777,86.706L397.773,86.707L397.564,86.784L394.624,87.858C394.567,87.879 394.508,87.889 394.45,87.889Z" style="fill:rgb(90,69,57);fill-rule:nonzero;"/>
            <path d="M420.042,90.613C420.011,90.589 419.983,90.561 419.958,90.531C419.979,90.556 420.003,90.581 420.029,90.603L420.042,90.613ZM419.956,90.528C419.955,90.526 419.953,90.524 419.952,90.522C419.953,90.524 419.955,90.526 419.956,90.528ZM419.947,90.516C419.947,90.515 419.946,90.515 419.946,90.514C419.946,90.515 419.947,90.515 419.947,90.516ZM419.892,90.421C419.891,90.42 419.891,90.419 419.89,90.419C419.891,90.419 419.891,90.42 419.892,90.421ZM419.887,90.411C419.886,90.408 419.885,90.406 419.884,90.404C419.885,90.406 419.886,90.408 419.887,90.411ZM419.883,90.4C419.858,90.338 419.845,90.27 419.848,90.2C419.846,90.268 419.857,90.336 419.883,90.4ZM419.848,90.196L419.848,90.189L419.848,90.196ZM419.849,90.179L419.849,90.178L419.849,90.179ZM419.857,90.116L419.91,89.813L420.434,86.82C420.477,86.574 420.691,86.401 420.932,86.401C420.961,86.401 420.991,86.403 421.021,86.409C421.296,86.457 421.481,86.719 421.433,86.995L421.009,89.411L420.904,90.013L420.68,89.825C420.585,89.746 420.469,89.707 420.355,89.707C420.21,89.707 420.066,89.769 419.966,89.889C419.909,89.957 419.873,90.035 419.857,90.116Z" style="fill:rgb(90,69,57);fill-rule:nonzero;"/>
            <path d="M422.928,92.876C422.813,92.876 422.698,92.837 422.603,92.757L420.233,90.774L420.042,90.613L420.029,90.603C420.003,90.581 419.979,90.556 419.958,90.531C419.958,90.53 419.957,90.529 419.956,90.528C419.955,90.526 419.953,90.524 419.952,90.522C419.95,90.52 419.949,90.518 419.947,90.516C419.947,90.515 419.946,90.515 419.946,90.514C419.924,90.485 419.906,90.454 419.892,90.421C419.891,90.42 419.891,90.419 419.89,90.419C419.889,90.416 419.888,90.413 419.887,90.411C419.886,90.408 419.885,90.406 419.884,90.404C419.884,90.402 419.883,90.401 419.883,90.4C419.857,90.336 419.846,90.268 419.848,90.2L419.848,90.189C419.848,90.185 419.848,90.182 419.849,90.179L419.849,90.178C419.85,90.157 419.853,90.136 419.857,90.116C419.873,90.035 419.909,89.957 419.966,89.889C420.066,89.769 420.21,89.707 420.355,89.707C420.469,89.707 420.585,89.746 420.68,89.825L420.904,90.013L421.333,90.372L423.254,91.98C423.468,92.16 423.497,92.48 423.317,92.694C423.217,92.814 423.073,92.876 422.928,92.876Z" style="fill:rgb(90,69,57);fill-rule:nonzero;"/>
            <path d="M423.257,89.088C423.257,89.088 423.257,89.087 423.256,89.086C423.257,89.087 423.257,89.088 423.257,89.088ZM423.254,89.077C423.254,89.075 423.253,89.073 423.253,89.07C423.253,89.073 423.254,89.075 423.254,89.077ZM423.252,89.066C423.251,89.063 423.25,89.059 423.25,89.055C423.25,89.059 423.251,89.063 423.252,89.066ZM423.25,89.055C423.245,89.032 423.242,89.008 423.241,88.984C423.242,89.008 423.245,89.031 423.25,89.055ZM423.241,88.982L423.241,88.973L423.241,88.982ZM423.241,88.968L423.241,88.961L423.241,88.968ZM423.241,88.954L423.241,88.95L423.241,88.954ZM423.251,88.862L423.301,88.574L423.828,85.569C423.871,85.322 424.084,85.149 424.326,85.149C424.355,85.149 424.385,85.152 424.414,85.157C424.69,85.205 424.874,85.468 424.826,85.743L424.4,88.172L424.297,88.761L424.073,88.573C423.978,88.494 423.863,88.455 423.748,88.455C423.603,88.455 423.46,88.517 423.359,88.637C423.303,88.704 423.267,88.782 423.251,88.862Z" style="fill:rgb(90,69,57);fill-rule:nonzero;"/>
            <path d="M426.322,91.624C426.207,91.624 426.092,91.586 425.997,91.506L423.637,89.53L423.422,89.351C423.338,89.28 423.282,89.188 423.257,89.088C423.257,89.088 423.257,89.087 423.256,89.086C423.256,89.083 423.255,89.08 423.254,89.077C423.254,89.075 423.253,89.073 423.253,89.07C423.252,89.069 423.252,89.068 423.252,89.066C423.251,89.063 423.25,89.059 423.25,89.055C423.245,89.031 423.242,89.008 423.241,88.984L423.241,88.95C423.242,88.921 423.245,88.891 423.251,88.862C423.267,88.782 423.303,88.704 423.359,88.637C423.46,88.517 423.603,88.455 423.748,88.455C423.863,88.455 423.978,88.494 424.073,88.573L424.297,88.761L424.736,89.129L426.647,90.729C426.862,90.909 426.89,91.228 426.711,91.443C426.61,91.563 426.466,91.624 426.322,91.624Z" style="fill:rgb(90,69,57);fill-rule:nonzero;"/>
            <path d="M391.607,104.243C391.578,104.243 391.548,104.241 391.518,104.236C391.243,104.188 391.059,103.925 391.107,103.649L391.525,101.26L391.635,100.631L391.86,100.819C391.955,100.898 392.07,100.937 392.185,100.937C392.33,100.937 392.474,100.875 392.574,100.755C392.706,100.598 392.725,100.384 392.642,100.211C392.686,100.302 392.704,100.409 392.685,100.518L392.625,100.859L392.105,103.824C392.062,104.07 391.848,104.243 391.607,104.243ZM392.64,100.207C392.639,100.205 392.638,100.203 392.637,100.201C392.638,100.203 392.639,100.205 392.64,100.207ZM392.632,100.192L392.632,100.191L392.632,100.192ZM392.563,100.092C392.562,100.092 392.562,100.091 392.561,100.091C392.562,100.091 392.562,100.092 392.563,100.092ZM392.555,100.084C392.554,100.083 392.553,100.081 392.551,100.08C392.553,100.081 392.554,100.083 392.555,100.084ZM392.547,100.076C392.545,100.074 392.543,100.071 392.54,100.069C392.543,100.071 392.545,100.074 392.547,100.076ZM392.539,100.068C392.53,100.059 392.521,100.05 392.511,100.042L392.505,100.037C392.517,100.047 392.528,100.057 392.539,100.068Z" style="fill:rgb(90,69,57);fill-rule:nonzero;"/>
            <path d="M392.185,100.937C392.07,100.937 391.955,100.898 391.86,100.819L391.635,100.631L391.228,100.29L389.286,98.664C389.071,98.485 389.043,98.165 389.222,97.951C389.323,97.831 389.467,97.769 389.611,97.769C389.726,97.769 389.841,97.808 389.936,97.887L392.328,99.889L392.511,100.042C392.521,100.05 392.53,100.059 392.539,100.068C392.54,100.068 392.54,100.068 392.54,100.069C392.543,100.071 392.545,100.074 392.547,100.076C392.549,100.077 392.55,100.079 392.551,100.08C392.553,100.081 392.554,100.083 392.555,100.084C392.557,100.086 392.559,100.089 392.561,100.091C392.562,100.091 392.562,100.092 392.563,100.092C392.59,100.123 392.613,100.156 392.632,100.191L392.632,100.192C392.634,100.195 392.635,100.198 392.637,100.201C392.638,100.203 392.639,100.205 392.64,100.207C392.641,100.208 392.641,100.209 392.642,100.211C392.725,100.384 392.706,100.598 392.574,100.755C392.474,100.875 392.33,100.937 392.185,100.937Z" style="fill:rgb(90,69,57);fill-rule:nonzero;"/>
            <path d="M394.629,103.076C394.6,103.076 394.57,103.074 394.541,103.069C394.266,103.02 394.081,102.758 394.13,102.482L394.536,100.161L394.658,99.463L394.883,99.651C394.977,99.731 395.093,99.77 395.207,99.77C395.352,99.77 395.496,99.708 395.596,99.588C395.652,99.522 395.687,99.446 395.704,99.367L395.635,99.76L395.128,102.657C395.085,102.903 394.871,103.076 394.629,103.076ZM395.714,99.237L395.714,99.234L395.714,99.237ZM395.713,99.226L395.713,99.22L395.713,99.226ZM395.712,99.216C395.712,99.213 395.712,99.21 395.711,99.207C395.712,99.21 395.712,99.213 395.712,99.216ZM395.711,99.205C395.707,99.169 395.699,99.134 395.687,99.1C395.699,99.134 395.707,99.169 395.711,99.205ZM395.687,99.098C395.686,99.095 395.685,99.092 395.684,99.089C395.685,99.092 395.686,99.095 395.687,99.098ZM395.682,99.084C395.681,99.082 395.68,99.08 395.679,99.078C395.68,99.08 395.681,99.082 395.682,99.084ZM395.676,99.07C395.676,99.069 395.676,99.068 395.675,99.067C395.676,99.068 395.676,99.069 395.676,99.07ZM395.671,99.057L395.67,99.056L395.671,99.057ZM395.63,98.982L395.629,98.982L395.63,98.982ZM395.624,98.973C395.623,98.973 395.622,98.972 395.622,98.971C395.622,98.972 395.623,98.973 395.624,98.973ZM395.618,98.965C395.616,98.963 395.615,98.961 395.614,98.96C395.615,98.961 395.616,98.963 395.618,98.965ZM395.611,98.956C395.609,98.954 395.607,98.951 395.605,98.948C395.607,98.951 395.609,98.954 395.611,98.956ZM395.605,98.948C395.584,98.922 395.56,98.897 395.533,98.875L395.521,98.864C395.552,98.889 395.58,98.917 395.605,98.948Z" style="fill:rgb(90,69,57);fill-rule:nonzero;"/>
            <path d="M395.207,99.77C395.093,99.77 394.977,99.731 394.883,99.651L394.658,99.463L394.304,99.167L392.308,97.497C392.094,97.317 392.065,96.998 392.245,96.783C392.345,96.663 392.489,96.601 392.634,96.601C392.749,96.601 392.864,96.64 392.959,96.719L395.403,98.766L395.521,98.864L395.533,98.875C395.56,98.897 395.584,98.922 395.605,98.948C395.607,98.951 395.609,98.954 395.611,98.956C395.612,98.957 395.613,98.958 395.614,98.96C395.615,98.961 395.616,98.963 395.618,98.965C395.619,98.967 395.62,98.969 395.622,98.971C395.622,98.972 395.623,98.973 395.624,98.973C395.626,98.976 395.627,98.979 395.629,98.982L395.63,98.982C395.645,99.006 395.659,99.031 395.67,99.056L395.671,99.057C395.672,99.06 395.674,99.064 395.675,99.067C395.676,99.068 395.676,99.069 395.676,99.07C395.677,99.073 395.678,99.075 395.679,99.078C395.68,99.08 395.681,99.082 395.682,99.084C395.682,99.086 395.683,99.087 395.684,99.089C395.685,99.092 395.686,99.095 395.687,99.098L395.687,99.1C395.699,99.134 395.707,99.169 395.711,99.205L395.711,99.207C395.712,99.21 395.712,99.213 395.712,99.216C395.712,99.217 395.712,99.219 395.713,99.22L395.713,99.226C395.713,99.229 395.713,99.232 395.714,99.234L395.714,99.237C395.716,99.28 395.713,99.324 395.704,99.367C395.687,99.446 395.652,99.522 395.596,99.588C395.496,99.708 395.352,99.77 395.207,99.77Z" style="fill:rgb(90,69,57);fill-rule:nonzero;"/>
            <path d="M411.403,105.385C411.302,105.385 411.202,105.355 411.118,105.298C411.205,105.17 411.353,105.089 411.51,105.089L411.593,105.096C411.672,105.11 411.743,105.143 411.803,105.189C411.745,105.263 411.667,105.321 411.576,105.354C411.519,105.375 411.461,105.385 411.403,105.385ZM410.403,104.571L407.241,101.28L406.65,100.664L406.289,100.843L401.885,103.016C401.687,102.59 401.291,102.264 400.792,102.176L400.534,102.154C400.512,102.154 400.49,102.154 400.469,102.155L401.815,97.502L402.021,96.79L401.593,96.504L397.535,93.795C397.788,93.578 397.971,93.275 398.034,92.92L398.034,92.919L398.056,92.663C398.056,92.469 398.018,92.28 397.948,92.107L402.562,90.968L403.062,90.845L403.11,90.105L403.422,85.317C403.519,85.356 403.622,85.386 403.73,85.405L403.988,85.428C404.405,85.428 404.793,85.252 405.068,84.961L408.453,88.483L408.732,88.773L409.498,88.395L413.569,86.385C413.748,86.862 414.167,87.233 414.706,87.327L414.895,87.344L413.504,92.153L413.361,92.648L413.977,93.059L417.913,95.687C417.766,95.874 417.661,96.099 417.617,96.349L417.594,96.608C417.594,96.837 417.647,97.058 417.743,97.255L413.038,98.416L412.319,98.594L412.286,99.108L411.958,104.145C411.896,104.125 411.833,104.11 411.768,104.098L411.51,104.076C411.079,104.076 410.68,104.263 410.403,104.571ZM407.458,100.043L410.971,103.699L411.323,98.302L411.332,98.158C411.346,97.938 411.503,97.752 411.716,97.698L412.075,97.61L417.108,96.368L412.797,93.49L412.49,93.285C412.306,93.163 412.223,92.934 412.284,92.723L412.325,92.584L413.827,87.388L409.281,89.632L408.848,89.846C408.777,89.881 408.7,89.898 408.624,89.898C408.489,89.898 408.356,89.845 408.259,89.743L408.236,89.72L404.41,85.739L404.073,90.911L404.049,91.281C404.035,91.501 403.879,91.687 403.665,91.74L403.525,91.774L398.274,93.07L402.772,96.073L402.892,96.153C403.076,96.276 403.159,96.504 403.098,96.716L402.995,97.071L401.554,102.05L406.505,99.606L406.534,99.592C406.605,99.557 406.682,99.54 406.758,99.54C406.893,99.54 407.026,99.593 407.124,99.695L407.458,100.043ZM408.624,89.392L408.989,89.041L408.624,89.392ZM400.748,103.519C400.631,103.519 400.516,103.479 400.423,103.401C400.367,103.354 400.323,103.297 400.292,103.234C400.364,103.191 400.448,103.167 400.534,103.167L400.617,103.175C400.785,103.203 400.916,103.318 400.976,103.465L400.972,103.467C400.901,103.502 400.825,103.519 400.748,103.519ZM418.726,96.919C418.651,96.834 418.607,96.724 418.608,96.608L418.615,96.526L418.615,96.525C418.632,96.426 418.679,96.34 418.745,96.273C418.831,96.384 418.869,96.529 418.845,96.672C418.828,96.766 418.786,96.851 418.726,96.919ZM396.617,93.136C396.545,93.029 396.515,92.897 396.538,92.766C396.572,92.569 396.721,92.409 396.915,92.361L396.931,92.358C397.001,92.442 397.043,92.55 397.043,92.663L397.036,92.745C396.999,92.959 396.821,93.115 396.617,93.136ZM397.036,92.747L397.036,92.745L397.036,92.747ZM414.963,86.336L414.88,86.329C414.676,86.295 414.525,86.132 414.493,85.938C414.539,85.925 414.586,85.919 414.633,85.919C414.75,85.919 414.866,85.959 414.959,86.036C415.044,86.108 415.101,86.203 415.126,86.307C415.074,86.326 415.019,86.336 414.963,86.336ZM403.988,84.414L403.905,84.407C403.779,84.386 403.673,84.315 403.603,84.22C403.657,84.16 403.726,84.112 403.805,84.083C403.862,84.063 403.92,84.053 403.979,84.053C404.114,84.053 404.248,84.107 404.344,84.208L404.363,84.228C404.275,84.343 404.136,84.414 403.988,84.414Z" style="fill:rgb(90,69,57);fill-rule:nonzero;"/>
            <path d="M414.963,87.35L414.895,87.344L414.706,87.327C414.167,87.233 413.748,86.862 413.569,86.385C413.507,86.221 413.473,86.044 413.473,85.862L413.496,85.605C413.624,84.882 414.25,84.373 414.961,84.373L415.219,84.396C415.941,84.524 416.45,85.149 416.45,85.86L416.428,86.118L416.428,86.119C416.3,86.841 415.674,87.35 414.963,87.35ZM414.493,85.938C414.525,86.132 414.676,86.295 414.88,86.329L414.963,86.336C415.019,86.336 415.074,86.326 415.126,86.307C415.279,86.25 415.4,86.116 415.43,85.943L415.429,85.944L415.437,85.86C415.437,85.636 415.274,85.433 415.044,85.394L414.961,85.387C414.736,85.387 414.533,85.55 414.494,85.779L414.487,85.862C414.487,85.888 414.489,85.913 414.493,85.938Z" style="fill:rgb(90,69,57);fill-rule:nonzero;"/>
            <path d="M403.988,85.428L403.73,85.405C403.622,85.386 403.519,85.356 403.422,85.317C402.867,85.09 402.498,84.546 402.498,83.941L402.52,83.682L402.52,83.683C402.648,82.96 403.273,82.451 403.985,82.451L404.242,82.474C404.965,82.601 405.475,83.227 405.475,83.938L405.452,84.196C405.399,84.495 405.262,84.756 405.068,84.961C404.793,85.252 404.405,85.428 403.988,85.428ZM403.603,84.22C403.673,84.315 403.779,84.386 403.905,84.407L403.988,84.414C404.136,84.414 404.275,84.343 404.363,84.228C404.409,84.169 404.441,84.099 404.454,84.021L404.453,84.022L404.461,83.938C404.461,83.715 404.298,83.511 404.067,83.472L403.985,83.465C403.761,83.465 403.558,83.627 403.518,83.858L403.518,83.859L403.511,83.941C403.511,84.043 403.545,84.14 403.603,84.22Z" style="fill:rgb(90,69,57);fill-rule:nonzero;"/>
            <path d="M411.513,107.053L411.255,107.03C410.532,106.903 410.023,106.277 410.023,105.566L410.046,105.306L410.046,105.307C410.096,105.022 410.224,104.771 410.403,104.571C410.68,104.263 411.079,104.076 411.51,104.076L411.768,104.098C411.833,104.11 411.896,104.125 411.958,104.145C412.578,104.34 413,104.916 413,105.563L412.978,105.821L412.977,105.822C412.849,106.544 412.224,107.052 411.513,107.053ZM411.118,105.298C411.081,105.352 411.055,105.414 411.044,105.482L411.044,105.483L411.037,105.566C411.037,105.79 411.199,105.993 411.43,106.032L411.513,106.039C411.736,106.039 411.94,105.877 411.979,105.646L411.986,105.563C411.986,105.416 411.916,105.278 411.803,105.189C411.743,105.143 411.672,105.11 411.593,105.096L411.51,105.089C411.353,105.089 411.205,105.17 411.118,105.298ZM411.979,105.646L411.979,105.647L411.979,105.646Z" style="fill:rgb(90,69,57);fill-rule:nonzero;"/>
            <path d="M400.536,105.131L400.278,105.108C399.556,104.98 399.048,104.355 399.048,103.644L399.07,103.385L399.07,103.386C399.193,102.686 399.784,102.185 400.469,102.155C400.49,102.154 400.512,102.154 400.534,102.154L400.792,102.176C401.291,102.264 401.687,102.59 401.885,103.016C401.975,103.208 402.024,103.421 402.024,103.642L402.002,103.898L402.001,103.899C401.874,104.622 401.247,105.131 400.536,105.131ZM400.292,103.234C400.178,103.303 400.092,103.419 400.068,103.561L400.061,103.644C400.06,103.867 400.224,104.071 400.453,104.11L400.536,104.117C400.761,104.117 400.964,103.954 401.003,103.724L401.004,103.724L401.011,103.642C401.011,103.58 400.998,103.52 400.976,103.465C400.916,103.318 400.785,103.203 400.617,103.175L400.534,103.167C400.448,103.167 400.364,103.191 400.292,103.234ZM401.003,103.724L401.003,103.725L401.004,103.724L401.003,103.724Z" style="fill:rgb(90,69,57);fill-rule:nonzero;"/>
            <path d="M419.084,98.095L418.826,98.073C418.336,97.986 417.945,97.671 417.743,97.255C417.647,97.058 417.594,96.837 417.594,96.608L417.617,96.349C417.661,96.099 417.766,95.874 417.913,95.687C418.19,95.335 418.617,95.118 419.082,95.118L419.339,95.141C420.062,95.268 420.571,95.894 420.571,96.605L420.549,96.863L420.549,96.864C420.42,97.587 419.795,98.095 419.084,98.095ZM418.726,96.919C418.794,96.998 418.89,97.055 419.001,97.075L419.084,97.082C419.307,97.082 419.511,96.919 419.55,96.689L419.558,96.605C419.558,96.381 419.395,96.178 419.164,96.139L419.082,96.132C418.954,96.132 418.833,96.185 418.745,96.273C418.679,96.34 418.632,96.426 418.615,96.525L418.615,96.526L418.608,96.608C418.607,96.724 418.651,96.834 418.726,96.919Z" style="fill:rgb(90,69,57);fill-rule:nonzero;"/>
            <path d="M396.568,94.152L396.31,94.13C395.588,94.002 395.08,93.377 395.08,92.665L395.102,92.406L395.102,92.408C395.229,91.685 395.855,91.176 396.566,91.176L396.824,91.198C397.35,91.291 397.762,91.646 397.948,92.107C398.018,92.28 398.056,92.469 398.056,92.663L398.034,92.919L398.034,92.92C397.971,93.275 397.788,93.578 397.535,93.795C397.271,94.02 396.931,94.152 396.568,94.152ZM396.565,92.189C396.341,92.189 396.139,92.352 396.1,92.581L396.1,92.583L396.093,92.665C396.093,92.889 396.256,93.092 396.485,93.131L396.568,93.139C396.585,93.139 396.601,93.138 396.617,93.136C396.821,93.115 396.999,92.959 397.036,92.745L397.043,92.663C397.043,92.55 397.001,92.442 396.931,92.358C396.861,92.275 396.764,92.216 396.649,92.196L396.566,92.189L396.565,92.189ZM397.036,92.745L397.036,92.747L397.036,92.745Z" style="fill:rgb(90,69,57);fill-rule:nonzero;"/>
            <path d="M412.384,133.96L411.339,128.086C411.53,128.092 411.719,128.099 411.906,128.106L412.856,133.453L412.853,133.59C412.824,133.761 412.689,133.905 412.506,133.938L412.385,133.96L412.384,133.96Z" style="fill:rgb(196,176,133);"/>
            <clipPath id="_clip7">
                <path d="M412.384,133.96L411.339,128.086C411.53,128.092 411.719,128.099 411.906,128.106L412.856,133.453L412.853,133.59C412.824,133.761 412.689,133.905 412.506,133.938L412.385,133.96L412.384,133.96Z"/>
            </clipPath>
            <g clip-path="url(#_clip7)">
                <path d="M411.227,127.465L411.243,127.552L411.359,127.531C411.679,127.474 411.985,127.67 412.069,127.976L413.034,133.401C413.093,133.731 412.87,134.051 412.53,134.112L412.413,134.133L412.431,134.23L414.547,133.853L414.529,133.756L414.413,133.777C414.073,133.837 413.753,133.614 413.694,133.284L412.663,127.489L413.78,127.291C414.605,127.144 415.166,127.655 415.343,128.535C415.381,128.748 415.403,128.985 415.388,129.127C415.198,130.593 413.546,130.537 413.546,130.537L413.562,130.624C414.889,131.049 416.35,129.978 416.088,128.502C415.882,127.347 414.999,126.773 413.767,126.993L411.227,127.465Z" style="fill:rgb(90,69,57);fill-rule:nonzero;"/>
            </g>
            <path d="M411.906,128.106C411.719,128.099 411.53,128.092 411.339,128.086L411.281,127.76L411.409,127.737L411.558,127.735C411.711,127.763 411.842,127.872 411.893,128.03L411.906,128.106Z" style="fill:rgb(55,33,28);"/>
            <clipPath id="_clip8">
                <path d="M411.906,128.106C411.719,128.099 411.53,128.092 411.339,128.086L411.281,127.76L411.409,127.737L411.558,127.735C411.711,127.763 411.842,127.872 411.893,128.03L411.906,128.106Z"/>
            </clipPath>
            <g clip-path="url(#_clip8)">
                <path d="M411.227,127.465L411.243,127.552L411.359,127.531C411.679,127.474 411.985,127.67 412.069,127.976L413.034,133.401C413.093,133.731 412.87,134.051 412.53,134.112L412.413,134.133L412.431,134.23L414.547,133.853L414.529,133.756L414.413,133.777C414.073,133.837 413.753,133.614 413.694,133.284L412.663,127.489L413.78,127.291C414.605,127.144 415.166,127.655 415.343,128.535C415.381,128.748 415.403,128.985 415.388,129.127C415.198,130.593 413.546,130.537 413.546,130.537L413.562,130.624C414.889,131.049 416.35,129.978 416.088,128.502C415.882,127.347 414.999,126.773 413.767,126.993L411.227,127.465Z" style="fill:rgb(55,33,28);fill-rule:nonzero;"/>
            </g>
            <path d="M415.849,128.367C415.735,128.356 415.619,128.345 415.503,128.335C415.45,128.141 415.375,127.963 415.281,127.806C415.393,127.815 415.506,127.826 415.617,127.836C415.716,127.987 415.793,128.164 415.849,128.367Z" style="fill:rgb(55,33,28);"/>
            <clipPath id="_clip9">
                <path d="M415.849,128.367C415.735,128.356 415.619,128.345 415.503,128.335C415.45,128.141 415.375,127.963 415.281,127.806C415.393,127.815 415.506,127.826 415.617,127.836C415.716,127.987 415.793,128.164 415.849,128.367Z"/>
            </clipPath>
            <g clip-path="url(#_clip9)">
                <path d="M411.227,127.465L411.243,127.552L411.359,127.531C411.679,127.474 411.985,127.67 412.069,127.976L413.034,133.401C413.093,133.731 412.87,134.051 412.53,134.112L412.413,134.133L412.431,134.23L414.547,133.853L414.529,133.756L414.413,133.777C414.073,133.837 413.753,133.614 413.694,133.284L412.663,127.489L413.78,127.291C414.605,127.144 415.166,127.655 415.343,128.535C415.381,128.748 415.403,128.985 415.388,129.127C415.198,130.593 413.546,130.537 413.546,130.537L413.562,130.624C414.889,131.049 416.35,129.978 416.088,128.502C415.882,127.347 414.999,126.773 413.767,126.993L411.227,127.465Z" style="fill:rgb(55,33,28);fill-rule:nonzero;"/>
            </g>
            <path d="M449.232,105.32L431.7,102.249L432.875,95.545L450.406,98.616L449.232,105.32Z" style="fill:rgb(196,176,133);"/>
            <clipPath id="_clip10">
                <path d="M449.232,105.32L431.7,102.249L432.875,95.545L450.406,98.616L449.232,105.32Z"/>
            </clipPath>
            <g clip-path="url(#_clip10)">
                <path d="M432.562,102.311L432.719,102.309L433.037,102.345L433.173,102.408L433.635,102.46L433.946,102.534L434.094,102.53L434.241,102.585L434.431,102.511L434.534,102.372L434.493,102.158L434.335,102.052L434.127,102.006L433.893,101.995L433.736,101.938L433.108,101.828L432.855,101.813L432.628,101.763L432.502,101.643L432.473,101.471L432.539,101.208L432.67,100.907L433.106,100.267L433.545,99.833L433.667,99.756L433.746,99.643L433.891,99.54L434.114,99.334L434.239,99.238L434.349,99.11L434.444,99.019L434.866,98.573L434.957,98.441L435.02,98.305L435.123,98.166L435.237,97.911L435.295,97.745L435.405,97.116L435.402,96.968L435.371,96.806L435.358,96.657L435.233,96.419L435.057,96.192L434.931,96.071L434.787,95.997L434.673,95.918L434.308,95.815L433.903,95.774L433.754,95.787L433.577,95.785L433.423,95.827L433.292,95.843L433.166,95.89L433.045,95.967L432.885,96.037L432.795,96.217L432.806,96.435L432.988,96.516L433.137,96.503L433.41,96.404L433.55,96.33L433.719,96.32L433.849,96.304L434.083,96.315L434.286,96.39L434.415,96.491L434.523,96.55L434.614,96.644L434.735,96.91L434.755,97.071L434.68,97.559L434.625,97.706L434.584,97.826L434.527,97.983L434.433,98.075L434.347,98.227L434.255,98.358L434.14,98.455L434.05,98.577L433.924,98.682L433.837,98.785L433.722,98.883L433.608,98.971L433.488,99.097L433.125,99.377L433.022,99.516L432.901,99.593L432.799,99.722L432.682,99.829L432.605,99.934L432.483,100.069L432.403,100.193L432.297,100.292L432.225,100.426L432.158,100.582L432.066,100.713L432.015,100.841L431.937,101.004L431.763,101.886L431.806,102.09L432.032,102.199L432.405,102.254L432.562,102.311Z" style="fill:rgb(90,69,57);fill-rule:nonzero;"/>
                <path d="M438.166,103.381L438.398,103.402L438.538,103.387L438.689,103.364L438.834,103.321L438.96,103.274L439.123,103.185L439.229,103.086L439.342,102.998L439.432,102.876L439.528,102.775L439.629,102.646L439.784,102.378L439.824,102.209L439.911,102.047L440.097,101.491L440.131,101.35L440.188,101.193L440.207,101.029L440.377,100.117L440.426,99.949L440.443,99.795L440.444,99.618L440.481,99.468L440.532,98.613L440.485,97.986L440.42,97.681L440.368,97.534L440.3,97.414L440.246,97.277L440.054,97.027L439.95,96.95L439.825,96.879L439.687,96.826L439.564,96.745L439.34,96.677L439.105,96.675L438.97,96.661L438.819,96.684L438.527,96.78L438.15,97.028L437.867,97.41L437.67,97.807L437.521,98.262L437.462,98.379L437.416,98.528L437.386,98.7L437.334,98.828L437.317,98.982L437.262,99.13L437.256,99.276L437.13,99.823L437.037,100.523L437.005,100.704L436.956,101.657L437.035,102.103L437.054,102.273L437.111,102.401L437.128,102.581L437.354,102.915L437.469,103.043L437.581,103.131L437.71,103.183L437.824,103.262L437.952,103.314L438.166,103.381ZM438.068,102.765L437.93,102.653L437.797,102.57L437.69,102.287L437.639,102.13L437.634,101.992L437.584,101.659L437.633,100.873L437.674,100.586L437.705,100.464L437.695,100.295L437.739,100.156L437.924,99.157L437.968,99.018L438.016,98.859L438.051,98.659L438.256,98.047L438.328,97.913L438.376,97.754L438.477,97.625L438.567,97.503L438.682,97.406L438.779,97.305L438.887,97.245L439.019,97.219L439.219,97.254L439.437,97.302L439.581,97.376L439.747,97.661L439.806,97.828L439.881,98.126L439.885,98.774L439.853,98.906L439.843,99.071L439.847,99.219L439.801,99.702L439.764,99.862L439.641,100.675L439.589,100.803L439.472,101.303L439.428,101.443L439.401,101.595L439.344,101.752L439.306,101.912L439.234,102.047L439.15,102.189L439.022,102.471L438.934,102.583L438.812,102.66L438.718,102.751L438.613,102.792L438.463,102.805L438.277,102.802L438.068,102.765Z" style="fill:rgb(90,69,57);fill-rule:nonzero;"/>
                <g transform="matrix(1,0,0,1,9.29001,1.73299)">
                    <path d="M432.562,102.311L432.719,102.309L433.037,102.345L433.173,102.408L433.635,102.46L433.946,102.534L434.094,102.53L434.241,102.585L434.431,102.511L434.534,102.372L434.493,102.158L434.335,102.052L434.127,102.006L433.893,101.995L433.736,101.938L433.108,101.828L432.855,101.813L432.628,101.763L432.502,101.643L432.473,101.471L432.539,101.208L432.67,100.907L433.106,100.267L433.545,99.833L433.667,99.756L433.746,99.643L433.891,99.54L434.114,99.334L434.239,99.238L434.349,99.11L434.444,99.019L434.866,98.573L434.957,98.441L435.02,98.305L435.123,98.166L435.237,97.911L435.295,97.745L435.405,97.116L435.402,96.968L435.371,96.806L435.358,96.657L435.233,96.419L435.057,96.192L434.931,96.071L434.787,95.997L434.673,95.918L434.308,95.815L433.903,95.774L433.754,95.787L433.577,95.785L433.423,95.827L433.292,95.843L433.166,95.89L433.045,95.967L432.885,96.037L432.795,96.217L432.806,96.435L432.988,96.516L433.137,96.503L433.41,96.404L433.55,96.33L433.719,96.32L433.849,96.304L434.083,96.315L434.286,96.39L434.415,96.491L434.523,96.55L434.614,96.644L434.735,96.91L434.755,97.071L434.68,97.559L434.625,97.706L434.584,97.826L434.527,97.983L434.433,98.075L434.347,98.227L434.255,98.358L434.14,98.455L434.05,98.577L433.924,98.682L433.837,98.785L433.722,98.883L433.608,98.971L433.488,99.097L433.125,99.377L433.022,99.516L432.901,99.593L432.799,99.722L432.682,99.829L432.605,99.934L432.483,100.069L432.403,100.193L432.297,100.292L432.225,100.426L432.158,100.582L432.066,100.713L432.015,100.841L431.937,101.004L431.763,101.886L431.806,102.09L432.032,102.199L432.405,102.254L432.562,102.311Z" style="fill:rgb(90,69,57);fill-rule:nonzero;"/>
                </g>
                <g transform="matrix(1,0,0,1,14.57,2.69299)">
                    <path d="M432.562,102.311L432.719,102.309L433.037,102.345L433.173,102.408L433.635,102.46L433.946,102.534L434.094,102.53L434.241,102.585L434.431,102.511L434.534,102.372L434.493,102.158L434.335,102.052L434.127,102.006L433.893,101.995L433.736,101.938L433.108,101.828L432.855,101.813L432.628,101.763L432.502,101.643L432.473,101.471L432.539,101.208L432.67,100.907L433.106,100.267L433.545,99.833L433.667,99.756L433.746,99.643L433.891,99.54L434.114,99.334L434.239,99.238L434.349,99.11L434.444,99.019L434.866,98.573L434.957,98.441L435.02,98.305L435.123,98.166L435.237,97.911L435.295,97.745L435.405,97.116L435.402,96.968L435.371,96.806L435.358,96.657L435.233,96.419L435.057,96.192L434.931,96.071L434.787,95.997L434.673,95.918L434.308,95.815L433.903,95.774L433.754,95.787L433.577,95.785L433.423,95.827L433.292,95.843L433.166,95.89L433.045,95.967L432.885,96.037L432.795,96.217L432.806,96.435L432.988,96.516L433.137,96.503L433.41,96.404L433.55,96.33L433.719,96.32L433.849,96.304L434.083,96.315L434.286,96.39L434.415,96.491L434.523,96.55L434.614,96.644L434.735,96.91L434.755,97.071L434.68,97.559L434.625,97.706L434.584,97.826L434.527,97.983L434.433,98.075L434.347,98.227L434.255,98.358L434.14,98.455L434.05,98.577L433.924,98.682L433.837,98.785L433.722,98.883L433.608,98.971L433.488,99.097L433.125,99.377L433.022,99.516L432.901,99.593L432.799,99.722L432.682,99.829L432.605,99.934L432.483,100.069L432.403,100.193L432.297,100.292L432.225,100.426L432.158,100.582L432.066,100.713L432.015,100.841L431.937,101.004L431.763,101.886L431.806,102.09L432.032,102.199L432.405,102.254L432.562,102.311Z" style="fill:rgb(90,69,57);fill-rule:nonzero;"/>
                </g>
            </g>
            <path d="M382.667,93.663L365.135,90.593L366.31,83.889L383.841,86.959L382.667,93.663Z" style="fill:rgb(196,176,133);"/>
            <clipPath id="_clip11">
                <path d="M382.667,93.663L365.135,90.593L366.31,83.889L383.841,86.959L382.667,93.663Z"/>
            </clipPath>
            <g clip-path="url(#_clip11)">
                <path d="M365.997,90.654L366.154,90.652L366.472,90.688L366.608,90.751L367.07,90.802L367.381,90.877L367.529,90.873L367.676,90.928L367.866,90.853L367.969,90.714L367.928,90.501L367.77,90.395L367.562,90.349L367.328,90.337L367.171,90.28L366.543,90.17L366.29,90.155L366.063,90.106L365.937,89.986L365.908,89.814L365.974,89.55L366.105,89.25L366.541,88.609L366.98,88.176L367.102,88.099L367.181,87.985L367.326,87.883L367.549,87.677L367.674,87.581L367.784,87.453L367.879,87.362L368.301,86.915L368.392,86.784L368.455,86.648L368.558,86.509L368.672,86.254L368.73,86.088L368.84,85.459L368.837,85.311L368.806,85.149L368.793,84.999L368.668,84.761L368.492,84.534L368.366,84.414L368.222,84.34L368.108,84.261L367.743,84.158L367.338,84.116L367.189,84.129L367.012,84.128L366.858,84.17L366.727,84.186L366.601,84.233L366.48,84.31L366.32,84.38L366.23,84.56L366.241,84.778L366.423,84.859L366.572,84.846L366.845,84.746L366.985,84.673L367.154,84.663L367.284,84.647L367.518,84.658L367.721,84.733L367.85,84.834L367.958,84.892L368.049,84.987L368.17,85.253L368.19,85.414L368.115,85.901L368.06,86.049L368.019,86.169L367.962,86.326L367.868,86.417L367.782,86.569L367.69,86.7L367.575,86.798L367.485,86.92L367.359,87.025L367.272,87.128L367.157,87.225L367.043,87.313L366.923,87.44L366.56,87.72L366.457,87.859L366.336,87.935L366.234,88.065L366.117,88.172L366.04,88.276L365.918,88.412L365.838,88.535L365.732,88.635L365.66,88.769L365.593,88.924L365.501,89.055L365.45,89.184L365.372,89.347L365.198,90.229L365.241,90.433L365.467,90.541L365.84,90.597L365.997,90.654Z" style="fill:rgb(90,69,57);fill-rule:nonzero;"/>
                <g transform="matrix(1,0,0,1,10.08,1.73853)">
                    <path d="M365.997,90.654L366.154,90.652L366.472,90.688L366.608,90.751L367.07,90.802L367.381,90.877L367.529,90.873L367.676,90.928L367.866,90.853L367.969,90.714L367.928,90.501L367.77,90.395L367.562,90.349L367.328,90.337L367.171,90.28L366.543,90.17L366.29,90.155L366.063,90.106L365.937,89.986L365.908,89.814L365.974,89.55L366.105,89.25L366.541,88.609L366.98,88.176L367.102,88.099L367.181,87.985L367.326,87.883L367.549,87.677L367.674,87.581L367.784,87.453L367.879,87.362L368.301,86.915L368.392,86.784L368.455,86.648L368.558,86.509L368.672,86.254L368.73,86.088L368.84,85.459L368.837,85.311L368.806,85.149L368.793,84.999L368.668,84.761L368.492,84.534L368.366,84.414L368.222,84.34L368.108,84.261L367.743,84.158L367.338,84.116L367.189,84.129L367.012,84.128L366.858,84.17L366.727,84.186L366.601,84.233L366.48,84.31L366.32,84.38L366.23,84.56L366.241,84.778L366.423,84.859L366.572,84.846L366.845,84.746L366.985,84.673L367.154,84.663L367.284,84.647L367.518,84.658L367.721,84.733L367.85,84.834L367.958,84.892L368.049,84.987L368.17,85.253L368.19,85.414L368.115,85.901L368.06,86.049L368.019,86.169L367.962,86.326L367.868,86.417L367.782,86.569L367.69,86.7L367.575,86.798L367.485,86.92L367.359,87.025L367.272,87.128L367.157,87.225L367.043,87.313L366.923,87.44L366.56,87.72L366.457,87.859L366.336,87.935L366.234,88.065L366.117,88.172L366.04,88.276L365.918,88.412L365.838,88.535L365.732,88.635L365.66,88.769L365.593,88.924L365.501,89.055L365.45,89.184L365.372,89.347L365.198,90.229L365.241,90.433L365.467,90.541L365.84,90.597L365.997,90.654Z" style="fill:rgb(90,69,57);fill-rule:nonzero;"/>
                </g>
                <g transform="matrix(1,0,0,1,14.641,2.73499)">
                    <path d="M365.997,90.654L366.154,90.652L366.472,90.688L366.608,90.751L367.07,90.802L367.381,90.877L367.529,90.873L367.676,90.928L367.866,90.853L367.969,90.714L367.928,90.501L367.77,90.395L367.562,90.349L367.328,90.337L367.171,90.28L366.543,90.17L366.29,90.155L366.063,90.106L365.937,89.986L365.908,89.814L365.974,89.55L366.105,89.25L366.541,88.609L366.98,88.176L367.102,88.099L367.181,87.985L367.326,87.883L367.549,87.677L367.674,87.581L367.784,87.453L367.879,87.362L368.301,86.915L368.392,86.784L368.455,86.648L368.558,86.509L368.672,86.254L368.73,86.088L368.84,85.459L368.837,85.311L368.806,85.149L368.793,84.999L368.668,84.761L368.492,84.534L368.366,84.414L368.222,84.34L368.108,84.261L367.743,84.158L367.338,84.116L367.189,84.129L367.012,84.128L366.858,84.17L366.727,84.186L366.601,84.233L366.48,84.31L366.32,84.38L366.23,84.56L366.241,84.778L366.423,84.859L366.572,84.846L366.845,84.746L366.985,84.673L367.154,84.663L367.284,84.647L367.518,84.658L367.721,84.733L367.85,84.834L367.958,84.892L368.049,84.987L368.17,85.253L368.19,85.414L368.115,85.901L368.06,86.049L368.019,86.169L367.962,86.326L367.868,86.417L367.782,86.569L367.69,86.7L367.575,86.798L367.485,86.92L367.359,87.025L367.272,87.128L367.157,87.225L367.043,87.313L366.923,87.44L366.56,87.72L366.457,87.859L366.336,87.935L366.234,88.065L366.117,88.172L366.04,88.276L365.918,88.412L365.838,88.535L365.732,88.635L365.66,88.769L365.593,88.924L365.501,89.055L365.45,89.184L365.372,89.347L365.198,90.229L365.241,90.433L365.467,90.541L365.84,90.597L365.997,90.654Z" style="fill:rgb(90,69,57);fill-rule:nonzero;"/>
                </g>
                <path d="M371.601,91.724L371.833,91.745L371.973,91.73L372.124,91.707L372.269,91.664L372.395,91.617L372.558,91.528L372.664,91.429L372.777,91.341L372.867,91.219L372.963,91.118L373.064,90.989L373.219,90.721L373.259,90.551L373.346,90.39L373.532,89.834L373.566,89.693L373.623,89.536L373.642,89.372L373.812,88.46L373.861,88.291L373.878,88.137L373.879,87.961L373.916,87.81L373.967,86.956L373.92,86.329L373.855,86.023L373.803,85.877L373.735,85.757L373.681,85.62L373.489,85.37L373.385,85.293L373.26,85.222L373.122,85.169L372.999,85.088L372.775,85.019L372.54,85.018L372.405,85.004L372.254,85.026L371.962,85.122L371.585,85.37L371.302,85.753L371.105,86.15L370.956,86.605L370.897,86.722L370.851,86.871L370.821,87.043L370.769,87.171L370.752,87.325L370.697,87.472L370.691,87.619L370.565,88.166L370.472,88.866L370.44,89.047L370.391,90L370.47,90.446L370.489,90.616L370.546,90.744L370.563,90.924L370.789,91.258L370.904,91.386L371.016,91.474L371.145,91.526L371.259,91.605L371.387,91.657L371.601,91.724ZM371.503,91.108L371.365,90.995L371.232,90.913L371.125,90.629L371.074,90.473L371.069,90.335L371.019,90.002L371.068,89.216L371.109,88.928L371.14,88.806L371.13,88.638L371.174,88.498L371.359,87.5L371.403,87.361L371.451,87.202L371.486,87.002L371.691,86.39L371.763,86.256L371.811,86.097L371.912,85.968L372.002,85.846L372.117,85.748L372.214,85.647L372.322,85.588L372.454,85.562L372.654,85.597L372.872,85.645L373.016,85.719L373.182,86.003L373.241,86.171L373.316,86.469L373.32,87.117L373.288,87.249L373.278,87.414L373.282,87.562L373.236,88.045L373.199,88.205L373.076,89.018L373.024,89.146L372.907,89.646L372.863,89.785L372.836,89.938L372.779,90.095L372.741,90.255L372.669,90.389L372.585,90.532L372.457,90.814L372.369,90.926L372.247,91.003L372.153,91.094L372.048,91.134L371.898,91.147L371.712,91.144L371.503,91.108Z" style="fill:rgb(90,69,57);fill-rule:nonzero;"/>
            </g>
            <path d="M520.219,124.594L469.745,124.594C471.185,124.147 472.539,123.67 473.889,123.194C479.215,121.318 484.484,119.457 494.956,119.454C495.091,119.454 495.227,119.455 495.364,119.456C506.107,119.507 511.427,121.441 516.804,123.39C517.924,123.796 519.046,124.203 520.219,124.594ZM467.949,124.594L462.579,124.594L462.579,117.288C467.224,116.57 470.588,115.385 473.93,114.207C479.256,112.331 484.525,110.47 494.997,110.468L495.405,110.468C506.148,110.52 511.468,112.454 516.844,114.403C518.07,114.848 519.301,115.294 520.596,115.717L520.596,124.184C519.353,123.775 518.166,123.344 516.977,122.913C511.6,120.962 506.165,118.996 495.366,118.949C495.229,118.948 495.092,118.948 494.956,118.948L494.936,118.948C484.421,118.948 479.043,120.839 473.72,122.716C471.864,123.37 470.014,124.022 467.949,124.594ZM462.579,116.775L462.579,44.85L520.596,44.85L520.596,115.184C519.367,114.779 518.193,114.353 517.018,113.927C511.641,111.975 506.207,110.008 495.407,109.962C495.27,109.961 495.133,109.961 494.997,109.961L494.978,109.961C484.462,109.961 479.083,111.852 473.761,113.729C470.438,114.899 467.136,116.064 462.579,116.775Z" style="fill:rgb(172,148,103);fill-rule:nonzero;"/>
            <path d="M462.579,117.288L462.579,116.775C467.136,116.064 470.438,114.899 473.761,113.729C479.083,111.852 484.462,109.961 494.978,109.961L494.997,109.961C495.133,109.961 495.27,109.961 495.407,109.962C506.207,110.008 511.641,111.975 517.018,113.927C518.193,114.353 519.367,114.779 520.596,115.184L520.596,115.717C519.301,115.294 518.07,114.848 516.844,114.403C511.468,112.454 506.148,110.52 495.405,110.468L494.997,110.468C484.525,110.47 479.256,112.331 473.93,114.207C470.588,115.385 467.224,116.57 462.579,117.288Z" style="fill:rgb(48,27,17);fill-rule:nonzero;"/>
            <path d="M520.596,124.594L520.219,124.594C519.046,124.203 517.924,123.796 516.804,123.39C511.427,121.441 506.107,119.507 495.364,119.456C495.227,119.455 495.091,119.454 494.956,119.454C484.484,119.457 479.215,121.318 473.889,123.194C472.539,123.67 471.185,124.147 469.745,124.594L467.949,124.594C470.014,124.022 471.864,123.37 473.72,122.716C479.043,120.839 484.421,118.948 494.936,118.948L494.956,118.948C495.092,118.948 495.229,118.948 495.366,118.949C506.165,118.996 511.6,120.962 516.977,122.913C518.166,123.344 519.353,123.775 520.596,124.184L520.596,124.594Z" style="fill:rgb(48,27,17);fill-rule:nonzero;"/>
        </g>
    </g>
</svg>
