<?xml version="1.0" encoding="UTF-8" standalone="no"?>
<!DOCTYPE svg PUBLIC "-//W3C//DTD SVG 1.1//EN" "http://www.w3.org/Graphics/SVG/1.1/DTD/svg11.dtd">
<svg width="100%" height="100%" viewBox="0 0 7420 7420" version="1.1" xmlns="http://www.w3.org/2000/svg" xmlns:xlink="http://www.w3.org/1999/xlink" xml:space="preserve" xmlns:serif="http://www.serif.com/" style="fill-rule:evenodd;clip-rule:evenodd;stroke-linejoin:round;stroke-miterlimit:2;">
    <g transform="matrix(2,0,0,2,0,0)">
        <g>
            <path id="background" d="M1682.02,3222.28C1639.16,3222.28 1596.95,3220.56 1555.52,3217.14C1399.5,3204.25 1085.58,3178.33 840.467,2947.01C630.391,2748.75 528.509,2454.04 520.145,2139.85C671.914,2791.54 1088.52,3024.3 1299.56,3102.05C1318.14,3125.51 1346.53,3140.85 1378.6,3141.9C1526.75,3146.74 1825.09,3155.61 2138.84,3159.77C1985.87,3201.66 1830.34,3222.28 1682.02,3222.28ZM3068.54,2472.17C3073.67,2052.92 3075.79,1514.43 3062.3,1090.4C3285.37,1449.57 3303.13,1945.13 3132.53,2343.07C3113.32,2387.87 3091.92,2430.91 3068.54,2472.17ZM804.966,1455.1C774.95,1398.89 747.32,1341.3 722.233,1284.82C770.943,1192.86 827.977,1106.24 892.857,1027.53C898.733,1020.4 908.138,1009.15 920.937,994.705C863.222,1161.84 825.911,1315.11 804.966,1455.1ZM1290.39,1284.52C1232.28,1116.87 1203.84,918.451 1190.06,753.59C1225.22,728.475 1263.2,703.482 1303.89,679.46C1300.4,823.132 1295.38,1038.67 1290.39,1284.52Z" style="fill:rgb(246,242,212);"/>
        </g>
    </g>
</svg>
