<?xml version="1.0" encoding="UTF-8" standalone="no"?>
<!DOCTYPE svg PUBLIC "-//W3C//DTD SVG 1.1//EN" "http://www.w3.org/Graphics/SVG/1.1/DTD/svg11.dtd">
<svg width="100%" height="100%" viewBox="0 0 7420 7420" version="1.1" xmlns="http://www.w3.org/2000/svg" xmlns:xlink="http://www.w3.org/1999/xlink" xml:space="preserve" xmlns:serif="http://www.serif.com/" style="fill-rule:evenodd;clip-rule:evenodd;stroke-linejoin:round;stroke-miterlimit:2;">
    <g transform="matrix(2,0,0,2,0,0)">
        <g>
            <g id="right-leaf">
                <path d="M1144.26,479.762C1152.67,463.456 1177.4,469.265 1177.58,487.608C1179.36,664.948 1198.57,1129.82 1344.69,1413.18C1582.6,1874.55 1645.2,2536.39 1344.81,2789.39C1344.81,2789.39 228.72,2256.45 1144.26,479.762Z" style="fill:rgb(189,208,251);fill-rule:nonzero;"/>
                <path d="M1273.12,2476.5C1258.24,2437.55 1244.57,2398.13 1231.8,2358.43C1208.28,2283.44 1189.14,2207.17 1172.02,2130.5C1139.4,1976.78 1117.7,1820.9 1104.54,1664.45C1097.8,1586.22 1093.65,1507.82 1090.6,1429.4C1087.62,1350.98 1086.31,1272.5 1087.2,1194.04C1087.98,1115.59 1089.93,1037.15 1094.01,958.81C1096.13,919.644 1098.6,880.5 1101.56,841.391C1103.11,821.841 1104.66,802.292 1106.51,782.763L1109.49,753.482L1111.15,738.842C1111.82,733.89 1112.24,729.274 1113.28,723.761C1113.56,722.28 1114.86,721.218 1116.34,721.218C1116.48,721.218 1116.63,721.228 1116.77,721.248C1118.48,721.486 1119.67,723.063 1119.43,724.771L1119.34,725.472C1118.76,729.622 1118.33,734.771 1117.87,739.546L1116.68,754.151L1114.61,783.417L1111.08,842.01C1109.04,881.094 1107.48,920.204 1106.27,959.321C1103.74,1037.55 1102.59,1115.82 1103.02,1194.07C1104.22,1350.54 1109.69,1507.03 1123.5,1662.83C1130.74,1740.68 1138.4,1818.51 1149.28,1895.93C1160.18,1973.32 1172.84,2050.49 1188.57,2127.03C1204.34,2203.54 1222.12,2279.71 1244.28,2354.65C1253.32,2385.56 1262.98,2416.28 1273.29,2446.79C1273.23,2456.76 1273.17,2466.64 1273.12,2476.5Z" style="fill:rgb(217,228,253);fill-rule:nonzero;"/>
            </g>
        </g>
    </g>
</svg>
