<?xml version="1.0" encoding="UTF-8" standalone="no"?>
<!DOCTYPE svg PUBLIC "-//W3C//DTD SVG 1.1//EN" "http://www.w3.org/Graphics/SVG/1.1/DTD/svg11.dtd">
<svg width="100%" height="100%" viewBox="0 0 7346 4286" version="1.1" xmlns="http://www.w3.org/2000/svg" xmlns:xlink="http://www.w3.org/1999/xlink" xml:space="preserve" xmlns:serif="http://www.serif.com/" style="fill-rule:evenodd;clip-rule:evenodd;stroke-linejoin:round;stroke-miterlimit:2;">
    <g transform="matrix(1,0,0,1,-3348.79,-2824.01)">
        <g transform="matrix(218.989,0,0,213.815,-97500.8,-27421.2)">
            <rect x="460.506" y="141.687" width="33.562" height="19.577" style="fill:rgb(58,147,68);"/>
            <path d="M465.682,151.475L477.287,158.887L488.898,151.475L477.287,144.063L465.682,151.475Z" style="fill:rgb(237,193,35);fill-rule:nonzero;"/>
            <path d="M482.18,151.475C482.18,154.177 479.99,156.368 477.287,156.368C474.586,156.368 472.396,154.177 472.396,151.475C472.396,148.774 474.586,146.579 477.287,146.579C479.99,146.579 482.18,148.774 482.18,151.475Z" style="fill:rgb(48,38,108);fill-rule:nonzero;"/>
            <path d="M474.492,149.376C473.918,149.376 473.357,149.419 472.809,149.495C472.703,149.735 472.617,149.985 472.549,150.243C473.18,150.135 473.828,150.076 474.492,150.076C477.359,150.076 479.98,151.158 481.959,152.937C482.039,152.686 482.098,152.426 482.133,152.162C480.066,150.424 477.402,149.376 474.492,149.376Z" style="fill:white;fill-rule:nonzero;"/>
            <path d="M473.104,149.958C473.168,149.949 473.215,149.877 473.207,149.797C473.197,149.716 473.137,149.658 473.066,149.667C472.998,149.675 472.951,149.746 472.961,149.827C472.973,149.908 473.035,149.966 473.104,149.958ZM473.113,150.043C473.227,150.029 473.309,149.915 473.291,149.787C473.277,149.66 473.172,149.567 473.057,149.582C472.939,149.594 472.859,149.711 472.879,149.838C472.893,149.966 472.998,150.058 473.113,150.043Z" style="fill:rgb(58,147,68);"/>
            <path d="M473.561,149.737L473.74,149.726C473.773,149.722 473.795,149.693 473.795,149.66C473.791,149.626 473.766,149.602 473.734,149.605L473.553,149.615L473.561,149.737ZM473.494,150.003L473.578,149.995L473.566,149.823L473.756,149.811C473.832,149.805 473.893,149.734 473.891,149.653C473.883,149.573 473.813,149.512 473.734,149.518L473.465,149.536L473.494,150.003Z" style="fill:rgb(58,147,68);"/>
            <path d="M473.887,149.975C473.883,149.908 473.875,149.763 473.773,149.768L473.646,149.776C473.791,149.768 473.803,149.915 473.811,149.979" style="fill:rgb(58,147,68);fill-rule:nonzero;"/>
            <path d="M474.168,149.877L474.295,149.874C474.365,149.873 474.422,149.814 474.418,149.746L474.418,149.704C474.418,149.638 474.361,149.582 474.293,149.582L474.164,149.585L474.168,149.877ZM474.086,149.966L474.303,149.961C474.416,149.96 474.502,149.869 474.502,149.757L474.498,149.69C474.496,149.582 474.404,149.492 474.295,149.494L474.078,149.499L474.086,149.966Z" style="fill:rgb(58,147,68);"/>
            <path d="M474.672,149.96L475.094,149.975L475.098,149.887L474.76,149.875L474.764,149.757L475.031,149.764L475.031,149.685L474.768,149.675L474.768,149.583L475.09,149.594L475.09,149.506L474.691,149.492L474.672,149.96Z" style="fill:rgb(58,147,68);fill-rule:nonzero;"/>
            <path d="M475.268,149.984L475.348,149.991L475.375,149.673L475.438,149.999L475.514,150.006L475.633,149.695L475.605,150.014L475.684,150.021L475.725,149.556L475.611,149.546L475.488,149.856L475.424,149.529L475.307,149.52L475.268,149.984Z" style="fill:rgb(58,147,68);fill-rule:nonzero;"/>
            <path d="M476.23,150.093L476.58,150.151L476.59,150.073L476.326,150.028L476.344,149.924L476.563,149.961L476.572,149.881L476.359,149.845L476.369,149.771L476.627,149.816L476.637,149.737L476.305,149.679L476.23,150.093Z" style="fill:rgb(58,147,68);fill-rule:nonzero;"/>
            <path d="M477.27,150.036L477.441,150.082C477.475,150.091 477.504,150.071 477.512,150.039C477.521,150.007 477.5,149.975 477.471,149.966L477.297,149.921L477.27,150.036ZM477.117,150.267L477.199,150.289L477.246,150.122L477.424,150.167C477.504,150.188 477.584,150.141 477.605,150.063C477.623,149.984 477.576,149.905 477.5,149.883L477.242,149.816L477.117,150.267Z" style="fill:rgb(58,147,68);"/>
            <path d="M477.852,150.197L478.023,150.252C478.051,150.261 478.088,150.245 478.098,150.212C478.109,150.18 478.092,150.148 478.059,150.138L477.889,150.083L477.852,150.197ZM477.689,150.419L477.773,150.444L477.826,150.28L478,150.336C478.08,150.36 478.16,150.317 478.186,150.241C478.211,150.164 478.168,150.082 478.092,150.058L477.834,149.977L477.689,150.419Z" style="fill:rgb(58,147,68);"/>
            <path d="M478.066,150.538C478.088,150.475 478.131,150.336 478.037,150.306L477.918,150.267C478.055,150.312 478.012,150.45 477.99,150.515" style="fill:rgb(58,147,68);fill-rule:nonzero;"/>
            <path d="M478.479,150.594C478.545,150.62 478.617,150.575 478.646,150.5C478.676,150.424 478.646,150.344 478.584,150.319C478.52,150.297 478.443,150.338 478.414,150.414C478.385,150.489 478.418,150.57 478.479,150.594ZM478.449,150.676C478.559,150.715 478.682,150.651 478.727,150.531C478.773,150.41 478.723,150.279 478.613,150.239C478.504,150.197 478.377,150.263 478.334,150.382C478.287,150.504 478.342,150.634 478.449,150.676Z" style="fill:rgb(58,147,68);"/>
            <path d="M479.033,150.817C479.096,150.847 479.172,150.807 479.203,150.732C479.236,150.658 479.211,150.575 479.15,150.548C479.088,150.521 479.012,150.559 478.98,150.634C478.947,150.708 478.969,150.791 479.033,150.817ZM478.998,150.897C479.104,150.943 479.234,150.884 479.285,150.768C479.334,150.648 479.291,150.517 479.184,150.47C479.078,150.424 478.951,150.48 478.9,150.6C478.85,150.718 478.893,150.852 478.998,150.897Z" style="fill:rgb(58,147,68);"/>
            <path d="M479.121,150.696L479.285,150.768L479.254,150.828L479.096,150.756L479.121,150.696Z" style="fill:rgb(58,147,68);fill-rule:nonzero;"/>
            <path d="M479.223,150.739L479.285,150.768L479.189,150.98L479.133,150.953L479.223,150.739Z" style="fill:rgb(58,147,68);fill-rule:nonzero;"/>
            <path d="M479.541,150.86L479.701,150.939C479.73,150.955 479.766,150.943 479.781,150.913C479.795,150.884 479.785,150.848 479.756,150.833L479.592,150.753L479.541,150.86ZM479.35,151.054L479.426,151.092L479.502,150.936L479.668,151.021C479.74,151.057 479.828,151.026 479.863,150.955C479.9,150.882 479.871,150.794 479.799,150.759L479.563,150.64L479.35,151.054Z" style="fill:rgb(58,147,68);"/>
            <path d="M479.701,151.23C479.73,151.171 479.795,151.04 479.707,150.995L479.592,150.937C479.727,151.004 479.66,151.135 479.633,151.193" style="fill:rgb(58,147,68);fill-rule:nonzero;"/>
            <path d="M479.875,151.322L480.242,151.528L480.281,151.453L479.988,151.286L480.045,151.182L480.277,151.313L480.316,151.241L480.086,151.112L480.133,151.029L480.408,151.188L480.455,151.112L480.104,150.915L479.875,151.322Z" style="fill:rgb(58,147,68);fill-rule:nonzero;"/>
            <path d="M480.557,151.55C480.531,151.588 480.557,151.633 480.611,151.669C480.668,151.704 480.705,151.702 480.723,151.679C480.773,151.597 480.48,151.48 480.57,151.342C480.646,151.222 480.781,151.314 480.832,151.347C480.883,151.379 480.963,151.463 480.9,151.559L480.814,151.503C480.844,151.463 480.814,151.421 480.766,151.396C480.723,151.364 480.688,151.352 480.662,151.396C480.617,151.459 480.908,151.58 480.816,151.721C480.756,151.823 480.641,151.777 480.566,151.73C480.498,151.688 480.404,151.591 480.465,151.494L480.557,151.55Z" style="fill:rgb(58,147,68);fill-rule:nonzero;"/>
            <path d="M481.057,151.88C481.027,151.917 481.049,151.963 481.104,152.002C481.158,152.041 481.199,152.043 481.217,152.018C481.27,151.941 480.98,151.808 481.082,151.674C481.166,151.558 481.297,151.658 481.344,151.691C481.395,151.728 481.467,151.815 481.398,151.907L481.318,151.848C481.344,151.808 481.318,151.767 481.273,151.734C481.23,151.704 481.201,151.69 481.172,151.73C481.125,151.792 481.404,151.931 481.311,152.064C481.238,152.164 481.125,152.113 481.057,152.061C480.992,152.016 480.9,151.914 480.969,151.819L481.057,151.88Z" style="fill:rgb(58,147,68);fill-rule:nonzero;"/>
            <path d="M481.582,152.348C481.637,152.393 481.721,152.375 481.771,152.311C481.822,152.247 481.814,152.162 481.764,152.12C481.709,152.076 481.629,152.093 481.578,152.157C481.523,152.221 481.527,152.307 481.582,152.348ZM481.527,152.417C481.619,152.489 481.756,152.466 481.836,152.365C481.916,152.264 481.908,152.124 481.818,152.053C481.727,151.979 481.59,152.003 481.51,152.104C481.43,152.205 481.438,152.345 481.527,152.417Z" style="fill:rgb(58,147,68);"/>
            <path d="M473.291,150.386L473.227,150.585L473.328,150.618L473.291,150.386Z" style="fill:white;fill-rule:nonzero;"/>
            <path d="M473.291,150.386L473.357,150.585L473.258,150.618L473.291,150.386Z" style="fill:white;fill-rule:nonzero;"/>
            <path d="M473.49,150.531L473.281,150.531L473.281,150.634L473.49,150.531Z" style="fill:white;fill-rule:nonzero;"/>
            <path d="M473.49,150.531L473.324,150.653L473.258,150.569L473.49,150.531Z" style="fill:white;fill-rule:nonzero;"/>
            <path d="M473.092,150.531L473.262,150.653L473.324,150.569L473.092,150.531Z" style="fill:white;fill-rule:nonzero;"/>
            <path d="M473.092,150.531L473.303,150.531L473.303,150.634L473.092,150.531Z" style="fill:white;fill-rule:nonzero;"/>
            <path d="M473.414,150.765L473.35,150.565L473.252,150.599L473.414,150.765Z" style="fill:white;fill-rule:nonzero;"/>
            <path d="M473.414,150.765L473.244,150.641L473.307,150.556L473.414,150.765Z" style="fill:white;fill-rule:nonzero;"/>
            <path d="M473.168,150.765L473.338,150.641L473.277,150.556L473.168,150.765Z" style="fill:white;fill-rule:nonzero;"/>
            <path d="M473.168,150.765L473.234,150.565L473.336,150.599L473.168,150.765Z" style="fill:white;fill-rule:nonzero;"/>
            <path d="M473.727,152.443L473.66,152.642L473.762,152.674L473.727,152.443Z" style="fill:white;fill-rule:nonzero;"/>
            <path d="M473.727,152.443L473.789,152.642L473.691,152.674L473.727,152.443Z" style="fill:white;fill-rule:nonzero;"/>
            <path d="M473.922,152.588L473.715,152.588L473.715,152.693L473.922,152.588Z" style="fill:white;fill-rule:nonzero;"/>
            <path d="M473.922,152.588L473.756,152.712L473.693,152.625L473.922,152.588Z" style="fill:white;fill-rule:nonzero;"/>
            <path d="M473.527,152.588L473.693,152.712L473.76,152.625L473.527,152.588Z" style="fill:white;fill-rule:nonzero;"/>
            <path d="M473.527,152.588L473.738,152.588L473.738,152.693L473.527,152.588Z" style="fill:white;fill-rule:nonzero;"/>
            <path d="M473.85,152.823L473.785,152.624L473.684,152.656L473.85,152.823Z" style="fill:white;fill-rule:nonzero;"/>
            <path d="M473.85,152.823L473.68,152.698L473.74,152.615L473.85,152.823Z" style="fill:white;fill-rule:nonzero;"/>
            <path d="M473.6,152.823L473.773,152.698L473.709,152.615L473.6,152.823Z" style="fill:white;fill-rule:nonzero;"/>
            <path d="M473.6,152.823L473.664,152.624L473.766,152.656L473.6,152.823Z" style="fill:white;fill-rule:nonzero;"/>
            <path d="M473.125,152.951L473.086,153.086L473.15,153.107L473.125,152.951Z" style="fill:white;fill-rule:nonzero;"/>
            <path d="M473.125,152.951L473.168,153.086L473.104,153.107L473.125,152.951Z" style="fill:white;fill-rule:nonzero;"/>
            <path d="M473.258,153.049L473.117,153.049L473.117,153.119L473.258,153.049Z" style="fill:white;fill-rule:nonzero;"/>
            <path d="M473.258,153.049L473.146,153.132L473.105,153.075L473.258,153.049Z" style="fill:white;fill-rule:nonzero;"/>
            <path d="M472.994,153.049L473.105,153.132L473.146,153.075L472.994,153.049Z" style="fill:white;fill-rule:nonzero;"/>
            <path d="M472.994,153.049L473.133,153.049L473.133,153.119L472.994,153.049Z" style="fill:white;fill-rule:nonzero;"/>
            <path d="M473.207,153.205L473.164,153.072L473.1,153.095L473.207,153.205Z" style="fill:white;fill-rule:nonzero;"/>
            <path d="M473.207,153.205L473.096,153.123L473.137,153.065L473.207,153.205Z" style="fill:white;fill-rule:nonzero;"/>
            <path d="M473.045,153.205L473.156,153.123L473.117,153.065L473.045,153.205Z" style="fill:white;fill-rule:nonzero;"/>
            <path d="M473.045,153.205L473.086,153.072L473.15,153.095L473.045,153.205Z" style="fill:white;fill-rule:nonzero;"/>
            <path d="M474.205,152.253L474.172,152.347L474.219,152.364L474.205,152.253Z" style="fill:white;fill-rule:nonzero;"/>
            <path d="M474.205,152.253L474.234,152.347L474.188,152.364L474.205,152.253Z" style="fill:white;fill-rule:nonzero;"/>
            <path d="M474.299,152.323L474.201,152.323L474.201,152.372L474.299,152.323Z" style="fill:white;fill-rule:nonzero;"/>
            <path d="M474.299,152.323L474.219,152.382L474.191,152.341L474.299,152.323Z" style="fill:white;fill-rule:nonzero;"/>
            <path d="M474.107,152.323L474.191,152.382L474.219,152.341L474.107,152.323Z" style="fill:white;fill-rule:nonzero;"/>
            <path d="M474.107,152.323L474.209,152.323L474.209,152.372L474.107,152.323Z" style="fill:white;fill-rule:nonzero;"/>
            <path d="M474.264,152.435L474.23,152.338L474.188,152.354L474.264,152.435Z" style="fill:white;fill-rule:nonzero;"/>
            <path d="M474.264,152.435L474.184,152.375L474.213,152.334L474.264,152.435Z" style="fill:white;fill-rule:nonzero;"/>
            <path d="M474.146,152.435L474.227,152.375L474.197,152.334L474.146,152.435Z" style="fill:white;fill-rule:nonzero;"/>
            <path d="M474.146,152.435L474.176,152.338L474.223,152.354L474.146,152.435Z" style="fill:white;fill-rule:nonzero;"/>
            <path d="M474.746,152.964L474.691,153.131L474.77,153.159L474.746,152.964Z" style="fill:white;fill-rule:nonzero;"/>
            <path d="M474.746,152.964L474.797,153.131L474.717,153.159L474.746,152.964Z" style="fill:white;fill-rule:nonzero;"/>
            <path d="M474.908,153.086L474.734,153.086L474.734,153.172L474.908,153.086Z" style="fill:white;fill-rule:nonzero;"/>
            <path d="M474.908,153.086L474.768,153.188L474.717,153.116L474.908,153.086Z" style="fill:white;fill-rule:nonzero;"/>
            <path d="M474.578,153.086L474.719,153.188L474.77,153.116L474.578,153.086Z" style="fill:white;fill-rule:nonzero;"/>
            <path d="M474.578,153.086L474.752,153.086L474.752,153.172L474.578,153.086Z" style="fill:white;fill-rule:nonzero;"/>
            <path d="M474.848,153.278L474.793,153.114L474.709,153.142L474.848,153.278Z" style="fill:white;fill-rule:nonzero;"/>
            <path d="M474.848,153.278L474.705,153.177L474.756,153.107L474.848,153.278Z" style="fill:white;fill-rule:nonzero;"/>
            <path d="M474.645,153.278L474.781,153.177L474.73,153.107L474.645,153.278Z" style="fill:white;fill-rule:nonzero;"/>
            <path d="M474.645,153.278L474.695,153.114L474.777,153.142L474.645,153.278Z" style="fill:white;fill-rule:nonzero;"/>
            <path d="M474.598,153.45L474.543,153.617L474.625,153.645L474.598,153.45Z" style="fill:white;fill-rule:nonzero;"/>
            <path d="M474.598,153.45L474.65,153.617L474.568,153.645L474.598,153.45Z" style="fill:white;fill-rule:nonzero;"/>
            <path d="M474.764,153.572L474.59,153.572L474.59,153.657L474.764,153.572Z" style="fill:white;fill-rule:nonzero;"/>
            <path d="M474.764,153.572L474.621,153.675L474.57,153.604L474.764,153.572Z" style="fill:white;fill-rule:nonzero;"/>
            <path d="M474.434,153.572L474.574,153.675L474.625,153.604L474.434,153.572Z" style="fill:white;fill-rule:nonzero;"/>
            <path d="M474.434,153.572L474.607,153.572L474.607,153.657L474.434,153.572Z" style="fill:white;fill-rule:nonzero;"/>
            <path d="M474.699,153.767L474.648,153.6L474.564,153.627L474.699,153.767Z" style="fill:white;fill-rule:nonzero;"/>
            <path d="M474.699,153.767L474.557,153.662L474.611,153.594L474.699,153.767Z" style="fill:white;fill-rule:nonzero;"/>
            <path d="M474.496,153.767L474.637,153.662L474.586,153.594L474.496,153.767Z" style="fill:white;fill-rule:nonzero;"/>
            <path d="M474.496,153.767L474.549,153.6L474.633,153.627L474.496,153.767Z" style="fill:white;fill-rule:nonzero;"/>
            <path d="M478.805,149.746L478.74,149.946L478.842,149.978L478.805,149.746Z" style="fill:white;fill-rule:nonzero;"/>
            <path d="M478.805,149.746L478.871,149.946L478.77,149.978L478.805,149.746Z" style="fill:white;fill-rule:nonzero;"/>
            <path d="M479.004,149.891L478.795,149.891L478.795,149.997L479.004,149.891Z" style="fill:white;fill-rule:nonzero;"/>
            <path d="M479.004,149.891L478.834,150.015L478.773,149.929L479.004,149.891Z" style="fill:white;fill-rule:nonzero;"/>
            <path d="M478.605,149.891L478.777,150.015L478.838,149.929L478.605,149.891Z" style="fill:white;fill-rule:nonzero;"/>
            <path d="M478.605,149.891L478.816,149.891L478.816,149.997L478.605,149.891Z" style="fill:white;fill-rule:nonzero;"/>
            <path d="M478.93,150.127L478.863,149.927L478.766,149.96L478.93,150.127Z" style="fill:white;fill-rule:nonzero;"/>
            <path d="M478.93,150.127L478.758,150.003L478.82,149.917L478.93,150.127Z" style="fill:white;fill-rule:nonzero;"/>
            <path d="M478.682,150.127L478.852,150.003L478.791,149.917L478.682,150.127Z" style="fill:white;fill-rule:nonzero;"/>
            <path d="M478.682,150.127L478.748,149.927L478.85,149.96L478.682,150.127Z" style="fill:white;fill-rule:nonzero;"/>
            <path d="M480.715,152.983L480.65,153.183L480.752,153.216L480.715,152.983Z" style="fill:white;fill-rule:nonzero;"/>
            <path d="M480.715,152.983L480.781,153.183L480.684,153.216L480.715,152.983Z" style="fill:white;fill-rule:nonzero;"/>
            <path d="M480.916,153.128L480.705,153.128L480.705,153.231L480.916,153.128Z" style="fill:white;fill-rule:nonzero;"/>
            <path d="M480.916,153.128L480.748,153.251L480.684,153.165L480.916,153.128Z" style="fill:white;fill-rule:nonzero;"/>
            <path d="M480.516,153.128L480.688,153.251L480.748,153.165L480.516,153.128Z" style="fill:white;fill-rule:nonzero;"/>
            <path d="M480.516,153.128L480.727,153.128L480.727,153.231L480.516,153.128Z" style="fill:white;fill-rule:nonzero;"/>
            <path d="M480.844,153.362L480.777,153.163L480.676,153.194L480.844,153.362Z" style="fill:white;fill-rule:nonzero;"/>
            <path d="M480.844,153.362L480.672,153.239L480.734,153.153L480.844,153.362Z" style="fill:white;fill-rule:nonzero;"/>
            <path d="M480.594,153.362L480.764,153.239L480.701,153.153L480.594,153.362Z" style="fill:white;fill-rule:nonzero;"/>
            <path d="M480.594,153.362L480.658,153.163L480.76,153.194L480.594,153.362Z" style="fill:white;fill-rule:nonzero;"/>
            <path d="M481.398,153.1L481.352,153.231L481.422,153.253L481.398,153.1Z" style="fill:white;fill-rule:nonzero;"/>
            <path d="M481.398,153.1L481.441,153.231L481.371,153.253L481.398,153.1Z" style="fill:white;fill-rule:nonzero;"/>
            <path d="M481.527,153.196L481.391,153.196L481.391,153.265L481.527,153.196Z" style="fill:white;fill-rule:nonzero;"/>
            <path d="M481.527,153.196L481.416,153.278L481.375,153.221L481.527,153.196Z" style="fill:white;fill-rule:nonzero;"/>
            <path d="M481.264,153.196L481.375,153.278L481.42,153.221L481.264,153.196Z" style="fill:white;fill-rule:nonzero;"/>
            <path d="M481.264,153.196L481.404,153.196L481.404,153.265L481.264,153.196Z" style="fill:white;fill-rule:nonzero;"/>
            <path d="M481.477,153.352L481.438,153.218L481.369,153.241L481.477,153.352Z" style="fill:white;fill-rule:nonzero;"/>
            <path d="M481.477,153.352L481.365,153.27L481.408,153.212L481.477,153.352Z" style="fill:white;fill-rule:nonzero;"/>
            <path d="M481.314,153.352L481.426,153.27L481.387,153.212L481.314,153.352Z" style="fill:white;fill-rule:nonzero;"/>
            <path d="M481.314,153.352L481.357,153.218L481.422,153.241L481.314,153.352Z" style="fill:white;fill-rule:nonzero;"/>
            <path d="M480.916,153.45L480.865,153.617L480.945,153.645L480.916,153.45Z" style="fill:white;fill-rule:nonzero;"/>
            <path d="M480.916,153.45L480.969,153.617L480.891,153.645L480.916,153.45Z" style="fill:white;fill-rule:nonzero;"/>
            <path d="M481.082,153.572L480.908,153.572L480.908,153.657L481.082,153.572Z" style="fill:white;fill-rule:nonzero;"/>
            <path d="M481.082,153.572L480.945,153.675L480.891,153.604L481.082,153.572Z" style="fill:white;fill-rule:nonzero;"/>
            <path d="M480.752,153.572L480.895,153.675L480.945,153.604L480.752,153.572Z" style="fill:white;fill-rule:nonzero;"/>
            <path d="M480.752,153.572L480.926,153.572L480.926,153.657L480.752,153.572Z" style="fill:white;fill-rule:nonzero;"/>
            <path d="M481.02,153.767L480.967,153.6L480.883,153.627L481.02,153.767Z" style="fill:white;fill-rule:nonzero;"/>
            <path d="M481.02,153.767L480.879,153.662L480.93,153.594L481.02,153.767Z" style="fill:white;fill-rule:nonzero;"/>
            <path d="M480.814,153.767L480.955,153.662L480.904,153.594L480.814,153.767Z" style="fill:white;fill-rule:nonzero;"/>
            <path d="M480.814,153.767L480.867,153.6L480.951,153.627L480.814,153.767Z" style="fill:white;fill-rule:nonzero;"/>
            <path d="M479.738,154.476L479.684,154.641L479.766,154.669L479.738,154.476Z" style="fill:white;fill-rule:nonzero;"/>
            <path d="M479.738,154.476L479.791,154.641L479.707,154.669L479.738,154.476Z" style="fill:white;fill-rule:nonzero;"/>
            <path d="M479.904,154.598L479.73,154.598L479.73,154.686L479.904,154.598Z" style="fill:white;fill-rule:nonzero;"/>
            <path d="M479.904,154.598L479.762,154.699L479.711,154.628L479.904,154.598Z" style="fill:white;fill-rule:nonzero;"/>
            <path d="M479.574,154.598L479.715,154.699L479.762,154.628L479.574,154.598Z" style="fill:white;fill-rule:nonzero;"/>
            <path d="M479.574,154.598L479.748,154.598L479.748,154.686L479.574,154.598Z" style="fill:white;fill-rule:nonzero;"/>
            <path d="M479.838,154.792L479.789,154.626L479.701,154.652L479.838,154.792Z" style="fill:white;fill-rule:nonzero;"/>
            <path d="M479.838,154.792L479.697,154.688L479.748,154.619L479.838,154.792Z" style="fill:white;fill-rule:nonzero;"/>
            <path d="M479.637,154.792L479.777,154.688L479.727,154.619L479.637,154.792Z" style="fill:white;fill-rule:nonzero;"/>
            <path d="M479.637,154.792L479.689,154.626L479.773,154.652L479.637,154.792Z" style="fill:white;fill-rule:nonzero;"/>
            <path d="M479.73,155.005L479.689,155.136L479.756,155.158L479.73,155.005Z" style="fill:white;fill-rule:nonzero;"/>
            <path d="M479.73,155.005L479.773,155.136L479.707,155.158L479.73,155.005Z" style="fill:white;fill-rule:nonzero;"/>
            <path d="M479.863,155.102L479.727,155.102L479.727,155.171L479.863,155.102Z" style="fill:white;fill-rule:nonzero;"/>
            <path d="M479.863,155.102L479.748,155.182L479.707,155.126L479.863,155.102Z" style="fill:white;fill-rule:nonzero;"/>
            <path d="M479.6,155.102L479.711,155.182L479.752,155.126L479.6,155.102Z" style="fill:white;fill-rule:nonzero;"/>
            <path d="M479.6,155.102L479.738,155.102L479.738,155.171L479.6,155.102Z" style="fill:white;fill-rule:nonzero;"/>
            <path d="M479.813,155.255L479.77,155.125L479.701,155.145L479.813,155.255Z" style="fill:white;fill-rule:nonzero;"/>
            <path d="M479.813,155.255L479.697,155.175L479.74,155.118L479.813,155.255Z" style="fill:white;fill-rule:nonzero;"/>
            <path d="M479.65,155.255L479.762,155.175L479.719,155.118L479.65,155.255Z" style="fill:white;fill-rule:nonzero;"/>
            <path d="M479.65,155.255L479.693,155.125L479.758,155.145L479.65,155.255Z" style="fill:white;fill-rule:nonzero;"/>
            <path d="M480.227,154.124L480.18,154.258L480.244,154.279L480.227,154.124Z" style="fill:white;fill-rule:nonzero;"/>
            <path d="M480.227,154.124L480.266,154.258L480.201,154.279L480.227,154.124Z" style="fill:white;fill-rule:nonzero;"/>
            <path d="M480.357,154.221L480.215,154.221L480.215,154.291L480.357,154.221Z" style="fill:white;fill-rule:nonzero;"/>
            <path d="M480.357,154.221L480.244,154.305L480.201,154.249L480.357,154.221Z" style="fill:white;fill-rule:nonzero;"/>
            <path d="M480.092,154.221L480.205,154.305L480.244,154.249L480.092,154.221Z" style="fill:white;fill-rule:nonzero;"/>
            <path d="M480.092,154.221L480.234,154.221L480.234,154.291L480.092,154.221Z" style="fill:white;fill-rule:nonzero;"/>
            <path d="M480.307,154.377L480.262,154.245L480.197,154.267L480.307,154.377Z" style="fill:white;fill-rule:nonzero;"/>
            <path d="M480.307,154.377L480.193,154.296L480.238,154.239L480.307,154.377Z" style="fill:white;fill-rule:nonzero;"/>
            <path d="M480.143,154.377L480.256,154.296L480.215,154.239L480.143,154.377Z" style="fill:white;fill-rule:nonzero;"/>
            <path d="M480.143,154.377L480.188,154.245L480.252,154.267L480.143,154.377Z" style="fill:white;fill-rule:nonzero;"/>
            <path d="M480.617,153.844L480.564,154.009L480.645,154.036L480.617,153.844Z" style="fill:white;fill-rule:nonzero;"/>
            <path d="M480.617,153.844L480.672,154.009L480.586,154.036L480.617,153.844Z" style="fill:white;fill-rule:nonzero;"/>
            <path d="M480.781,153.965L480.607,153.965L480.607,154.051L480.781,153.965Z" style="fill:white;fill-rule:nonzero;"/>
            <path d="M480.781,153.965L480.645,154.067L480.594,153.995L480.781,153.965Z" style="fill:white;fill-rule:nonzero;"/>
            <path d="M480.451,153.965L480.594,154.067L480.645,153.995L480.451,153.965Z" style="fill:white;fill-rule:nonzero;"/>
            <path d="M480.451,153.965L480.625,153.965L480.625,154.051L480.451,153.965Z" style="fill:white;fill-rule:nonzero;"/>
            <path d="M480.719,154.157L480.668,153.994L480.582,154.021L480.719,154.157Z" style="fill:white;fill-rule:nonzero;"/>
            <path d="M480.719,154.157L480.578,154.056L480.629,153.985L480.719,154.157Z" style="fill:white;fill-rule:nonzero;"/>
            <path d="M480.514,154.157L480.658,154.056L480.604,153.985L480.514,154.157Z" style="fill:white;fill-rule:nonzero;"/>
            <path d="M480.514,154.157L480.57,153.994L480.65,154.021L480.514,154.157Z" style="fill:white;fill-rule:nonzero;"/>
            <path d="M479.715,154.031L479.676,154.164L479.74,154.187L479.715,154.031Z" style="fill:white;fill-rule:nonzero;"/>
            <path d="M479.715,154.031L479.762,154.164L479.693,154.187L479.715,154.031Z" style="fill:white;fill-rule:nonzero;"/>
            <path d="M479.854,154.129L479.711,154.129L479.711,154.198L479.854,154.129Z" style="fill:white;fill-rule:nonzero;"/>
            <path d="M479.854,154.129L479.738,154.21L479.697,154.152L479.854,154.129Z" style="fill:white;fill-rule:nonzero;"/>
            <path d="M479.586,154.129L479.697,154.21L479.738,154.152L479.586,154.129Z" style="fill:white;fill-rule:nonzero;"/>
            <path d="M479.586,154.129L479.727,154.129L479.727,154.198L479.586,154.129Z" style="fill:white;fill-rule:nonzero;"/>
            <path d="M479.803,154.286L479.758,154.151L479.689,154.172L479.803,154.286Z" style="fill:white;fill-rule:nonzero;"/>
            <path d="M479.803,154.286L479.688,154.201L479.727,154.147L479.803,154.286Z" style="fill:white;fill-rule:nonzero;"/>
            <path d="M479.637,154.286L479.748,154.201L479.707,154.147L479.637,154.286Z" style="fill:white;fill-rule:nonzero;"/>
            <path d="M479.637,154.286L479.68,154.151L479.748,154.172L479.637,154.286Z" style="fill:white;fill-rule:nonzero;"/>
            <path d="M475.424,151.5L475.369,151.665L475.453,151.691L475.424,151.5Z" style="fill:white;fill-rule:nonzero;"/>
            <path d="M475.424,151.5L475.477,151.665L475.395,151.691L475.424,151.5Z" style="fill:white;fill-rule:nonzero;"/>
            <path d="M475.59,151.62L475.416,151.62L475.416,151.707L475.59,151.62Z" style="fill:white;fill-rule:nonzero;"/>
            <path d="M475.59,151.62L475.449,151.725L475.398,151.652L475.59,151.62Z" style="fill:white;fill-rule:nonzero;"/>
            <path d="M475.256,151.62L475.398,151.725L475.449,151.652L475.256,151.62Z" style="fill:white;fill-rule:nonzero;"/>
            <path d="M475.256,151.62L475.43,151.62L475.43,151.707L475.256,151.62Z" style="fill:white;fill-rule:nonzero;"/>
            <path d="M475.525,151.815L475.475,151.65L475.391,151.677L475.525,151.815Z" style="fill:white;fill-rule:nonzero;"/>
            <path d="M475.525,151.815L475.383,151.713L475.434,151.642L475.525,151.815Z" style="fill:white;fill-rule:nonzero;"/>
            <path d="M475.318,151.815L475.463,151.713L475.412,151.642L475.318,151.815Z" style="fill:white;fill-rule:nonzero;"/>
            <path d="M475.318,151.815L475.375,151.65L475.455,151.677L475.318,151.815Z" style="fill:white;fill-rule:nonzero;"/>
            <path d="M478.617,151.087L478.578,151.221L478.643,151.241L478.617,151.087Z" style="fill:white;fill-rule:nonzero;"/>
            <path d="M478.617,151.087L478.664,151.221L478.596,151.241L478.617,151.087Z" style="fill:white;fill-rule:nonzero;"/>
            <path d="M478.754,151.186L478.613,151.186L478.613,151.254L478.754,151.186Z" style="fill:white;fill-rule:nonzero;"/>
            <path d="M478.754,151.186L478.639,151.268L478.6,151.211L478.754,151.186Z" style="fill:white;fill-rule:nonzero;"/>
            <path d="M478.486,151.186L478.6,151.268L478.639,151.211L478.486,151.186Z" style="fill:white;fill-rule:nonzero;"/>
            <path d="M478.486,151.186L478.629,151.186L478.629,151.254L478.486,151.186Z" style="fill:white;fill-rule:nonzero;"/>
            <path d="M478.703,151.342L478.656,151.208L478.592,151.23L478.703,151.342Z" style="fill:white;fill-rule:nonzero;"/>
            <path d="M478.703,151.342L478.588,151.258L478.629,151.201L478.703,151.342Z" style="fill:white;fill-rule:nonzero;"/>
            <path d="M478.537,151.342L478.65,151.258L478.609,151.201L478.537,151.342Z" style="fill:white;fill-rule:nonzero;"/>
            <path d="M478.537,151.342L478.58,151.208L478.646,151.23L478.537,151.342Z" style="fill:white;fill-rule:nonzero;"/>
            <path d="M477.287,153.462L477.221,153.661L477.322,153.694L477.287,153.462Z" style="fill:white;fill-rule:nonzero;"/>
            <path d="M477.287,153.462L477.352,153.661L477.254,153.694L477.287,153.462Z" style="fill:white;fill-rule:nonzero;"/>
            <path d="M477.486,153.606L477.279,153.606L477.279,153.712L477.486,153.606Z" style="fill:white;fill-rule:nonzero;"/>
            <path d="M477.486,153.606L477.318,153.731L477.258,153.645L477.486,153.606Z" style="fill:white;fill-rule:nonzero;"/>
            <path d="M477.088,153.606L477.262,153.731L477.318,153.645L477.088,153.606Z" style="fill:white;fill-rule:nonzero;"/>
            <path d="M477.088,153.606L477.297,153.606L477.297,153.712L477.088,153.606Z" style="fill:white;fill-rule:nonzero;"/>
            <path d="M477.41,153.842L477.348,153.644L477.246,153.675L477.41,153.842Z" style="fill:white;fill-rule:nonzero;"/>
            <path d="M477.41,153.842L477.242,153.718L477.301,153.634L477.41,153.842Z" style="fill:white;fill-rule:nonzero;"/>
            <path d="M477.164,153.842L477.334,153.718L477.271,153.634L477.164,153.842Z" style="fill:white;fill-rule:nonzero;"/>
            <path d="M477.164,153.842L477.229,153.644L477.33,153.675L477.164,153.842Z" style="fill:white;fill-rule:nonzero;"/>
            <path d="M477.855,152.525L477.801,152.691L477.885,152.717L477.855,152.525Z" style="fill:white;fill-rule:nonzero;"/>
            <path d="M477.855,152.525L477.91,152.691L477.826,152.717L477.855,152.525Z" style="fill:white;fill-rule:nonzero;"/>
            <path d="M478.02,152.646L477.844,152.646L477.844,152.731L478.02,152.646Z" style="fill:white;fill-rule:nonzero;"/>
            <path d="M478.02,152.646L477.877,152.748L477.826,152.678L478.02,152.646Z" style="fill:white;fill-rule:nonzero;"/>
            <path d="M477.689,152.646L477.83,152.748L477.881,152.678L477.689,152.646Z" style="fill:white;fill-rule:nonzero;"/>
            <path d="M477.689,152.646L477.863,152.646L477.863,152.731L477.689,152.646Z" style="fill:white;fill-rule:nonzero;"/>
            <path d="M477.957,152.841L477.902,152.674L477.82,152.702L477.957,152.841Z" style="fill:white;fill-rule:nonzero;"/>
            <path d="M477.957,152.841L477.816,152.737L477.867,152.666L477.957,152.841Z" style="fill:white;fill-rule:nonzero;"/>
            <path d="M477.75,152.841L477.893,152.737L477.842,152.666L477.75,152.841Z" style="fill:white;fill-rule:nonzero;"/>
            <path d="M477.75,152.841L477.805,152.674L477.889,152.702L477.75,152.841Z" style="fill:white;fill-rule:nonzero;"/>
            <path d="M477.287,152.087L477.232,152.251L477.316,152.278L477.287,152.087Z" style="fill:white;fill-rule:nonzero;"/>
            <path d="M477.287,152.087L477.34,152.251L477.262,152.278L477.287,152.087Z" style="fill:white;fill-rule:nonzero;"/>
            <path d="M477.453,152.206L477.279,152.206L477.279,152.294L477.453,152.206Z" style="fill:white;fill-rule:nonzero;"/>
            <path d="M477.453,152.206L477.313,152.308L477.262,152.238L477.453,152.206Z" style="fill:white;fill-rule:nonzero;"/>
            <path d="M477.123,152.206L477.266,152.308L477.313,152.238L477.123,152.206Z" style="fill:white;fill-rule:nonzero;"/>
            <path d="M477.123,152.206L477.297,152.206L477.297,152.294L477.123,152.206Z" style="fill:white;fill-rule:nonzero;"/>
            <path d="M477.391,152.401L477.338,152.235L477.254,152.261L477.391,152.401Z" style="fill:white;fill-rule:nonzero;"/>
            <path d="M477.391,152.401L477.25,152.299L477.301,152.228L477.391,152.401Z" style="fill:white;fill-rule:nonzero;"/>
            <path d="M477.186,152.401L477.326,152.299L477.275,152.228L477.186,152.401Z" style="fill:white;fill-rule:nonzero;"/>
            <path d="M477.186,152.401L477.238,152.235L477.322,152.261L477.186,152.401Z" style="fill:white;fill-rule:nonzero;"/>
            <path d="M476.793,152.56L476.75,152.693L476.818,152.715L476.793,152.56Z" style="fill:white;fill-rule:nonzero;"/>
            <path d="M476.793,152.56L476.84,152.693L476.771,152.715L476.793,152.56Z" style="fill:white;fill-rule:nonzero;"/>
            <path d="M476.928,152.656L476.789,152.656L476.789,152.725L476.928,152.656Z" style="fill:white;fill-rule:nonzero;"/>
            <path d="M476.928,152.656L476.814,152.738L476.771,152.681L476.928,152.656Z" style="fill:white;fill-rule:nonzero;"/>
            <path d="M476.664,152.656L476.775,152.738L476.814,152.681L476.664,152.656Z" style="fill:white;fill-rule:nonzero;"/>
            <path d="M476.664,152.656L476.801,152.656L476.801,152.725L476.664,152.656Z" style="fill:white;fill-rule:nonzero;"/>
            <path d="M476.877,152.813L476.836,152.68L476.768,152.701L476.877,152.813Z" style="fill:white;fill-rule:nonzero;"/>
            <path d="M476.877,152.813L476.766,152.73L476.809,152.674L476.877,152.813Z" style="fill:white;fill-rule:nonzero;"/>
            <path d="M476.715,152.813L476.826,152.73L476.785,152.674L476.715,152.813Z" style="fill:white;fill-rule:nonzero;"/>
            <path d="M476.715,152.813L476.758,152.68L476.822,152.701L476.715,152.813Z" style="fill:white;fill-rule:nonzero;"/>
            <path d="M477.043,152.939L477.012,153.034L477.059,153.049L477.043,152.939Z" style="fill:white;fill-rule:nonzero;"/>
            <path d="M477.043,152.939L477.072,153.034L477.025,153.049L477.043,152.939Z" style="fill:white;fill-rule:nonzero;"/>
            <path d="M477.137,153.008L477.037,153.008L477.037,153.058L477.137,153.008Z" style="fill:white;fill-rule:nonzero;"/>
            <path d="M477.137,153.008L477.059,153.067L477.029,153.026L477.137,153.008Z" style="fill:white;fill-rule:nonzero;"/>
            <path d="M476.945,153.008L477.029,153.067L477.059,153.026L476.945,153.008Z" style="fill:white;fill-rule:nonzero;"/>
            <path d="M476.945,153.008L477.047,153.008L477.047,153.058L476.945,153.008Z" style="fill:white;fill-rule:nonzero;"/>
            <path d="M477.098,153.121L477.068,153.025L477.021,153.04L477.098,153.121Z" style="fill:white;fill-rule:nonzero;"/>
            <path d="M477.098,153.121L477.018,153.062L477.051,153.021L477.098,153.121Z" style="fill:white;fill-rule:nonzero;"/>
            <path d="M476.982,153.121L477.063,153.062L477.033,153.021L476.982,153.121Z" style="fill:white;fill-rule:nonzero;"/>
            <path d="M476.982,153.121L477.016,153.025L477.063,153.04L476.982,153.121Z" style="fill:white;fill-rule:nonzero;"/>
            <path d="M478.754,154.595L478.699,154.762L478.783,154.79L478.754,154.595Z" style="fill:white;fill-rule:nonzero;"/>
            <path d="M478.754,154.595L478.809,154.762L478.723,154.79L478.754,154.595Z" style="fill:white;fill-rule:nonzero;"/>
            <path d="M478.918,154.715L478.744,154.715L478.744,154.805L478.918,154.715Z" style="fill:white;fill-rule:nonzero;"/>
            <path d="M478.918,154.715L478.777,154.819L478.727,154.747L478.918,154.715Z" style="fill:white;fill-rule:nonzero;"/>
            <path d="M478.588,154.715L478.727,154.819L478.781,154.747L478.588,154.715Z" style="fill:white;fill-rule:nonzero;"/>
            <path d="M478.588,154.715L478.762,154.715L478.762,154.805L478.588,154.715Z" style="fill:white;fill-rule:nonzero;"/>
            <path d="M478.855,154.912L478.801,154.745L478.719,154.773L478.855,154.912Z" style="fill:white;fill-rule:nonzero;"/>
            <path d="M478.855,154.912L478.715,154.81L478.766,154.739L478.855,154.912Z" style="fill:white;fill-rule:nonzero;"/>
            <path d="M478.65,154.912L478.791,154.81L478.74,154.739L478.65,154.912Z" style="fill:white;fill-rule:nonzero;"/>
            <path d="M478.65,154.912L478.703,154.745L478.787,154.773L478.65,154.912Z" style="fill:white;fill-rule:nonzero;"/>
            <path d="M479.172,154.198L479.129,154.331L479.193,154.354L479.172,154.198Z" style="fill:white;fill-rule:nonzero;"/>
            <path d="M479.172,154.198L479.215,154.331L479.146,154.354L479.172,154.198Z" style="fill:white;fill-rule:nonzero;"/>
            <path d="M479.305,154.296L479.164,154.296L479.164,154.362L479.305,154.296Z" style="fill:white;fill-rule:nonzero;"/>
            <path d="M479.305,154.296L479.193,154.376L479.15,154.321L479.305,154.296Z" style="fill:white;fill-rule:nonzero;"/>
            <path d="M479.037,154.296L479.15,154.376L479.193,154.321L479.037,154.296Z" style="fill:white;fill-rule:nonzero;"/>
            <path d="M479.037,154.296L479.18,154.296L479.18,154.362L479.037,154.296Z" style="fill:white;fill-rule:nonzero;"/>
            <path d="M479.254,154.45L479.211,154.317L479.146,154.34L479.254,154.45Z" style="fill:white;fill-rule:nonzero;"/>
            <path d="M479.254,154.45L479.143,154.368L479.184,154.312L479.254,154.45Z" style="fill:white;fill-rule:nonzero;"/>
            <path d="M479.092,154.45L479.203,154.368L479.16,154.312L479.092,154.45Z" style="fill:white;fill-rule:nonzero;"/>
            <path d="M479.092,154.45L479.135,154.317L479.201,154.34L479.092,154.45Z" style="fill:white;fill-rule:nonzero;"/>
            <path d="M478.367,154.078L478.324,154.21L478.389,154.233L478.367,154.078Z" style="fill:white;fill-rule:nonzero;"/>
            <path d="M478.367,154.078L478.41,154.21L478.346,154.233L478.367,154.078Z" style="fill:white;fill-rule:nonzero;"/>
            <path d="M478.498,154.174L478.359,154.174L478.359,154.245L478.498,154.174Z" style="fill:white;fill-rule:nonzero;"/>
            <path d="M478.498,154.174L478.385,154.258L478.346,154.199L478.498,154.174Z" style="fill:white;fill-rule:nonzero;"/>
            <path d="M478.232,154.174L478.346,154.258L478.385,154.199L478.232,154.174Z" style="fill:white;fill-rule:nonzero;"/>
            <path d="M478.232,154.174L478.375,154.174L478.375,154.245L478.232,154.174Z" style="fill:white;fill-rule:nonzero;"/>
            <path d="M478.449,154.331L478.406,154.198L478.338,154.221L478.449,154.331Z" style="fill:white;fill-rule:nonzero;"/>
            <path d="M478.449,154.331L478.334,154.249L478.377,154.193L478.449,154.331Z" style="fill:white;fill-rule:nonzero;"/>
            <path d="M478.283,154.331L478.396,154.249L478.355,154.193L478.283,154.331Z" style="fill:white;fill-rule:nonzero;"/>
            <path d="M478.283,154.331L478.326,154.198L478.396,154.221L478.283,154.331Z" style="fill:white;fill-rule:nonzero;"/>
            <path d="M475.322,153.861L475.26,154.06L475.357,154.093L475.322,153.861Z" style="fill:white;fill-rule:nonzero;"/>
            <path d="M475.322,153.861L475.387,154.06L475.289,154.093L475.322,153.861Z" style="fill:white;fill-rule:nonzero;"/>
            <path d="M475.525,154.008L475.314,154.008L475.314,154.112L475.525,154.008Z" style="fill:white;fill-rule:nonzero;"/>
            <path d="M475.525,154.008L475.352,154.13L475.293,154.045L475.525,154.008Z" style="fill:white;fill-rule:nonzero;"/>
            <path d="M475.121,154.008L475.297,154.13L475.354,154.045L475.121,154.008Z" style="fill:white;fill-rule:nonzero;"/>
            <path d="M475.121,154.008L475.332,154.008L475.332,154.112L475.121,154.008Z" style="fill:white;fill-rule:nonzero;"/>
            <path d="M475.445,154.241L475.383,154.043L475.285,154.074L475.445,154.241Z" style="fill:white;fill-rule:nonzero;"/>
            <path d="M475.445,154.241L475.277,154.118L475.336,154.033L475.445,154.241Z" style="fill:white;fill-rule:nonzero;"/>
            <path d="M475.199,154.241L475.369,154.118L475.307,154.033L475.199,154.241Z" style="fill:white;fill-rule:nonzero;"/>
            <path d="M475.199,154.241L475.268,154.043L475.365,154.074L475.199,154.241Z" style="fill:white;fill-rule:nonzero;"/>
            <path d="M477.287,155.232L477.266,155.3L477.297,155.311L477.287,155.232Z" style="fill:white;fill-rule:nonzero;"/>
            <path d="M477.287,155.232L477.309,155.3L477.279,155.311L477.287,155.232Z" style="fill:white;fill-rule:nonzero;"/>
            <path d="M477.355,155.282L477.283,155.282L477.283,155.316L477.355,155.282Z" style="fill:white;fill-rule:nonzero;"/>
            <path d="M477.355,155.282L477.297,155.323L477.279,155.294L477.355,155.282Z" style="fill:white;fill-rule:nonzero;"/>
            <path d="M477.221,155.282L477.279,155.323L477.297,155.294L477.221,155.282Z" style="fill:white;fill-rule:nonzero;"/>
            <path d="M477.221,155.282L477.289,155.282L477.289,155.316L477.221,155.282Z" style="fill:white;fill-rule:nonzero;"/>
            <path d="M477.326,155.359L477.309,155.293L477.275,155.305L477.326,155.359Z" style="fill:white;fill-rule:nonzero;"/>
            <path d="M477.326,155.359L477.271,155.319L477.289,155.292L477.326,155.359Z" style="fill:white;fill-rule:nonzero;"/>
            <path d="M477.246,155.359L477.301,155.319L477.283,155.292L477.246,155.359Z" style="fill:white;fill-rule:nonzero;"/>
            <path d="M477.246,155.359L477.27,155.293L477.301,155.305L477.246,155.359Z" style="fill:white;fill-rule:nonzero;"/>
        </g>
    </g>
</svg>
