<?xml version="1.0" encoding="UTF-8" standalone="no"?>
<!DOCTYPE svg PUBLIC "-//W3C//DTD SVG 1.1//EN" "http://www.w3.org/Graphics/SVG/1.1/DTD/svg11.dtd">
<svg width="100%" height="100%" viewBox="0 0 7346 4286" version="1.1" xmlns="http://www.w3.org/2000/svg" xmlns:xlink="http://www.w3.org/1999/xlink" xml:space="preserve" xmlns:serif="http://www.serif.com/" style="fill-rule:evenodd;clip-rule:evenodd;stroke-linejoin:round;stroke-miterlimit:2;">
    <g transform="matrix(1,0,0,1,-3348.79,-2824.01)">
        <g transform="matrix(41.5779,0,0,40.6409,-20758.5,-24431.6)">
            <clipPath id="_clip1">
                <rect x="579.908" y="671.865" width="176.576" height="102.996"/>
            </clipPath>
            <g clip-path="url(#_clip1)">
                <rect x="579.908" y="766.939" width="176.576" height="7.922" style="fill:rgb(203,32,38);fill-rule:nonzero;"/>
                <rect x="579.908" y="759.016" width="176.576" height="7.923" style="fill:white;fill-rule:nonzero;"/>
                <rect x="579.908" y="751.105" width="176.576" height="7.911" style="fill:rgb(203,32,38);fill-rule:nonzero;"/>
                <rect x="579.908" y="743.174" width="176.576" height="7.931" style="fill:white;fill-rule:nonzero;"/>
                <rect x="579.908" y="735.25" width="176.576" height="7.924" style="fill:rgb(203,32,38);fill-rule:nonzero;"/>
                <rect x="579.908" y="727.33" width="176.576" height="7.92" style="fill:white;fill-rule:nonzero;"/>
                <rect x="579.908" y="719.396" width="176.576" height="7.934" style="fill:rgb(203,32,38);fill-rule:nonzero;"/>
                <rect x="579.908" y="711.484" width="176.576" height="7.912" style="fill:white;fill-rule:nonzero;"/>
                <rect x="579.908" y="703.564" width="176.576" height="7.92" style="fill:rgb(203,32,38);fill-rule:nonzero;"/>
                <rect x="579.908" y="695.641" width="176.576" height="7.923" style="fill:white;fill-rule:nonzero;"/>
                <rect x="579.908" y="687.709" width="176.576" height="7.932" style="fill:rgb(203,32,38);fill-rule:nonzero;"/>
                <rect x="579.908" y="679.797" width="176.576" height="7.912" style="fill:white;fill-rule:nonzero;"/>
                <rect x="579.908" y="671.865" width="176.576" height="7.932" style="fill:rgb(203,32,38);fill-rule:nonzero;"/>
                <rect x="579.908" y="671.865" width="80.637" height="55.465" style="fill:rgb(42,53,96);fill-rule:nonzero;"/>
                <path d="M587.193,677.977L587.883,680.086L590.09,680.086L588.303,681.379L588.979,683.475L587.193,682.182L585.406,683.475L586.105,681.379L584.316,680.086L586.504,680.086L587.193,677.977Z" style="fill:white;fill-rule:nonzero;"/>
                <path d="M587.193,687.236L587.883,689.332L590.09,689.332L588.303,690.625L588.979,692.723L587.193,691.428L585.406,692.723L586.105,690.625L584.316,689.332L586.504,689.332L587.193,687.236Z" style="fill:white;fill-rule:nonzero;"/>
                <path d="M587.193,696.504L587.883,698.59L590.09,698.59L588.303,699.885L588.979,701.99L587.193,700.686L585.406,701.99L586.105,699.885L584.316,698.59L586.504,698.59L587.193,696.504Z" style="fill:white;fill-rule:nonzero;"/>
                <path d="M587.193,705.752L587.883,707.848L590.09,707.848L588.303,709.143L588.979,711.238L587.193,709.945L585.406,711.238L586.105,709.143L584.316,707.848L586.504,707.848L587.193,705.752Z" style="fill:white;fill-rule:nonzero;"/>
                <path d="M587.193,715.01L587.883,717.115L590.09,717.115L588.303,718.4L588.979,720.496L587.193,719.201L585.406,720.496L586.105,718.4L584.316,717.115L586.504,717.115L587.193,715.01Z" style="fill:white;fill-rule:nonzero;"/>
                <path d="M593.645,682.859L594.303,684.955L596.523,684.955L594.746,686.252L595.414,688.346L593.645,687.053L591.867,688.346L592.537,686.252L590.756,684.955L592.969,684.955L593.645,682.859Z" style="fill:white;fill-rule:nonzero;"/>
                <path d="M593.645,692.115L594.303,694.203L596.523,694.203L594.746,695.508L595.414,697.592L593.645,696.32L591.867,697.592L592.537,695.508L590.756,694.203L592.969,694.203L593.645,692.115Z" style="fill:white;fill-rule:nonzero;"/>
                <path d="M593.645,701.375L594.303,703.471L596.523,703.471L594.746,704.764L595.414,706.859L593.645,705.566L591.867,706.859L592.537,704.764L590.756,703.471L592.969,703.471L593.645,701.375Z" style="fill:white;fill-rule:nonzero;"/>
                <path d="M593.645,710.643L594.303,712.73L596.523,712.73L594.746,714.023L595.414,716.109L593.645,714.814L591.867,716.109L592.537,714.023L590.756,712.73L592.969,712.73L593.645,710.643Z" style="fill:white;fill-rule:nonzero;"/>
                <path d="M600.158,677.977L600.848,680.086L603.055,680.086L601.27,681.379L601.959,683.475L600.158,682.182L598.393,683.475L599.07,681.379L597.281,680.086L599.482,680.086L600.158,677.977Z" style="fill:white;fill-rule:nonzero;"/>
                <path d="M600.158,687.236L600.848,689.332L603.055,689.332L601.27,690.625L601.959,692.723L600.158,691.428L598.393,692.723L599.07,690.625L597.281,689.332L599.482,689.332L600.158,687.236Z" style="fill:white;fill-rule:nonzero;"/>
                <path d="M600.158,696.504L600.848,698.59L603.055,698.59L601.27,699.885L601.959,701.99L600.158,700.686L598.393,701.99L599.07,699.885L597.281,698.59L599.482,698.59L600.158,696.504Z" style="fill:white;fill-rule:nonzero;"/>
                <path d="M600.158,705.752L600.848,707.848L603.055,707.848L601.27,709.143L601.959,711.238L600.158,709.945L598.393,711.238L599.07,709.143L597.281,707.848L599.482,707.848L600.158,705.752Z" style="fill:white;fill-rule:nonzero;"/>
                <path d="M600.158,715.01L600.848,717.115L603.055,717.115L601.27,718.4L601.959,720.496L600.158,719.201L598.393,720.496L599.07,718.4L597.281,717.115L599.482,717.115L600.158,715.01Z" style="fill:white;fill-rule:nonzero;"/>
                <path d="M606.613,682.859L607.291,684.955L609.51,684.955L607.713,686.252L608.402,688.346L606.613,687.053L604.834,688.346L605.523,686.252L603.725,684.955L605.934,684.955L606.613,682.859Z" style="fill:white;fill-rule:nonzero;"/>
                <path d="M606.613,692.115L607.291,694.203L609.51,694.203L607.713,695.508L608.402,697.592L606.613,696.32L604.834,697.592L605.523,695.508L603.725,694.203L605.934,694.203L606.613,692.115Z" style="fill:white;fill-rule:nonzero;"/>
                <path d="M606.613,701.375L607.291,703.471L609.51,703.471L607.713,704.764L608.402,706.859L606.613,705.566L604.834,706.859L605.523,704.764L603.725,703.471L605.934,703.471L606.613,701.375Z" style="fill:white;fill-rule:nonzero;"/>
                <path d="M606.613,710.643L607.291,712.73L609.51,712.73L607.713,714.023L608.402,716.109L606.613,714.814L604.834,716.109L605.523,714.023L603.725,712.73L605.934,712.73L606.613,710.643Z" style="fill:white;fill-rule:nonzero;"/>
                <path d="M613.148,677.977L613.838,680.086L616.023,680.086L614.236,681.379L614.945,683.475L613.148,682.182L611.359,683.475L612.037,681.379L610.27,680.086L612.469,680.086L613.148,677.977Z" style="fill:white;fill-rule:nonzero;"/>
                <path d="M613.148,687.236L613.838,689.332L616.023,689.332L614.236,690.625L614.945,692.723L613.148,691.428L611.359,692.723L612.037,690.625L610.27,689.332L612.469,689.332L613.148,687.236Z" style="fill:white;fill-rule:nonzero;"/>
                <path d="M613.148,696.504L613.838,698.59L616.023,698.59L614.236,699.885L614.945,701.99L613.148,700.686L611.359,701.99L612.037,699.885L610.27,698.59L612.469,698.59L613.148,696.504Z" style="fill:white;fill-rule:nonzero;"/>
                <path d="M613.148,705.752L613.838,707.848L616.023,707.848L614.236,709.143L614.945,711.238L613.148,709.945L611.359,711.238L612.037,709.143L610.27,707.848L612.469,707.848L613.148,705.752Z" style="fill:white;fill-rule:nonzero;"/>
                <path d="M613.148,715.01L613.838,717.115L616.023,717.115L614.236,718.4L614.945,720.496L613.148,719.201L611.359,720.496L612.037,718.4L610.27,717.115L612.469,717.115L613.148,715.01Z" style="fill:white;fill-rule:nonzero;"/>
                <path d="M619.6,682.859L620.277,684.955L622.479,684.955L620.701,686.252L621.367,688.346L619.6,687.053L617.822,688.346L618.488,686.252L616.711,684.955L618.91,684.955L619.6,682.859Z" style="fill:white;fill-rule:nonzero;"/>
                <path d="M619.6,692.115L620.277,694.203L622.479,694.203L620.701,695.508L621.367,697.592L619.6,696.32L617.822,697.592L618.488,695.508L616.711,694.203L618.91,694.203L619.6,692.115Z" style="fill:white;fill-rule:nonzero;"/>
                <path d="M619.6,701.375L620.277,703.471L622.479,703.471L620.701,704.764L621.367,706.859L619.6,705.566L617.822,706.859L618.488,704.764L616.711,703.471L618.91,703.471L619.6,701.375Z" style="fill:white;fill-rule:nonzero;"/>
                <path d="M619.6,710.643L620.277,712.73L622.479,712.73L620.701,714.023L621.367,716.109L619.6,714.814L617.822,716.109L618.488,714.023L616.711,712.73L618.91,712.73L619.6,710.643Z" style="fill:white;fill-rule:nonzero;"/>
                <path d="M626.113,677.977L626.803,680.086L629.002,680.086L627.225,681.379L627.914,683.475L626.113,682.182L624.346,683.475L625.016,681.379L623.238,680.086L625.438,680.086L626.113,677.977Z" style="fill:white;fill-rule:nonzero;"/>
                <path d="M626.113,687.236L626.803,689.332L629.002,689.332L627.225,690.625L627.914,692.723L626.113,691.428L624.346,692.723L625.016,690.625L623.238,689.332L625.438,689.332L626.113,687.236Z" style="fill:white;fill-rule:nonzero;"/>
                <path d="M626.113,696.504L626.803,698.59L629.002,698.59L627.225,699.885L627.914,701.99L626.113,700.686L624.346,701.99L625.016,699.885L623.238,698.59L625.438,698.59L626.113,696.504Z" style="fill:white;fill-rule:nonzero;"/>
                <path d="M626.113,705.752L626.803,707.848L629.002,707.848L627.225,709.143L627.914,711.238L626.113,709.945L624.346,711.238L625.016,709.143L623.238,707.848L625.438,707.848L626.113,705.752Z" style="fill:white;fill-rule:nonzero;"/>
                <path d="M626.113,715.01L626.803,717.115L629.002,717.115L627.225,718.4L627.914,720.496L626.113,719.201L624.346,720.496L625.016,718.4L623.238,717.115L625.438,717.115L626.113,715.01Z" style="fill:white;fill-rule:nonzero;"/>
                <path d="M632.566,682.859L633.246,684.955L635.465,684.955L633.676,686.252L634.355,688.346L632.566,687.053L630.789,688.346L631.479,686.252L629.691,684.955L631.898,684.955L632.566,682.859Z" style="fill:white;fill-rule:nonzero;"/>
                <path d="M632.566,692.115L633.246,694.203L635.465,694.203L633.676,695.508L634.355,697.592L632.566,696.32L630.789,697.592L631.479,695.508L629.691,694.203L631.898,694.203L632.566,692.115Z" style="fill:white;fill-rule:nonzero;"/>
                <path d="M632.566,701.375L633.246,703.471L635.465,703.471L633.676,704.764L634.355,706.859L632.566,705.566L630.789,706.859L631.479,704.764L629.691,703.471L631.898,703.471L632.566,701.375Z" style="fill:white;fill-rule:nonzero;"/>
                <path d="M632.566,710.643L633.246,712.73L635.465,712.73L633.676,714.023L634.355,716.109L632.566,714.814L630.789,716.109L631.479,714.023L629.691,712.73L631.898,712.73L632.566,710.643Z" style="fill:white;fill-rule:nonzero;"/>
                <path d="M639.102,677.977L639.789,680.086L641.99,680.086L640.213,681.379L640.881,683.475L639.102,682.182L637.334,683.475L638.002,681.379L636.223,680.086L638.422,680.086L639.102,677.977Z" style="fill:white;fill-rule:nonzero;"/>
                <path d="M639.102,687.236L639.789,689.332L641.99,689.332L640.213,690.625L640.881,692.723L639.102,691.428L637.334,692.723L638.002,690.625L636.223,689.332L638.422,689.332L639.102,687.236Z" style="fill:white;fill-rule:nonzero;"/>
                <path d="M639.102,696.504L639.789,698.59L641.99,698.59L640.213,699.885L640.881,701.99L639.102,700.686L637.334,701.99L638.002,699.885L636.223,698.59L638.422,698.59L639.102,696.504Z" style="fill:white;fill-rule:nonzero;"/>
                <path d="M639.102,705.752L639.789,707.848L641.99,707.848L640.213,709.143L640.881,711.238L639.102,709.945L637.334,711.238L638.002,709.143L636.223,707.848L638.422,707.848L639.102,705.752Z" style="fill:white;fill-rule:nonzero;"/>
                <path d="M639.102,715.01L639.789,717.115L641.99,717.115L640.213,718.4L640.881,720.496L639.102,719.201L637.334,720.496L638.002,718.4L636.223,717.115L638.422,717.115L639.102,715.01Z" style="fill:white;fill-rule:nonzero;"/>
                <path d="M645.555,682.859L646.221,684.955L648.432,684.955L646.664,686.252L647.322,688.346L645.555,687.053L643.758,688.346L644.443,686.252L642.678,684.955L644.865,684.955L645.555,682.859Z" style="fill:white;fill-rule:nonzero;"/>
                <path d="M645.555,692.115L646.221,694.203L648.432,694.203L646.664,695.508L647.322,697.592L645.555,696.32L643.758,697.592L644.443,695.508L642.678,694.203L644.865,694.203L645.555,692.115Z" style="fill:white;fill-rule:nonzero;"/>
                <path d="M645.555,701.375L646.221,703.471L648.432,703.471L646.664,704.764L647.322,706.859L645.555,705.566L643.758,706.859L644.443,704.764L642.678,703.471L644.865,703.471L645.555,701.375Z" style="fill:white;fill-rule:nonzero;"/>
                <path d="M645.555,710.643L646.221,712.73L648.432,712.73L646.664,714.023L647.322,716.109L645.555,714.814L643.758,716.109L644.443,714.023L642.678,712.73L644.865,712.73L645.555,710.643Z" style="fill:white;fill-rule:nonzero;"/>
                <path d="M652.068,677.977L652.768,680.086L654.957,680.086L653.18,681.379L653.867,683.475L652.068,682.182L650.301,683.475L650.969,681.379L649.191,680.086L651.391,680.086L652.068,677.977Z" style="fill:white;fill-rule:nonzero;"/>
                <path d="M652.068,687.236L652.768,689.332L654.957,689.332L653.18,690.625L653.867,692.723L652.068,691.428L650.301,692.723L650.969,690.625L649.191,689.332L651.391,689.332L652.068,687.236Z" style="fill:white;fill-rule:nonzero;"/>
                <path d="M652.068,696.504L652.768,698.59L654.957,698.59L653.18,699.885L653.867,701.99L652.068,700.686L650.301,701.99L650.969,699.885L649.191,698.59L651.391,698.59L652.068,696.504Z" style="fill:white;fill-rule:nonzero;"/>
                <path d="M652.068,705.752L652.768,707.848L654.957,707.848L653.18,709.143L653.867,711.238L652.068,709.945L650.301,711.238L650.969,709.143L649.191,707.848L651.391,707.848L652.068,705.752Z" style="fill:white;fill-rule:nonzero;"/>
                <path d="M652.068,715.01L652.768,717.115L654.957,717.115L653.18,718.4L653.867,720.496L652.068,719.201L650.301,720.496L650.969,718.4L649.191,717.115L651.391,717.115L652.068,715.01Z" style="fill:white;fill-rule:nonzero;"/>
            </g>
        </g>
    </g>
</svg>
