<?xml version="1.0" encoding="UTF-8" standalone="no"?>
<!DOCTYPE svg PUBLIC "-//W3C//DTD SVG 1.1//EN" "http://www.w3.org/Graphics/SVG/1.1/DTD/svg11.dtd">
<svg width="100%" height="100%" viewBox="0 0 1611 1839" version="1.1" xmlns="http://www.w3.org/2000/svg" xmlns:xlink="http://www.w3.org/1999/xlink" xml:space="preserve" xmlns:serif="http://www.serif.com/" style="fill-rule:evenodd;clip-rule:evenodd;stroke-linejoin:round;stroke-miterlimit:2;">
    <g transform="matrix(1,0,0,1,-93.75,-791.287)">
        <g transform="matrix(4.16667,0,0,4.16667,0,0)">
            <g>
                <path d="M22.905,189.93L22.905,189.909L22.5,189.909C22.636,189.909 22.769,189.926 22.905,189.93Z" style="fill:rgb(210,105,66);fill-rule:nonzero;"/>
                <g>
                    <path d="M228.896,477.808L227.951,448.292L231.682,453.465C232.657,422.073 249.091,393.257 261.997,370.196L267.854,388.449L265.501,364.865C265.501,364.865 344.776,257.755 383.297,246.63C421.821,235.505 405.472,270.042 405.472,270.042L382.255,282.34L405.099,275.16L349.193,369.359L326.461,373.772L346.773,374.45C346.773,374.45 280.137,466.96 263.831,466L270.47,468.275L235.351,482.184L228.896,477.808Z" style="fill:rgb(182,182,182);fill-rule:nonzero;"/>
                    <path d="M369.43,293.242C369.43,293.242 323.223,334.293 188.623,536.252L190.443,536.59C190.443,536.59 193.776,529.59 208.797,522.939C208.797,522.939 327.028,342.351 369.43,293.242Z" style="fill:white;fill-rule:nonzero;"/>
                    <g>
                        <path d="M227.037,496.921L228.521,494.707L219.665,488.759L218.179,490.97L227.037,496.921Z" style="fill:rgb(81,79,79);fill-rule:nonzero;"/>
                        <path d="M229.797,492.842L231.281,490.628L222.424,484.678L220.939,486.889L229.797,492.842Z" style="fill:rgb(81,79,79);fill-rule:nonzero;"/>
                        <path d="M232.554,488.763L234.039,486.548L225.184,480.601L223.698,482.813L232.554,488.763Z" style="fill:rgb(81,79,79);fill-rule:nonzero;"/>
                        <path d="M235.315,484.683L236.798,482.469L227.941,476.52L226.457,478.734L235.315,484.683Z" style="fill:rgb(81,79,79);fill-rule:nonzero;"/>
                    </g>
                </g>
                <g>
                    <path d="M209.809,566.655L218.42,566.655L219.652,549.421L153.17,549.421L154.401,566.655L166.008,566.655L145.274,585.944L145.274,631.08L227.655,631.08L227.655,585.944L209.809,566.655Z" style="fill:none;fill-rule:nonzero;"/>
                    <g transform="matrix(0.94024,0,0,1,11.2898,0)">
                        <rect x="142.5" y="591.581" width="87.617" height="33.634" style="fill:none;fill-rule:nonzero;"/>
                    </g>
                    <g>
                        <path d="M172.208,600.472L170.757,601.909L170.757,616.412L173.149,619.092L165.746,619.092L165.39,618.705L172.309,618.705L170.359,616.557L170.359,601.782L171.967,600.186L172.208,600.472ZM164.821,599.66L171.567,599.66L169.66,601.596L169.66,616.412L171.454,617.923L164.821,617.923L166.799,616.285L166.799,601.439L164.821,599.66Z" style="fill:none;fill-rule:nonzero;"/>
                        <path d="M190.472,600.714L190.214,601.14C189.484,601.311 188.987,601.628 188.727,602.088C188.466,602.548 188.335,603.324 188.335,604.414L188.335,619.092L185.276,619.092L185.091,618.705L187.951,618.705L187.951,604.557C187.951,603.219 188.124,602.285 188.471,601.76C188.819,601.234 189.484,600.884 190.472,600.714ZM189.972,599.66C188.891,600.221 188.194,600.734 187.88,601.197C187.405,601.918 187.168,603.005 187.168,604.458L187.168,617.923L184.764,617.923L178.044,604.886L178.044,612.613L178.031,613.256L178.2,615.303C178.391,616.253 178.822,616.953 179.498,617.41L179.61,617.51C178.301,617.073 177.646,615.674 177.646,613.311L177.659,611.972L177.659,604.185L176.891,602.691L176.891,610.89C176.891,613.49 177.062,615.195 177.404,616.001C177.746,616.806 178.548,617.395 179.809,617.766L181.048,619.092L173.333,619.092L173.106,618.705L180.237,618.705L179.498,617.923L172.864,617.923C174.022,617.504 174.789,616.944 175.17,616.244C175.548,615.539 175.738,614.337 175.738,612.627L175.738,601.241L173.845,599.66L181.048,599.66L179.027,601.013L185.916,614.448L185.916,612.74L180.009,601.241L182.002,599.888L182.272,600.158L180.507,601.352L185.916,611.972L185.916,604.572C185.916,602.92 185.782,601.815 185.511,601.262C185.241,600.706 184.574,600.175 183.51,599.66L189.972,599.66Z" style="fill:none;fill-rule:nonzero;"/>
                        <path d="M208.89,600.957C207.485,601.052 206.084,601.871 204.691,603.418L202.2,606.18L207.224,616.37L211.252,619.092L202.2,619.092L201.8,618.705L210.042,618.705L207.012,616.642L201.8,606.18L204.449,603.191C205.834,601.642 207.262,600.8 208.733,600.658L208.89,600.957ZM191.354,599.66L198.015,599.66L196.036,601.54L196.036,610.137L196.82,609.239L196.82,601.654L198.414,600.103L198.627,600.415L197.161,601.839L197.161,608.798L201.573,603.532C202.21,602.772 202.527,602.088 202.527,601.483C202.527,601.121 202.347,600.778 201.986,600.45C201.625,600.122 201.188,599.908 200.676,599.802L200.676,599.66L208.178,599.66L208.178,599.802C206.536,600.201 204.766,601.54 202.868,603.816L200.89,606.166L206.142,616.37L208.534,617.923L201.147,617.923L203.012,616.528L199.481,609.468L197.161,612.301L197.161,616.37L199.481,619.092L192.179,619.092L191.794,618.705L198.627,618.705L196.82,616.528L196.82,612.113L199.296,609.069L198.983,608.442L196.036,611.946L196.036,616.37L197.758,617.923L191.24,617.923L193.19,616.257L193.19,601.352L191.354,599.66Z" style="fill:none;fill-rule:nonzero;"/>
                    </g>
                </g>
            </g>
            <path d="M1177.62,72.916C1177.58,72.915 1177.54,72.91 1177.5,72.91C1177.46,72.91 1177.42,72.914 1177.38,72.916L22.616,72.916C22.577,72.914 22.539,72.91 22.5,72.91C22.461,72.91 22.423,72.915 22.385,72.916C15.81,72.979 10.5,78.322 10.5,84.91L10.5,201.909C10.5,195.282 15.873,189.909 22.5,189.909L1177.5,189.909C1184.13,189.909 1189.5,195.282 1189.5,201.909L1189.5,84.91C1189.5,78.322 1184.19,72.979 1177.62,72.916Z" style="fill:rgb(210,105,66);fill-rule:nonzero;"/>
        </g>
    </g>
</svg>
